<svg width="1280" height="85" viewBox="0 0 1280 85" fill="none" xmlns="http://www.w3.org/2000/svg">
<path d="M1580.23 -10.058C1507.67 -10.0406 1433.33 -10.9289 1361.03 -9.37585C1278.02 -7.60797 1196.92 -2.15338 1114.22 0.125417C1044.82 2.03554 980.679 0.258949 913.738 -4.53958C856.427 -8.65012 800.916 -12.7665 740.801 -12.7752C681.359 -12.7752 628.481 -7.30316 572.07 -3.30874C507.807 1.24014 448.547 -0.083592 385.754 -5.57882C321.845 -11.1699 263.166 -17.7711 194.128 -17.6259C108.087 -17.4285 25.4652 -9.92449 -60.815 -10.058" stroke="url(#paint0_linear_1101_1103)" stroke-miterlimit="10"/>
<path d="M1580.23 -6.12766C1509.51 -6.10153 1436.29 -7.08852 1365.98 -5.1784C1279.17 -2.82123 1195.04 3.68712 1108.53 6.62488C1038.16 9.01399 977.078 6.45941 911.219 0.0671734C856.883 -5.20743 803.514 -10.9233 744.38 -11.1033C681.883 -11.2949 625.541 -3.77919 567.739 1.2806C500.992 7.12418 444 5.88173 379.498 -1.23914C318.073 -8.02037 260.796 -16.7262 191.462 -16.2385C105.728 -15.6347 25.283 -6.40634 -60.792 -6.12766" stroke="url(#paint1_linear_1101_1103)" stroke-miterlimit="10"/>
<path d="M1580.23 -2.26085C1511.32 -2.22601 1439.24 -3.27687 1370.84 -1.05032C1280.31 1.89614 1193.14 9.42632 1103.03 13.0201C1031.23 15.8853 973.613 12.605 909.145 4.52909C858.159 -1.85734 806.945 -9.23366 748.63 -9.62265C683.08 -10.0552 622.213 -0.292663 563.078 5.70768C532.104 8.83412 499.454 11.7632 465.687 11.0897C432.638 10.4278 401.344 6.88335 372.444 2.96151C314.187 -4.92573 257.434 -15.7827 188.111 -14.9524C102.754 -13.9277 24.9979 -2.98077 -60.8264 -2.26956" stroke="url(#paint2_linear_1101_1103)" stroke-miterlimit="10"/>
<path d="M1580.17 1.53908C1512.94 1.58262 1442.03 0.505635 1375.5 2.99054C1281.52 6.49146 1191.62 14.9941 1098.17 19.2092C1024.74 22.5243 970.446 18.5792 907.721 8.83992C860.165 1.45489 811.094 -7.57029 753.304 -8.18281C684.927 -8.90563 618.829 3.1531 558.566 9.97787C526.999 13.5543 492.184 17.3252 456.924 16.4949C423.875 15.717 392.912 11.4671 365.276 7.06044C310.176 -1.72961 254.004 -14.7782 184.511 -13.6142C99.5183 -12.1859 24.7595 0.424353 -60.8369 1.53908" stroke="url(#paint3_linear_1101_1103)" stroke-miterlimit="10"/>
<path d="M1580.16 5.2722C1514.53 5.32445 1444.67 4.24747 1379.84 6.91525C1282.79 10.9126 1190.48 20.3122 1094.14 25.0904C1057.45 26.9077 1022.68 27.9585 986.753 24.7711C957.476 22.173 931.721 17.6125 906.877 13.0027C862.432 4.76128 815.514 -5.80826 757.861 -6.63559C686.977 -7.65452 615.569 6.59012 554.326 14.1116C522.212 18.0567 485.254 22.6259 448.65 21.6592C415.453 20.7883 384.9 15.8911 358.449 11.0548C306.278 1.52162 250.778 -13.5678 180.909 -12.1076C96.2239 -10.3339 24.5649 3.83815 -60.8834 5.28671" stroke="url(#paint4_linear_1101_1103)" stroke-miterlimit="10"/>
<path d="M1580.15 8.94439C1515.9 8.99955 1446.99 7.92836 1383.65 10.7181C1284.14 15.1015 1190.07 25.3082 1091.3 30.5363C1054.49 32.4842 1019.82 33.6918 984.075 30.0748C955.072 27.1225 930.354 22.0569 906.718 16.9942C864.883 8.04448 819.925 -3.85169 761.987 -4.8532C724.961 -5.49474 687.73 -0.574292 655.752 3.5914C620.276 8.21285 586.167 13.4788 550.702 18.106C518.109 22.3559 479.362 27.5695 441.527 26.4809C408.091 25.5201 378.016 20.1235 352.512 14.9273C302.733 4.76708 248.283 -12.0292 177.741 -10.3281C93.204 -8.29607 24.5423 7.28682 -60.8946 8.956" stroke="url(#paint5_linear_1101_1103)" stroke-miterlimit="10"/>
<path d="M1580.14 12.5498C1517.04 12.6049 1448.86 11.5308 1386.73 14.3728C1285.47 19.003 1190.31 29.9063 1089.89 35.4596C1053.25 37.4917 1018.32 38.7893 982.935 34.9139C953.966 31.741 929.989 26.24 907.208 20.8289C867.116 11.3102 823.856 -1.57294 765.212 -2.68476C727.171 -3.39888 688.858 1.93089 656.379 6.33752C619.717 11.316 584.583 16.9825 547.921 21.9669C514.873 26.4635 474.986 32.0864 436.137 30.9398C402.347 29.9412 372.785 24.2079 347.976 18.7127C299.736 8.03283 246.949 -9.96819 175.279 -8.15386C90.7422 -6.01441 24.7015 10.8196 -60.9063 12.5382" stroke="url(#paint6_linear_1101_1103)" stroke-miterlimit="10"/>
<path d="M1580.12 16.0914C1517.9 16.1379 1450.14 15.0435 1388.93 17.8622C1286.81 22.5649 1191.39 34.0402 1090.2 39.7444C1054.06 41.7765 1018.48 43.1002 983.596 39.1987C954.388 35.9329 930.741 30.1358 908.382 24.4954C868.928 14.5267 826.945 1.12686 767.07 0.0469708C728.186 -0.655536 689.77 4.72939 656.835 9.33632C619.398 14.5616 583.615 20.5184 546.19 25.7494C512.719 30.4289 472.662 36.1419 433.015 35.004C398.826 34.0228 369.766 28.185 345.264 22.4546C297.4 11.2639 247.132 -7.19292 173.786 -5.39601C89.0334 -3.32042 24.987 14.55 -60.9741 16.0856" stroke="url(#paint7_linear_1101_1103)" stroke-miterlimit="10"/>
<path d="M1580.1 19.575C1518.12 19.6737 1450.58 18.4429 1389.63 21.3168C1288.2 26.1095 1194 37.9273 1093.6 43.7651C1057.57 45.8581 1022.01 47.1121 987.152 43.2571C957.522 39.9739 933.407 34.1071 910.718 28.397C870.535 18.2832 828.107 4.71207 767.445 3.4464C728.288 2.63068 690.1 7.94883 657.017 12.6283C619.523 17.9349 583.808 24.0078 546.326 29.3172C512.696 34.0838 472.844 39.7184 432.9 38.4992C398.484 37.4483 369.594 31.5989 345.047 25.8047C296.99 14.4572 247.678 -3.75576 173.752 -2.06335C88.7592 -0.1242 25.3739 18.2339 -60.9405 19.575" stroke="url(#paint8_linear_1101_1103)" stroke-miterlimit="10"/>
<path d="M1580.09 22.9802C1517.85 23.1602 1450.51 21.6071 1389.34 24.6813C1289.72 29.6888 1197.64 41.7011 1099.07 47.745C1062.61 49.9832 1027.98 51.1472 992.622 47.266C962.456 43.9596 937.487 38.1537 913.966 32.493C872.45 22.4896 828.233 8.78198 767.571 7.05474C728.653 5.94582 690.328 11.2785 657.53 15.9551C620.492 21.2355 585.312 27.3142 548.286 32.6005C514.725 37.3932 474.872 42.9842 434.986 41.5356C400.672 40.2903 371.361 34.3567 346.472 28.6264C298.164 17.5082 247.428 -0.36222 174.39 1.28083C89.1925 3.19967 25.602 21.6622 -60.9175 22.9802" stroke="url(#paint9_linear_1101_1103)" stroke-miterlimit="10"/>
<path d="M1580.07 26.3271C1517.47 26.5419 1450.31 24.5563 1388.77 27.8105C1291.18 32.9719 1201.5 45.141 1105.01 51.3242C1068.24 53.6872 1034.42 54.7409 998.662 50.9091C968.029 47.6259 942.057 41.971 917.658 36.3538C874.752 26.4839 828.495 12.8256 767.89 10.6804C729.325 9.3131 691.296 14.5355 658.795 19.1917C622.384 24.417 587.945 30.458 551.557 35.6803C518.098 40.4818 478.622 45.9131 438.917 44.2585C404.569 42.8244 374.734 36.8647 349.287 31.1953C300.34 20.3094 247.941 2.88603 175.461 4.50586C89.8876 6.41598 25.9439 24.9976 -60.9517 26.3097" stroke="url(#paint10_linear_1101_1103)" stroke-miterlimit="10"/>
<path d="M1580.05 29.6103C1517.02 29.8164 1449.89 27.3053 1387.92 30.725C1292.56 35.9822 1205.49 48.276 1111.27 54.5667C1074.34 57.0312 1041.17 57.9573 1005.11 54.2357C973.932 51.0193 946.992 45.527 921.647 40.0114C876.951 30.3186 829.076 16.8577 768.3 14.3177C730.192 12.7269 692.835 17.7228 660.652 22.3471C625.039 27.4679 591.478 33.4566 555.888 38.5832C522.554 43.3875 483.841 48.5489 444.376 46.7114C409.869 45.1002 379.418 39.1638 353.207 33.5727C303.281 22.9277 249.012 6.03853 176.92 7.64965C90.8223 9.57429 26.3886 28.2807 -61.0312 29.6015" stroke="url(#paint11_linear_1101_1103)" stroke-miterlimit="10"/>
<path d="M1580.04 32.8297C1516.49 32.9923 1449.39 29.8775 1386.86 33.4452C1293.89 38.7488 1209.59 51.153 1117.8 57.4785C1080.9 60.0272 1048.18 60.8197 1011.94 57.2607C980.2 54.143 952.314 48.8423 925.932 43.4951C879.207 34.0228 829.873 20.8842 768.87 17.9784C695.251 14.4688 620.857 32.7339 561.198 41.344C527.99 46.1396 490.325 50.944 451.202 48.9323C416.421 47.1411 385.333 41.2627 358.221 35.7559C307.03 25.3605 250.733 9.07513 178.823 10.695C92.087 12.6457 27.0378 31.4886 -61.0089 32.8297" stroke="url(#paint12_linear_1101_1103)" stroke-miterlimit="10"/>
<path d="M1580.01 35.9822C1515.91 36.0721 1448.8 32.2896 1385.62 35.9822C1295.14 41.2887 1213.75 53.7509 1124.51 60.0967C1087.73 62.7094 1055.34 63.3596 1018.99 60.0067C986.673 57.0196 957.818 51.954 930.399 46.7752C881.646 37.573 830.842 24.8727 769.531 21.6069C697.029 17.7518 625.837 35.4887 567.284 43.9594C534.907 48.636 497.163 53.3503 459.112 50.9409C423.783 48.7057 392.661 43.2859 364.011 37.7704C311.349 27.6392 252.887 12.0127 180.977 13.65C93.5004 15.6385 27.756 34.6236 -61.0313 36.0025" stroke="url(#paint13_linear_1101_1103)" stroke-miterlimit="10"/>
<path d="M1579.99 39.0738C1515.28 39.0738 1448.1 34.5655 1384.22 38.3945C1296.32 43.6633 1217.91 56.1778 1131.3 62.4887C980.873 73.4589 902.399 32.9602 770.26 25.2094C699.034 21.0263 631.444 38.1245 573.95 46.424C541.722 51.0687 505.437 55.2982 467.864 52.7523C432.091 50.3284 400.239 45.0277 370.438 39.6166C316.135 29.7467 255.405 14.8315 183.347 16.4949C95.0615 18.5269 28.5422 37.6601 -61.0657 39.0738" stroke="url(#paint14_linear_1101_1103)" stroke-miterlimit="10"/>
<path d="M1579.97 42.0987C1514.63 41.9768 1447.34 36.7283 1382.69 40.6705C1297.41 45.8696 1222 58.4132 1138.09 64.669C990.776 75.6478 901.054 37.0912 771.047 28.7859C701.052 24.3096 637.518 40.6502 581.073 48.79C548.981 53.4172 514.28 57.0894 477.243 54.4275C440.991 51.8148 408.33 46.6476 377.333 41.3498C321.286 31.7702 258.243 17.572 185.877 19.2731C96.7253 21.3661 29.3741 40.6386 -61.0999 42.0987" stroke="url(#paint15_linear_1101_1103)" stroke-miterlimit="10"/>
<path d="M1579.95 45.0596C1513.96 44.8128 1446.53 38.798 1381.07 42.8388C1298.4 47.9422 1226.08 60.5002 1144.77 66.6718C1000.58 77.6187 899.755 41.1697 771.856 32.3099C703.115 27.5491 643.9 43.0856 588.447 51.0657C556.469 55.6668 523.488 58.7497 487.021 56.0007C450.268 53.2168 416.764 48.1628 384.535 42.9956C326.689 33.7062 261.32 20.2483 188.59 21.9872C98.5604 24.144 30.3204 43.5617 -61.0539 45.0712" stroke="url(#paint16_linear_1101_1103)" stroke-miterlimit="10"/>
<path d="M1579.92 47.9568C1513.3 47.5823 1445.68 40.7982 1379.35 44.9232C1299.24 49.9104 1229.9 62.4743 1151.21 68.5414C1010.08 79.4244 898.478 45.1641 772.676 35.7732C705.177 30.7337 650.407 45.4428 595.899 53.2691C564.059 57.8412 532.685 60.3174 496.821 57.4696C459.556 54.5086 425.174 49.5824 391.737 44.5429C332.079 35.5439 264.408 22.8291 191.222 24.6115C100.247 26.8293 31.1634 46.3834 -61.1226 47.9568" stroke="url(#paint17_linear_1101_1103)" stroke-miterlimit="10"/>
<path d="M1579.9 50.787C1512.66 50.2877 1444.81 42.7517 1377.72 46.9465C1300.07 51.8031 1233.66 64.364 1157.48 70.3121C1019.14 81.111 897.191 49.0801 773.428 39.1637C707.16 33.8514 656.846 47.7332 603.227 55.4201C571.523 59.9632 541.688 61.8326 506.508 58.9036C468.73 55.7626 433.481 50.9496 398.849 46.0495C337.435 37.3581 267.508 25.3603 193.821 27.1805C101.933 29.4593 31.9954 49.173 -61.1909 50.7812" stroke="url(#paint18_linear_1101_1103)" stroke-miterlimit="10"/>
<path d="M1579.88 53.5565C1511.97 52.9382 1443.96 44.6794 1376.05 48.9322C1300.73 53.6494 1237.13 66.2017 1163.31 72.022C1027.63 82.7222 895.926 52.915 774.238 42.4732C709.075 36.8821 663.262 49.9946 610.384 57.5277C578.783 62.0273 550.509 63.3336 515.922 60.3203C477.653 56.9994 441.55 52.2821 405.789 47.5243C342.689 39.1319 270.608 27.8395 196.408 29.7061C103.655 32.043 32.8959 51.899 -61.1451 53.5565" stroke="url(#paint19_linear_1101_1103)" stroke-miterlimit="10"/>
<path d="M1579.85 56.2591C1511.31 55.5391 1443.1 46.6011 1374.43 50.8974C1301.26 55.4724 1240.29 68.0246 1168.69 73.7085C1099.23 79.2241 1025.34 72.9973 960.462 66.3438C897.897 59.9255 838.421 51.507 774.921 45.6866C710.579 39.7879 669.541 52.2821 617.062 59.6207C547.375 69.36 476 57.008 412.216 48.9989C347.589 40.8939 273.48 30.275 198.789 32.1822C105.216 34.5684 33.6819 54.5638 -61.191 56.262" stroke="url(#paint20_linear_1101_1103)" stroke-miterlimit="10"/>
<path d="M1579.83 58.9009C1510.65 58.0968 1442.43 48.5403 1372.88 52.8686C1301.66 57.3043 1243.12 69.8478 1173.44 75.4069C1104.62 80.905 1028.78 74.9337 963.596 68.8405C899.766 62.8721 839.013 54.9906 775.525 48.79C712.037 42.5893 674.954 54.471 623.147 61.7051C555.044 71.2122 480.696 57.9313 418.017 50.4853C352.033 42.6474 276.044 32.673 200.943 34.6063C106.64 37.0361 34.3998 57.1649 -61.1683 58.9009" stroke="url(#paint21_linear_1101_1103)" stroke-miterlimit="10"/>
<path d="M1579.81 61.4758C1509.97 60.6049 1441.81 50.5143 1371.45 54.8687C1301.94 59.168 1245.55 71.7057 1177.72 77.1574C1109.42 82.6294 1031.85 76.9019 966.365 71.3138C901.407 65.7663 839.435 58.358 776.049 51.7771C746.146 48.6739 724.231 48.5462 695.319 52.5493C671.82 55.8035 651.945 60.5294 628.481 63.8068C597.175 68.1844 572.241 68.0625 539.454 64.8083C500.058 60.8923 461.675 56.3899 423.02 52.0152C355.93 44.4443 278.288 35.0505 202.846 37.0012C107.893 39.4571 35.0492 59.7195 -61.2026 61.4758" stroke="url(#paint22_linear_1101_1103)" stroke-miterlimit="10"/>
<path d="M1579.79 63.9897C1509.3 63.1188 1441.35 52.5464 1370.16 56.9153C1302.03 61.0984 1247.57 73.6826 1181.1 78.9949C1113.16 84.4263 1034.16 78.9368 968.417 73.7696C902.672 68.6024 839.549 61.5774 776.369 54.6104C747.172 51.391 725.827 50.9353 697.166 54.9181C674.442 58.0764 655.479 62.7385 632.812 65.9201C601.677 70.2919 577.13 69.8275 544.913 66.4659C505.323 62.335 466.348 57.8413 426.963 53.5885C359.031 46.2557 279.873 37.3844 204.317 39.341C108.84 41.8114 35.5055 62.1957 -61.2136 63.9636" stroke="url(#paint23_linear_1101_1103)" stroke-miterlimit="10"/>
<path d="M1579.76 66.4338C1508.62 65.5862 1441.05 54.648 1369.07 59.0285C1301.95 63.1187 1249.18 75.7987 1183.64 80.9542C1115.79 86.2985 1035.94 81.0587 969.784 76.2602C903.094 71.4269 839.424 64.695 776.505 57.3448C747.901 54.0064 726.795 53.3039 698.351 57.2867C676.242 60.3783 658.043 65.0114 636.002 68.132C605.016 72.5184 580.492 71.8071 548.765 68.3178C509.118 63.9634 469.687 59.4581 429.698 55.2953C361.321 48.1745 280.842 39.7618 205.342 41.7038C109.489 44.1713 35.8017 64.6718 -61.3276 66.4338" stroke="url(#paint24_linear_1101_1103)" stroke-miterlimit="10"/>
<path d="M1579.74 68.8172C1507.94 68.0479 1440.96 56.8456 1368.18 61.2377C1301.75 65.2466 1250.13 77.9817 1185.38 83.0764C1117.74 88.3945 1036.84 83.2679 970.513 78.7684C903.139 74.1963 839.184 67.6473 776.562 59.8994C748.425 56.4159 727.205 55.5741 698.909 59.583C677.256 62.6514 659.626 67.2874 638.008 70.3848C607.136 74.8088 582.269 73.9728 550.918 70.3238C511.351 65.7198 471.624 61.1825 431.191 57.0894C362.609 50.1485 281.195 42.1132 206.003 44.0263C109.922 46.4676 36.052 67.0784 -61.3053 68.8172" stroke="url(#paint25_linear_1101_1103)" stroke-miterlimit="10"/>
<path d="M1579.71 71.1395C1507.55 70.4486 1441.03 59.1243 1367.81 63.557C1301.61 67.5631 1250.29 80.2866 1185.74 85.3522C1118.17 90.6529 1036.91 85.4218 970.559 81.0181C902.945 76.5302 839.195 70.0305 776.494 62.2478C748.459 58.7643 726.943 58.0386 698.841 62.0214C677.336 65.0695 659.82 69.6648 638.316 72.7216C607.546 77.0934 582.224 76.2805 551.169 72.5271C511.773 67.7663 472 63.1942 431.396 59.1417C363.144 52.3285 280.67 44.3832 206.06 46.3688C110.116 48.9176 35.7671 69.18 -61.3394 71.1308" stroke="url(#paint26_linear_1101_1103)" stroke-miterlimit="10"/>
<path d="M1579.68 73.4241C1507.36 72.7681 1441.04 61.3683 1367.65 65.8533C1301.55 69.8942 1249.97 82.5103 1185.38 87.5439C1117.81 92.8098 1036.73 87.3494 970.479 82.9167C903.083 78.4055 839.606 71.9175 776.471 64.5035C716.71 57.4871 687.091 68.2773 637.871 75.0062C607.102 79.2126 581.62 78.4462 550.85 74.6782C511.625 69.8739 471.921 65.3134 431.328 61.3073C363.475 54.6132 279.93 46.6302 205.855 48.7841C110.321 51.5651 35.0609 71.0031 -61.3961 73.3806" stroke="url(#paint27_linear_1101_1103)" stroke-miterlimit="10"/>
<path d="M1579.66 75.6739C1507.12 75.041 1440.96 63.5571 1367.34 68.0798C1301.24 72.1439 1249.46 84.6265 1184.83 89.6137C1117.26 94.839 1036.42 89.1696 970.274 84.7223C903.139 80.2082 839.902 73.7492 776.403 66.7096C717.143 60.1374 686.464 70.736 637.21 77.1602C606.441 81.1836 580.731 80.4405 550.235 76.6667C511.192 71.8362 471.602 67.3106 431.02 63.3742C363.441 56.8165 279.064 48.9176 205.604 51.2167C110.549 54.1893 34.3656 72.7826 -61.3848 75.5374" stroke="url(#paint28_linear_1101_1103)" stroke-miterlimit="10"/>
<path d="M1579.64 77.883C1506.85 77.2676 1440.79 65.6907 1366.89 70.2338C1300.88 74.2921 1248.78 86.6324 1184.11 91.5674C1116.54 96.7055 1035.96 90.8939 969.943 86.4437C903.128 81.9442 840.027 75.5345 776.3 68.8839C717.462 62.7501 685.735 73.1135 636.355 79.2387C605.506 83.0618 579.603 82.3187 549.335 78.5478C510.508 73.7086 470.997 69.2352 430.484 65.3917C363.076 58.9908 278.186 51.2864 205.228 53.7046C110.64 56.8368 33.579 74.5562 -61.442 77.6508" stroke="url(#paint29_linear_1101_1103)" stroke-miterlimit="10"/>
<path d="M1579.61 80.0544C1506.52 79.4447 1440.58 67.7779 1366.31 72.3239C1300.35 76.3589 1247.94 88.5599 1183.21 93.3962C1115.67 98.4444 1035.49 92.5021 969.499 88.0664C903.048 83.5959 840.142 77.253 776.152 71.003C717.758 65.2988 684.915 75.3894 635.307 81.1836C604.355 84.8006 578.247 84.0314 548.172 80.2721C509.649 75.4083 470.119 71.0805 429.755 67.3076C362.404 61.0838 277.275 53.6639 204.738 56.1923C110.766 59.4523 32.7589 76.2777 -61.4303 79.6654" stroke="url(#paint30_linear_1101_1103)" stroke-miterlimit="10"/>
<path d="M1579.58 82.1852C1506.15 81.5756 1440.24 69.8071 1365.61 74.3473C1299.7 78.3504 1246.94 90.3889 1182.13 95.1264C1114.61 100.061 1034.78 94.0262 968.906 89.6109C902.809 85.1868 840.073 78.931 775.935 73.0875C717.974 67.8041 683.946 77.5957 634.042 83.0387C602.942 86.4322 576.639 85.6194 546.736 81.8775C508.445 77.046 469.058 72.7992 428.786 69.1598C361.4 63.1304 276.283 56.1141 204.134 58.7093C110.765 62.068 31.8695 77.9731 -61.4991 81.6249" stroke="url(#paint31_linear_1101_1103)" stroke-miterlimit="10"/>
<path d="M1579.56 84.2694C1505.76 83.6569 1439.85 71.7868 1364.8 76.2922C1298.94 80.2459 1245.8 92.1102 1180.97 96.7345C1113.48 101.548 1034.07 95.4398 968.257 91.0622C902.649 86.7078 839.936 80.5507 775.731 75.1223C718.18 70.2541 682.898 79.7118 632.652 84.7861C601.381 87.9445 574.874 87.0707 545.095 83.3346C507.066 78.5493 467.857 74.3981 427.715 70.9072C360.216 65.1014 275.36 58.5524 203.519 61.2086C110.8 64.634 31.0495 79.6015 -61.4758 83.4769" stroke="url(#paint32_linear_1101_1103)" stroke-miterlimit="10"/>
<path d="M1579.53 86.313C1505.32 85.686 1439.36 73.7027 1363.87 78.1848C1298.06 82.0689 1244.53 93.7445 1179.63 98.244C1112.19 102.918 1033.21 96.7664 967.55 92.4382C902.398 88.1418 839.754 82.1241 775.525 77.1136C718.374 72.6576 681.769 81.7583 631.147 86.4436C599.683 89.3465 572.97 88.406 543.283 84.7019C505.506 79.9733 466.46 75.9329 426.438 72.6112C358.723 67.0289 274.346 61.0343 202.766 63.737C110.72 67.2205 30.1489 81.2155 -61.5103 85.2912" stroke="url(#paint33_linear_1101_1103)" stroke-miterlimit="10"/>
<path d="M1579.51 88.3103C1504.86 87.6659 1438.91 75.5665 1362.86 79.9876C1297.09 83.8137 1243.14 95.2918 1178.17 99.652C1110.79 104.172 1032.3 98.0003 966.73 93.7272C902.034 89.5092 839.447 83.6424 775.275 79.0558C718.511 74.9917 680.505 83.7208 629.484 88.0026C597.803 90.6588 570.885 89.6166 541.266 85.9706C503.753 81.3136 464.892 77.3968 425.026 74.2544C357.048 68.9275 273.354 63.5513 201.98 66.2858C110.618 69.7693 29.2833 82.8035 -61.5098 87.0475" stroke="url(#paint34_linear_1101_1103)" stroke-miterlimit="10"/>
<path d="M1579.49 90.2582C1504.37 89.5906 1438.35 77.3751 1361.82 81.7353C1296.02 85.4713 1241.65 96.7521 1176.6 100.961C1109.28 105.316 1031.35 99.147 965.773 94.9377C901.555 90.8098 839.013 85.1114 774.91 80.9515C718.533 77.2909 679.046 85.6136 627.603 89.4715C595.694 91.8636 568.583 90.7198 538.987 87.0911C501.746 82.516 463.08 78.736 423.384 75.7901C355.144 70.7361 272.294 66.0217 201.08 68.7882C110.435 72.2921 28.3713 84.3102 -61.5557 88.6994" stroke="url(#paint35_linear_1101_1103)" stroke-miterlimit="10"/>
<path d="M1579.47 92.1479C1503.88 91.4599 1437.78 79.1283 1360.58 83.4159C1294.88 87.0678 1240.05 98.1279 1174.94 102.178C1107.7 106.361 1030.3 100.206 964.872 96.0814C901.122 92.0521 838.626 86.5424 774.659 82.8063C718.636 79.5318 677.587 87.451 625.746 90.8648C593.609 92.9869 566.281 91.7357 536.673 88.1332C499.714 83.6495 461.255 80.017 421.755 77.2791C353.07 72.5184 271.246 68.5413 200.145 71.302C110.207 74.7855 27.4936 85.7934 -61.5787 90.3075" stroke="url(#paint36_linear_1101_1103)" stroke-miterlimit="10"/>
<path d="M1579.44 94.0058C1503.31 93.2772 1437.08 80.8266 1359.34 85.0329C1293.65 88.5832 1238.35 99.4227 1173.18 103.304C1106 107.301 1029.18 101.182 963.847 97.1265C900.575 93.1988 838.125 87.8981 774.329 84.5858C718.636 81.6829 675.969 89.1754 623.74 92.1334C591.364 93.9768 563.831 92.5921 534.178 89.0389C497.5 84.6558 459.253 81.1805 419.966 78.661C350.86 74.2137 270.175 71.0002 199.165 73.7637C109.934 77.2327 26.6278 87.1898 -61.6012 91.8083" stroke="url(#paint37_linear_1101_1103)" stroke-miterlimit="10"/>
<path d="M1579.42 95.8028C1502.74 95.0364 1436.4 82.4668 1358.01 86.5802C1292.37 90.026 1236.62 100.636 1171.35 104.34C1104.26 108.149 1028.03 102.073 962.798 98.1077C899.983 94.2904 837.612 89.2131 774.021 86.3247C718.613 83.8079 674.293 90.8475 621.666 93.3643C589.062 94.9232 561.335 93.4021 531.58 89.8808C495.187 85.6067 457.162 82.2993 418.108 80.0109C348.592 75.9003 269.138 73.4851 198.162 76.2371C109.626 79.6654 25.7957 88.5716 -61.6241 93.283" stroke="url(#paint38_linear_1101_1103)" stroke-miterlimit="10"/>
<path d="M1579.4 97.5444C1502.18 96.7374 1435.67 84.0487 1356.67 88.0635C1291.03 91.3989 1234.81 101.774 1169.46 105.295C1102.46 108.904 1026.83 102.889 961.647 99.0162C899.276 95.3091 836.996 90.4758 773.611 88.0083C718.442 85.863 672.436 92.444 619.432 94.4963C586.588 95.7707 558.668 94.1044 528.799 90.6354C492.689 86.4719 454.888 83.3352 416.079 81.2822C346.096 77.5288 267.998 75.9379 197.045 78.6696C109.295 82.0544 24.9637 89.8865 -61.647 94.6763" stroke="url(#paint39_linear_1101_1103)" stroke-miterlimit="10"/>
<path d="M1579.38 99.231C1501.6 98.3805 1434.92 85.5873 1355.27 89.4801C1289.63 92.6995 1232.94 102.839 1167.51 106.169C1100.6 109.565 1025.59 103.626 960.485 99.8523C898.536 96.2613 836.37 91.6863 773.258 89.6369C718.283 87.8516 670.601 93.9651 617.256 95.553C584.207 96.5371 556.07 94.7199 526.087 91.2944C490.258 87.2493 452.685 84.2922 414.143 82.4841C343.714 79.108 266.995 78.3561 196.043 81.0674C108.931 84.3942 24.2689 91.1435 -61.5896 96.003" stroke="url(#paint40_linear_1101_1103)" stroke-miterlimit="10"/>
<path d="M1579.35 100.857C1501 99.9626 1434.13 87.0388 1353.85 90.83C1288.22 93.9333 1231.03 103.829 1165.51 106.953C1098.72 110.146 1024.34 104.273 959.243 100.604C897.704 97.1207 835.674 92.8273 772.825 91.1929C717.952 89.7647 668.641 95.4022 614.885 96.5227C581.597 97.2165 553.346 95.2396 523.078 91.8606C487.526 87.936 450.182 85.1624 411.92 83.6047C251.234 76.8438 93.774 88.2494 -61.7492 97.2484" stroke="url(#paint41_linear_1101_1103)" stroke-miterlimit="10"/>
<path d="M1579.33 102.43C1500.4 101.487 1433.33 88.4497 1352.39 92.1219C1286.76 95.1003 1229.08 104.75 1163.48 107.69C1096.81 110.68 1023.05 104.88 958.091 101.318C896.906 97.9539 835.059 93.9392 772.494 92.7287C717.633 91.6575 666.772 96.7927 612.617 97.4604C579.135 97.8668 550.645 95.7187 520.206 92.389C485.06 88.5194 447.738 86.0519 409.846 84.6876C253.251 79.0472 89.9217 89.518 -61.7154 98.4561" stroke="url(#paint42_linear_1101_1103)" stroke-miterlimit="10"/>
<path d="M1579.31 103.94C1499.8 102.947 1432.52 89.7967 1350.92 93.347C1285.27 96.2121 1227.12 105.603 1161.44 108.346C1094.88 111.124 1021.76 105.403 956.872 101.96C896.017 98.7232 834.386 94.9929 772.106 94.1772C717.143 93.4573 664.846 98.1078 610.281 98.3023C576.605 98.4213 547.933 96.1047 517.254 92.8157C482.336 89.0739 445.265 86.8183 407.692 85.6978C336.113 83.5641 263.53 85.3813 192.544 87.9911C107.369 91.1233 22.0689 94.5604 -61.7384 99.6028" stroke="url(#paint43_linear_1101_1103)" stroke-miterlimit="10"/>
<path d="M1579.28 105.388C1499.88 104.364 1432.7 91.1901 1351.17 94.4356C1285.79 97.0482 1227.52 106.073 1162.36 108.811C1096.49 111.577 1024.84 106.088 960.519 102.773C898.342 99.5796 835.355 96.0119 771.708 95.5648C715.206 95.1671 660.151 99.5621 603.774 99.0483C569.745 98.7377 541.38 95.9045 510.189 92.7577C477.79 89.489 443.578 87.6166 408.98 86.7312C335.338 84.8472 262.3 87.6253 189.536 90.2467C105.546 93.2715 20.8042 95.5997 -61.795 100.657" stroke="url(#paint44_linear_1101_1103)" stroke-miterlimit="10"/>
<defs>
<linearGradient id="paint0_linear_1101_1103" x1="-1.17999e+06" y1="-9310.84" x2="-1.17999e+06" y2="-9077.82" gradientUnits="userSpaceOnUse">
<stop stop-color="#182333"/>
<stop offset="1" stop-color="#1E2B58"/>
</linearGradient>
<linearGradient id="paint1_linear_1101_1103" x1="-1.17997e+06" y1="-11949.3" x2="-1.17997e+06" y2="-11650.1" gradientUnits="userSpaceOnUse">
<stop stop-color="#182333"/>
<stop offset="1" stop-color="#1E2B58"/>
</linearGradient>
<linearGradient id="paint2_linear_1101_1103" x1="-1.18e+06" y1="-14595.1" x2="-1.18e+06" y2="-14229.5" gradientUnits="userSpaceOnUse">
<stop stop-color="#182333"/>
<stop offset="1" stop-color="#1E2B58"/>
</linearGradient>
<linearGradient id="paint3_linear_1101_1103" x1="-1.17996e+06" y1="-17110.6" x2="-1.17996e+06" y2="-16682" gradientUnits="userSpaceOnUse">
<stop stop-color="#182333"/>
<stop offset="1" stop-color="#1E2B58"/>
</linearGradient>
<linearGradient id="paint4_linear_1101_1103" x1="-1.17999e+06" y1="-19606.7" x2="-1.17999e+06" y2="-19115.4" gradientUnits="userSpaceOnUse">
<stop stop-color="#182333"/>
<stop offset="1" stop-color="#1E2B58"/>
</linearGradient>
<linearGradient id="paint5_linear_1101_1103" x1="-1.17999e+06" y1="-21526.1" x2="-1.17999e+06" y2="-20986.6" gradientUnits="userSpaceOnUse">
<stop stop-color="#182333"/>
<stop offset="1" stop-color="#1E2B58"/>
</linearGradient>
<linearGradient id="paint6_linear_1101_1103" x1="-1.17999e+06" y1="-22951.2" x2="-1.17999e+06" y2="-22375.9" gradientUnits="userSpaceOnUse">
<stop stop-color="#182333"/>
<stop offset="1" stop-color="#1E2B58"/>
</linearGradient>
<linearGradient id="paint7_linear_1101_1103" x1="-1.18002e+06" y1="-23717.7" x2="-1.18002e+06" y2="-23123.2" gradientUnits="userSpaceOnUse">
<stop stop-color="#182333"/>
<stop offset="1" stop-color="#1E2B58"/>
</linearGradient>
<linearGradient id="paint8_linear_1101_1103" x1="-1.17999e+06" y1="-24065.6" x2="-1.17999e+06" y2="-23462.2" gradientUnits="userSpaceOnUse">
<stop stop-color="#182333"/>
<stop offset="1" stop-color="#1E2B58"/>
</linearGradient>
<linearGradient id="paint9_linear_1101_1103" x1="-1.17996e+06" y1="-24418.1" x2="-1.17996e+06" y2="-23805.8" gradientUnits="userSpaceOnUse">
<stop stop-color="#182333"/>
<stop offset="1" stop-color="#1E2B58"/>
</linearGradient>
<linearGradient id="paint10_linear_1101_1103" x1="-1.17997e+06" y1="-24622.2" x2="-1.17997e+06" y2="-24004.8" gradientUnits="userSpaceOnUse">
<stop stop-color="#182333"/>
<stop offset="1" stop-color="#1E2B58"/>
</linearGradient>
<linearGradient id="paint11_linear_1101_1103" x1="-1.18001e+06" y1="-24688.7" x2="-1.18001e+06" y2="-24069.5" gradientUnits="userSpaceOnUse">
<stop stop-color="#182333"/>
<stop offset="1" stop-color="#1E2B58"/>
</linearGradient>
<linearGradient id="paint12_linear_1101_1103" x1="-1.17999e+06" y1="-24634.6" x2="-1.17999e+06" y2="-24016.7" gradientUnits="userSpaceOnUse">
<stop stop-color="#182333"/>
<stop offset="1" stop-color="#1E2B58"/>
</linearGradient>
<linearGradient id="paint13_linear_1101_1103" x1="-1.17999e+06" y1="-24471.2" x2="-1.17999e+06" y2="-23857.3" gradientUnits="userSpaceOnUse">
<stop stop-color="#182333"/>
<stop offset="1" stop-color="#1E2B58"/>
</linearGradient>
<linearGradient id="paint14_linear_1101_1103" x1="-1.18e+06" y1="-24082.3" x2="-1.18e+06" y2="-23478" gradientUnits="userSpaceOnUse">
<stop stop-color="#182333"/>
<stop offset="1" stop-color="#1E2B58"/>
</linearGradient>
<linearGradient id="paint15_linear_1101_1103" x1="-1.18001e+06" y1="-23825.1" x2="-1.18001e+06" y2="-23227.2" gradientUnits="userSpaceOnUse">
<stop stop-color="#182333"/>
<stop offset="1" stop-color="#1E2B58"/>
</linearGradient>
<linearGradient id="paint16_linear_1101_1103" x1="-1.17996e+06" y1="-23512.1" x2="-1.17996e+06" y2="-22922" gradientUnits="userSpaceOnUse">
<stop stop-color="#182333"/>
<stop offset="1" stop-color="#1E2B58"/>
</linearGradient>
<linearGradient id="paint17_linear_1101_1103" x1="-1.17999e+06" y1="-23178.8" x2="-1.17999e+06" y2="-22597" gradientUnits="userSpaceOnUse">
<stop stop-color="#182333"/>
<stop offset="1" stop-color="#1E2B58"/>
</linearGradient>
<linearGradient id="paint18_linear_1101_1103" x1="-1.18002e+06" y1="-22825.6" x2="-1.18002e+06" y2="-22252.6" gradientUnits="userSpaceOnUse">
<stop stop-color="#182333"/>
<stop offset="1" stop-color="#1E2B58"/>
</linearGradient>
<linearGradient id="paint19_linear_1101_1103" x1="-1.17997e+06" y1="-22467.4" x2="-1.17997e+06" y2="-21903.3" gradientUnits="userSpaceOnUse">
<stop stop-color="#182333"/>
<stop offset="1" stop-color="#1E2B58"/>
</linearGradient>
<linearGradient id="paint20_linear_1101_1103" x1="-1.17999e+06" y1="-21997.8" x2="-1.17999e+06" y2="-21445.4" gradientUnits="userSpaceOnUse">
<stop stop-color="#182333"/>
<stop offset="1" stop-color="#1E2B58"/>
</linearGradient>
<linearGradient id="paint21_linear_1101_1103" x1="-1.17996e+06" y1="-21664.3" x2="-1.17996e+06" y2="-21120.3" gradientUnits="userSpaceOnUse">
<stop stop-color="#182333"/>
<stop offset="1" stop-color="#1E2B58"/>
</linearGradient>
<linearGradient id="paint22_linear_1101_1103" x1="-1.17996e+06" y1="-21368" x2="-1.17996e+06" y2="-20831.3" gradientUnits="userSpaceOnUse">
<stop stop-color="#182333"/>
<stop offset="1" stop-color="#1E2B58"/>
</linearGradient>
<linearGradient id="paint23_linear_1101_1103" x1="-1.17996e+06" y1="-21137" x2="-1.17996e+06" y2="-20606.1" gradientUnits="userSpaceOnUse">
<stop stop-color="#182333"/>
<stop offset="1" stop-color="#1E2B58"/>
</linearGradient>
<linearGradient id="paint24_linear_1101_1103" x1="-1.18002e+06" y1="-20939.1" x2="-1.18002e+06" y2="-20413" gradientUnits="userSpaceOnUse">
<stop stop-color="#182333"/>
<stop offset="1" stop-color="#1E2B58"/>
</linearGradient>
<linearGradient id="paint25_linear_1101_1103" x1="-1.17999e+06" y1="-20845.5" x2="-1.17999e+06" y2="-20321.8" gradientUnits="userSpaceOnUse">
<stop stop-color="#182333"/>
<stop offset="1" stop-color="#1E2B58"/>
</linearGradient>
<linearGradient id="paint26_linear_1101_1103" x1="-1.17999e+06" y1="-20805.5" x2="-1.17999e+06" y2="-20282.6" gradientUnits="userSpaceOnUse">
<stop stop-color="#182333"/>
<stop offset="1" stop-color="#1E2B58"/>
</linearGradient>
<linearGradient id="paint27_linear_1101_1103" x1="-1.18001e+06" y1="-20679.1" x2="-1.18001e+06" y2="-20159.4" gradientUnits="userSpaceOnUse">
<stop stop-color="#182333"/>
<stop offset="1" stop-color="#1E2B58"/>
</linearGradient>
<linearGradient id="paint28_linear_1101_1103" x1="-1.17999e+06" y1="-20484.6" x2="-1.17999e+06" y2="-19969.7" gradientUnits="userSpaceOnUse">
<stop stop-color="#182333"/>
<stop offset="1" stop-color="#1E2B58"/>
</linearGradient>
<linearGradient id="paint29_linear_1101_1103" x1="-1.18001e+06" y1="-20196.7" x2="-1.18001e+06" y2="-19688.9" gradientUnits="userSpaceOnUse">
<stop stop-color="#182333"/>
<stop offset="1" stop-color="#1E2B58"/>
</linearGradient>
<linearGradient id="paint30_linear_1101_1103" x1="-1.17999e+06" y1="-19849.9" x2="-1.17999e+06" y2="-19350.8" gradientUnits="userSpaceOnUse">
<stop stop-color="#182333"/>
<stop offset="1" stop-color="#1E2B58"/>
</linearGradient>
<linearGradient id="paint31_linear_1101_1103" x1="-1.18001e+06" y1="-19433.5" x2="-1.18001e+06" y2="-18944.8" gradientUnits="userSpaceOnUse">
<stop stop-color="#182333"/>
<stop offset="1" stop-color="#1E2B58"/>
</linearGradient>
<linearGradient id="paint32_linear_1101_1103" x1="-1.17998e+06" y1="-18968.1" x2="-1.17998e+06" y2="-18490.9" gradientUnits="userSpaceOnUse">
<stop stop-color="#182333"/>
<stop offset="1" stop-color="#1E2B58"/>
</linearGradient>
<linearGradient id="paint33_linear_1101_1103" x1="-1.17999e+06" y1="-18439.8" x2="-1.17999e+06" y2="-17975.9" gradientUnits="userSpaceOnUse">
<stop stop-color="#182333"/>
<stop offset="1" stop-color="#1E2B58"/>
</linearGradient>
<linearGradient id="paint34_linear_1101_1103" x1="-1.17997e+06" y1="-17852.5" x2="-1.17997e+06" y2="-17403.3" gradientUnits="userSpaceOnUse">
<stop stop-color="#182333"/>
<stop offset="1" stop-color="#1E2B58"/>
</linearGradient>
<linearGradient id="paint35_linear_1101_1103" x1="-1.17999e+06" y1="-17246.2" x2="-1.17999e+06" y2="-16812.1" gradientUnits="userSpaceOnUse">
<stop stop-color="#182333"/>
<stop offset="1" stop-color="#1E2B58"/>
</linearGradient>
<linearGradient id="paint36_linear_1101_1103" x1="-1.17999e+06" y1="-16590.2" x2="-1.17999e+06" y2="-16172.5" gradientUnits="userSpaceOnUse">
<stop stop-color="#182333"/>
<stop offset="1" stop-color="#1E2B58"/>
</linearGradient>
<linearGradient id="paint37_linear_1101_1103" x1="-1.17999e+06" y1="-15928.8" x2="-1.17999e+06" y2="-15527.5" gradientUnits="userSpaceOnUse">
<stop stop-color="#182333"/>
<stop offset="1" stop-color="#1E2B58"/>
</linearGradient>
<linearGradient id="paint38_linear_1101_1103" x1="-1.17999e+06" y1="-15232.1" x2="-1.17999e+06" y2="-14848.3" gradientUnits="userSpaceOnUse">
<stop stop-color="#182333"/>
<stop offset="1" stop-color="#1E2B58"/>
</linearGradient>
<linearGradient id="paint39_linear_1101_1103" x1="-1.17999e+06" y1="-14538.4" x2="-1.17999e+06" y2="-14171.9" gradientUnits="userSpaceOnUse">
<stop stop-color="#182333"/>
<stop offset="1" stop-color="#1E2B58"/>
</linearGradient>
<linearGradient id="paint40_linear_1101_1103" x1="-1.17993e+06" y1="-13858.9" x2="-1.17993e+06" y2="-13509.5" gradientUnits="userSpaceOnUse">
<stop stop-color="#182333"/>
<stop offset="1" stop-color="#1E2B58"/>
</linearGradient>
<linearGradient id="paint41_linear_1101_1103" x1="-1.18003e+06" y1="-13130.7" x2="-1.18003e+06" y2="-12799.4" gradientUnits="userSpaceOnUse">
<stop stop-color="#182333"/>
<stop offset="1" stop-color="#1E2B58"/>
</linearGradient>
<linearGradient id="paint42_linear_1101_1103" x1="-1.17999e+06" y1="-12682.6" x2="-1.17999e+06" y2="-12362.5" gradientUnits="userSpaceOnUse">
<stop stop-color="#182333"/>
<stop offset="1" stop-color="#1E2B58"/>
</linearGradient>
<linearGradient id="paint43_linear_1101_1103" x1="-1.17999e+06" y1="-12129.5" x2="-1.17999e+06" y2="-11823.2" gradientUnits="userSpaceOnUse">
<stop stop-color="#182333"/>
<stop offset="1" stop-color="#1E2B58"/>
</linearGradient>
<linearGradient id="paint44_linear_1101_1103" x1="-1.18001e+06" y1="-11689.9" x2="-1.18001e+06" y2="-11394.7" gradientUnits="userSpaceOnUse">
<stop stop-color="#182333"/>
<stop offset="1" stop-color="#1E2B58"/>
</linearGradient>
</defs>
</svg>
