<svg width="703" height="144" viewBox="0 0 703 144" fill="none" xmlns="http://www.w3.org/2000/svg">
<g filter="url(#filter0_i_789_410)">
    <path d="M21.936 49.216H40.768V64H2.4V1.696H21.936V49.216ZM69.4516 1.696V64H49.9156V1.696H69.4516ZM156.163 1.696V64H136.715V32.936L127.123 64H110.403L100.811 32.936V64H81.275V1.696H105.211L118.939 39.096L132.315 1.696H156.163ZM187.514 1.696V64H167.978V1.696H187.514ZM248.266 1.696V17.184H231.722V64H212.186V17.184H195.818V1.696H248.266ZM276.1 17.272V24.928H295.46V39.624H276.1V48.424H298.1V64H256.564V1.696H298.1V17.272H276.1ZM334.423 1.696C340.935 1.696 346.625 3.016 351.495 5.656C356.423 8.296 360.207 11.9627 362.847 16.656C365.487 21.3493 366.807 26.688 366.807 32.672C366.807 38.5973 365.487 43.936 362.847 48.688C360.207 53.44 356.423 57.1947 351.495 59.952C346.625 62.6507 340.935 64 334.423 64H308.463V1.696H334.423ZM332.663 46.576C337.063 46.576 340.553 45.3733 343.135 42.968C345.716 40.5627 347.007 37.1307 347.007 32.672C347.007 28.2133 345.716 24.7813 343.135 22.376C340.553 19.9707 337.063 18.768 332.663 18.768H327.999V46.576H332.663ZM419.19 64.616C411.739 64.616 405.579 62.8853 400.71 59.424C395.899 55.904 393.289 50.7707 392.878 44.024H413.646C413.939 47.6027 415.523 49.392 418.398 49.392C419.454 49.392 420.334 49.1573 421.038 48.688C421.801 48.16 422.182 47.368 422.182 46.312C422.182 44.8453 421.39 43.672 419.806 42.792C418.222 41.8533 415.758 40.7973 412.414 39.624C408.425 38.216 405.11 36.8373 402.47 35.488C399.889 34.1387 397.659 32.1733 395.782 29.592C393.905 27.0107 392.995 23.696 393.054 19.648C393.054 15.6 394.081 12.168 396.134 9.352C398.246 6.47733 401.091 4.30666 404.67 2.84C408.307 1.37333 412.385 0.639997 416.902 0.639997C424.529 0.639997 430.571 2.4 435.03 5.92C439.547 9.44 441.923 14.3973 442.158 20.792H421.126C421.067 19.032 420.627 17.7707 419.806 17.008C418.985 16.2453 417.987 15.864 416.814 15.864C415.993 15.864 415.318 16.1573 414.79 16.744C414.262 17.272 413.998 18.0347 413.998 19.032C413.998 20.44 414.761 21.6133 416.286 22.552C417.87 23.432 420.363 24.5173 423.766 25.808C427.697 27.2747 430.923 28.6827 433.446 30.032C436.027 31.3813 438.257 33.2587 440.134 35.664C442.011 38.0693 442.95 41.0907 442.95 44.728C442.95 48.5413 442.011 51.9733 440.134 55.024C438.257 58.016 435.529 60.3627 431.95 62.064C428.371 63.7653 424.118 64.616 419.19 64.616ZM492.766 54.584H471.998L468.918 64H448.414L471.206 1.696H493.734L516.438 64H495.846L492.766 54.584ZM488.014 39.888L482.382 22.552L476.75 39.888H488.014ZM543.413 49.216H562.245V64H523.877V1.696H543.413V49.216ZM590.928 17.272V24.928H610.288V39.624H590.928V48.424H612.928V64H571.392V1.696H612.928V17.272H590.928ZM647.667 64.616C640.216 64.616 634.056 62.8853 629.187 59.424C624.376 55.904 621.765 50.7707 621.355 44.024H642.123C642.416 47.6027 644 49.392 646.875 49.392C647.931 49.392 648.811 49.1573 649.515 48.688C650.277 48.16 650.659 47.368 650.659 46.312C650.659 44.8453 649.867 43.672 648.283 42.792C646.699 41.8533 644.235 40.7973 640.891 39.624C636.901 38.216 633.587 36.8373 630.947 35.488C628.365 34.1387 626.136 32.1733 624.259 29.592C622.381 27.0107 621.472 23.696 621.531 19.648C621.531 15.6 622.557 12.168 624.611 9.352C626.723 6.47733 629.568 4.30666 633.147 2.84C636.784 1.37333 640.861 0.639997 645.379 0.639997C653.005 0.639997 659.048 2.4 663.507 5.92C668.024 9.44 670.4 14.3973 670.635 20.792H649.603C649.544 19.032 649.104 17.7707 648.283 17.008C647.461 16.2453 646.464 15.864 645.291 15.864C644.469 15.864 643.795 16.1573 643.267 16.744C642.739 17.272 642.475 18.0347 642.475 19.032C642.475 20.44 643.237 21.6133 644.763 22.552C646.347 23.432 648.84 24.5173 652.243 25.808C656.173 27.2747 659.4 28.6827 661.923 30.032C664.504 31.3813 666.733 33.2587 668.611 35.664C670.488 38.0693 671.427 41.0907 671.427 44.728C671.427 48.5413 670.488 51.9733 668.611 55.024C666.733 58.016 664.005 60.3627 660.427 62.064C656.848 63.7653 652.595 64.616 647.667 64.616ZM690.971 64.704C687.568 64.704 684.84 63.7947 682.787 61.976C680.733 60.1573 679.707 57.8693 679.707 55.112C679.707 52.296 680.733 49.9787 682.787 48.16C684.84 46.2827 687.568 45.344 690.971 45.344C694.315 45.344 697.013 46.2827 699.067 48.16C701.12 49.9787 702.147 52.296 702.147 55.112C702.147 57.8693 701.12 60.1573 699.067 61.976C697.013 63.7947 694.315 64.704 690.971 64.704ZM690.971 29.856C687.568 29.856 684.84 28.9467 682.787 27.128C680.733 25.3093 679.707 23.0213 679.707 20.264C679.707 17.448 680.733 15.1307 682.787 13.312C684.84 11.4347 687.568 10.496 690.971 10.496C694.315 10.496 697.013 11.4347 699.067 13.312C701.12 15.1307 702.147 17.448 702.147 20.264C702.147 23.0213 701.12 25.3093 699.067 27.128C697.013 28.9467 694.315 29.856 690.971 29.856Z" fill="white"></path>
    <path d="M54.056 117.608C54.056 121.128 53.088 124.296 51.152 127.112C49.2747 129.928 46.5173 132.187 42.88 133.888C39.2427 135.589 34.872 136.499 29.768 136.616V143.656H24.312V136.44C17.5067 135.795 11.992 133.741 7.768 130.28C3.544 126.819 1.22667 122.067 0.816 116.024H21.584C21.76 118.429 22.6693 120.072 24.312 120.952V112.328C19.208 110.92 15.16 109.629 12.168 108.456C9.23467 107.283 6.56533 105.347 4.16 102.648C1.81333 99.9493 0.64 96.2827 0.64 91.648C0.64 87.8347 1.696 84.5493 3.808 81.792C5.92 78.976 8.76533 76.8053 12.344 75.28C15.9227 73.7547 19.912 72.904 24.312 72.728V65.6H29.768V72.728C36.7493 73.1973 42.264 75.1627 46.312 78.624C50.36 82.0267 52.5893 86.7493 53 92.792H31.968C31.7333 90.5627 31 89.0667 29.768 88.304V96.84C31.8213 97.4267 32.7893 97.72 32.672 97.72C37.072 99.0693 40.68 100.419 43.496 101.768C46.3707 103.059 48.8347 104.995 50.888 107.576C53 110.157 54.056 113.501 54.056 117.608ZM21.584 90.768C21.584 92.2933 22.4933 93.584 24.312 94.64V87.6C22.4933 87.952 21.584 89.008 21.584 90.768ZM29.768 121.744C32.056 121.275 33.2 120.043 33.2 118.048C33.2 116.523 32.056 115.232 29.768 114.176V121.744ZM102.115 94.992C101.353 93.76 100.267 92.8213 98.8594 92.176C97.4514 91.472 95.7501 91.12 93.7554 91.12C90.0008 91.12 87.0968 92.352 85.0434 94.816C82.9901 97.2213 81.9634 100.536 81.9634 104.76C81.9634 109.629 83.1074 113.267 85.3954 115.672C87.6834 118.077 91.2034 119.28 95.9554 119.28C100.473 119.28 104.11 117.461 106.867 113.824H91.2914V100.008H123.059V119.544C120.361 124.179 116.635 128.168 111.883 131.512C107.131 134.797 101.118 136.44 93.8434 136.44C87.3901 136.44 81.7581 135.12 76.9474 132.48C72.1954 129.781 68.5288 126.027 65.9474 121.216C63.4248 116.405 62.1634 110.92 62.1634 104.76C62.1634 98.6 63.4248 93.1147 65.9474 88.304C68.5288 83.4933 72.1954 79.768 76.9474 77.128C81.6994 74.4293 87.2728 73.08 93.6674 73.08C101.822 73.08 108.451 75.0453 113.555 78.976C118.718 82.9067 121.769 88.2453 122.707 94.992H102.115ZM152.631 73.696V136H133.095V73.696H152.631ZM227.199 73.696L206.255 136H180.999L160.055 73.696H180.823L193.671 116.552L206.431 73.696H227.199ZM301.453 73.696V89.184H284.909V136H265.373V89.184H249.005V73.696H301.453ZM340.112 136.616C334.245 136.616 328.848 135.237 323.92 132.48C319.05 129.723 315.178 125.909 312.304 121.04C309.429 116.171 307.992 110.685 307.992 104.584C307.992 98.4827 309.429 92.9973 312.304 88.128C315.178 83.2587 319.05 79.4747 323.92 76.776C328.848 74.0187 334.245 72.64 340.112 72.64C345.978 72.64 351.346 74.0187 356.216 76.776C361.085 79.4747 364.928 83.2587 367.744 88.128C370.618 92.9973 372.056 98.4827 372.056 104.584C372.056 110.685 370.618 116.171 367.744 121.04C364.928 125.909 361.056 129.723 356.128 132.48C351.258 135.237 345.92 136.616 340.112 136.616ZM340.112 118.4C343.984 118.4 346.976 117.168 349.088 114.704C351.2 112.181 352.256 108.808 352.256 104.584C352.256 100.301 351.2 96.928 349.088 94.464C346.976 91.9413 343.984 90.68 340.112 90.68C336.181 90.68 333.16 91.9413 331.048 94.464C328.936 96.928 327.88 100.301 327.88 104.584C327.88 108.808 328.936 112.181 331.048 114.704C333.16 117.168 336.181 118.4 340.112 118.4ZM419.767 136L401.639 108.984V136H382.103V73.696H401.639V99.92L419.503 73.696H441.591L420.119 103.528L442.999 136H419.767ZM471.069 89.272V96.928H490.429V111.624H471.069V120.424H493.069V136H451.533V73.696H493.069V89.272H471.069ZM563.183 136H543.647L522.967 104.672V136H503.431V73.696H522.967L543.647 105.552V73.696H563.183V136Z" fill="url(#paint0_linear_789_410)"></path>
</g>
<defs>
    <filter id="filter0_i_789_410" x="0.640137" y="0.640137" width="701.506" height="147.016" filterUnits="userSpaceOnUse" color-interpolation-filters="sRGB">
    <feflood flood-opacity="0" result="BackgroundImageFix"></feflood>
    <feblend mode="normal" in="SourceGraphic" in2="BackgroundImageFix" result="shape"></feblend>
    <fecolormatrix in="SourceAlpha" type="matrix" values="0 0 0 0 0 0 0 0 0 0 0 0 0 0 0 0 0 0 127 0" result="hardAlpha"></fecolormatrix>
    <feoffset dy="4"></feoffset>
    <fegaussianblur stdDeviation="2"></fegaussianblur>
    <fecomposite in2="hardAlpha" operator="arithmetic" k2="-1" k3="1"></fecomposite>
    <fecolormatrix type="matrix" values="0 0 0 0 0 0 0 0 0 0 0 0 0 0 0 0 0 0 0.25 0"></fecolormatrix>
    <feblend mode="normal" in2="shape" result="effect1_innerShadow_789_410"></feblend>
    </filter>
    <lineargradient id="paint0_linear_789_410" x1="371" y1="33.5" x2="371" y2="153.852" gradientUnits="userSpaceOnUse">
    <stop offset="0.432292" stop-color="#F53548"></stop>
    <stop offset="0.971788" stop-color="white"></stop>
    <stop offset="1" stop-color="white"></stop>
    </lineargradient>
</defs>
</svg>