<svg width="47" height="46" viewBox="0 0 47 46" fill="none" xmlns="http://www.w3.org/2000/svg">
<path d="M39.75 39.0756C48.7246 30.3272 48.7246 16.1433 39.75 7.3949C30.7754 -1.35348 16.2246 -1.35348 7.25001 7.3949C-1.72461 16.1433 -1.72461 30.3272 7.25001 39.0756C16.2246 47.824 30.7754 47.8239 39.75 39.0756Z" fill="url(#paint0_linear_609_169)"/>
<path d="M34.6829 13.7198L30.578 33.8928C30.578 33.8928 30.0045 35.2921 28.4253 34.6205L18.9532 27.542L15.5088 25.9186L9.71107 24.0166C9.71107 24.0166 8.82156 23.7085 8.73545 23.037C8.64934 22.3655 9.73949 22.002 9.73949 22.002L32.7885 13.1884C32.7885 13.1884 34.6829 12.3768 34.6829 13.7198Z" fill="white"/>
<path d="M18.2252 33.6673C18.2252 33.6673 17.9488 33.6413 17.6043 32.5761C17.2599 31.5109 15.5084 25.9164 15.5084 25.9164L29.4298 17.3017C29.4298 17.3017 30.2332 16.8258 30.2048 17.3017C30.2048 17.3017 30.3486 17.3856 29.918 17.7768C29.4875 18.168 18.9821 27.3744 18.9821 27.3744" fill="#D3E6F2"/>
<path d="M22.5849 30.2557L18.8383 33.5856C18.8383 33.5856 18.5455 33.8021 18.2252 33.6695L18.9468 27.4815" fill="#B6D0E5"/>
<defs>
<linearGradient id="paint0_linear_609_169" x1="39.75" y1="7.39451" x2="8.19478" y2="39.7658" gradientUnits="userSpaceOnUse">
<stop stop-color="#42BDE9"/>
<stop offset="1" stop-color="#23A8DD"/>
</linearGradient>
</defs>
</svg>
