<svg xmlns="http://www.w3.org/2000/svg" width="279" height="276" viewBox="0 0 279 276" fill="none">
                                                <g filter="url(#filter0_f_1063_2701)">
                                                    <ellipse cx="139.597" cy="135" rx="35.2321" ry="31" fill="#F0C777"></ellipse>
                                                </g>
                                                <g filter="url(#filter1_f_1063_2701)">
                                                    <rect x="101.134" y="148.619" width="78.6309" height="102.586" rx="10" fill="url(#paint0_linear_1063_2701)"></rect>
                                                </g>
                                                <rect x="93" y="121.581" width="94.8993" height="123.262" rx="10" fill="url(#paint1_linear_1063_2701)"></rect>
                                                <path opacity="0.5" d="M174.65 163.331C174.65 179.676 159.524 193.243 140.45 193.243C121.375 193.243 106.25 179.676 106.25 163.331C106.25 146.986 121.375 133.419 140.45 133.419C159.524 133.419 174.65 146.986 174.65 163.331Z" stroke="#F79238" stroke-width="3"></path>
                                                <g filter="url(#filter2_f_1063_2701)">
                                                    <mask id="path-5-inside-1_1063_2701" fill="white">
                                                        <path d="M106.133 168.897C105.369 168.897 104.746 169.517 104.784 170.28C105.071 176.008 107.135 181.567 110.766 186.349C114.689 191.515 120.264 195.541 126.788 197.918C133.311 200.296 140.489 200.918 147.414 199.706C154.34 198.494 160.701 195.502 165.694 191.109C170.686 186.716 174.086 181.119 175.464 175.026C176.841 168.932 176.134 162.616 173.432 156.877C170.73 151.137 166.155 146.231 160.284 142.779C154.751 139.526 148.302 137.703 141.667 137.504C140.995 137.484 140.45 138.031 140.45 138.703V138.703C140.45 139.375 140.995 139.918 141.667 139.94C147.754 140.138 153.668 141.818 158.746 144.804C164.162 147.988 168.383 152.513 170.876 157.808C173.369 163.103 174.021 168.93 172.75 174.551C171.479 180.172 168.343 185.335 163.737 189.387C159.131 193.44 153.263 196.2 146.875 197.318C140.486 198.436 133.864 197.862 127.847 195.669C121.829 193.476 116.686 189.762 113.067 184.996C109.74 180.615 107.839 175.526 107.554 170.28C107.513 169.517 106.897 168.897 106.133 168.897V168.897Z"></path>
                                                    </mask>
                                                    <path d="M106.133 168.897C105.369 168.897 104.746 169.517 104.784 170.28C105.071 176.008 107.135 181.567 110.766 186.349C114.689 191.515 120.264 195.541 126.788 197.918C133.311 200.296 140.489 200.918 147.414 199.706C154.34 198.494 160.701 195.502 165.694 191.109C170.686 186.716 174.086 181.119 175.464 175.026C176.841 168.932 176.134 162.616 173.432 156.877C170.73 151.137 166.155 146.231 160.284 142.779C154.751 139.526 148.302 137.703 141.667 137.504C140.995 137.484 140.45 138.031 140.45 138.703V138.703C140.45 139.375 140.995 139.918 141.667 139.94C147.754 140.138 153.668 141.818 158.746 144.804C164.162 147.988 168.383 152.513 170.876 157.808C173.369 163.103 174.021 168.93 172.75 174.551C171.479 180.172 168.343 185.335 163.737 189.387C159.131 193.44 153.263 196.2 146.875 197.318C140.486 198.436 133.864 197.862 127.847 195.669C121.829 193.476 116.686 189.762 113.067 184.996C109.74 180.615 107.839 175.526 107.554 170.28C107.513 169.517 106.897 168.897 106.133 168.897V168.897Z" stroke="url(#paint2_linear_1063_2701)" stroke-width="6" mask="url(#path-5-inside-1_1063_2701)"></path>
                                                </g>
                                                <text fill="#E67662" xml:space="preserve" style="white-space: pre" font-family="Poppins" font-size="12" font-weight="bold" letter-spacing="0em">
                                                    <tspan x="133.572" y="164.386">25</tspan>
                                                    <tspan x="129.634" y="176.386">SOL</tspan>
                                                </text>
                                                <text fill="white" xml:space="preserve" style="white-space: pre" font-family="Poppins" font-size="11" letter-spacing="0.03em">
                                                    <tspan x="121.022" y="217.431">Target</tspan>
                                                    <tspan x="124.977" y="234.431">Value</tspan>
                                                </text>
                                                <mask id="path-8-inside-2_1063_2701" fill="white">
                                                    <path d="M106.133 163.331C105.369 163.331 104.746 163.951 104.784 164.714C105.071 170.441 107.135 176.001 110.766 180.782C114.689 185.948 120.264 189.974 126.788 192.352C133.311 194.729 140.489 195.351 147.414 194.139C154.34 192.927 160.701 189.935 165.694 185.542C170.686 181.149 174.086 175.552 175.464 169.459C176.841 163.366 176.134 157.05 173.432 151.31C170.73 145.57 166.155 140.664 160.284 137.213C154.751 133.96 148.302 132.136 141.667 131.937C140.995 131.917 140.45 132.464 140.45 133.136V133.136C140.45 133.809 140.995 134.352 141.667 134.373C147.754 134.571 153.668 136.252 158.746 139.237C164.162 142.421 168.383 146.947 170.876 152.242C173.369 157.537 174.021 163.363 172.75 168.984C171.479 174.605 168.343 179.768 163.737 183.821C159.131 187.873 153.263 190.633 146.875 191.751C140.486 192.869 133.864 192.295 127.847 190.102C121.829 187.909 116.686 184.195 113.067 179.43C109.74 175.048 107.839 169.96 107.554 164.714C107.513 163.951 106.897 163.331 106.133 163.331V163.331Z"></path>
                                                </mask>
                                                <path d="M106.133 163.331C105.369 163.331 104.746 163.951 104.784 164.714C105.071 170.441 107.135 176.001 110.766 180.782C114.689 185.948 120.264 189.974 126.788 192.352C133.311 194.729 140.489 195.351 147.414 194.139C154.34 192.927 160.701 189.935 165.694 185.542C170.686 181.149 174.086 175.552 175.464 169.459C176.841 163.366 176.134 157.05 173.432 151.31C170.73 145.57 166.155 140.664 160.284 137.213C154.751 133.96 148.302 132.136 141.667 131.937C140.995 131.917 140.45 132.464 140.45 133.136V133.136C140.45 133.809 140.995 134.352 141.667 134.373C147.754 134.571 153.668 136.252 158.746 139.237C164.162 142.421 168.383 146.947 170.876 152.242C173.369 157.537 174.021 163.363 172.75 168.984C171.479 174.605 168.343 179.768 163.737 183.821C159.131 187.873 153.263 190.633 146.875 191.751C140.486 192.869 133.864 192.295 127.847 190.102C121.829 187.909 116.686 184.195 113.067 179.43C109.74 175.048 107.839 169.96 107.554 164.714C107.513 163.951 106.897 163.331 106.133 163.331V163.331Z" stroke="url(#paint3_linear_1063_2701)" stroke-width="6" mask="url(#path-8-inside-2_1063_2701)"></path>
                                                <mask id="mask0_1063_2701" style="mask-type:alpha" maskUnits="userSpaceOnUse" x="104" y="131" width="73" height="64">
                                                    <mask id="path-9-inside-3_1063_2701" fill="white">
                                                        <path d="M106.133 163.331C105.369 163.331 104.746 163.951 104.784 164.714C105.071 170.441 107.135 176.001 110.766 180.782C114.689 185.948 120.264 189.974 126.788 192.352C133.311 194.729 140.489 195.351 147.414 194.139C154.339 192.927 160.701 189.935 165.693 185.542C170.686 181.149 174.086 175.552 175.464 169.459C176.841 163.366 176.134 157.05 173.432 151.31C170.73 145.57 166.154 140.664 160.283 137.213C154.75 133.96 148.301 132.136 141.667 131.937C140.995 131.917 140.449 132.464 140.449 133.136V133.136C140.449 133.809 140.995 134.352 141.667 134.373C147.754 134.571 153.668 136.252 158.746 139.237C164.162 142.421 168.383 146.947 170.876 152.242C173.368 157.537 174.02 163.363 172.75 168.984C171.479 174.605 168.342 179.768 163.737 183.821C159.131 187.873 153.263 190.633 146.874 191.751C140.486 192.869 133.864 192.295 127.846 190.102C121.829 187.909 116.685 184.195 113.067 179.43C109.74 175.048 107.839 169.96 107.554 164.714C107.512 163.951 106.897 163.331 106.133 163.331V163.331Z"></path>
                                                    </mask>
                                                    <path d="M106.133 163.331C105.369 163.331 104.746 163.951 104.784 164.714C105.071 170.441 107.135 176.001 110.766 180.782C114.689 185.948 120.264 189.974 126.788 192.352C133.311 194.729 140.489 195.351 147.414 194.139C154.339 192.927 160.701 189.935 165.693 185.542C170.686 181.149 174.086 175.552 175.464 169.459C176.841 163.366 176.134 157.05 173.432 151.31C170.73 145.57 166.154 140.664 160.283 137.213C154.75 133.96 148.301 132.136 141.667 131.937C140.995 131.917 140.449 132.464 140.449 133.136V133.136C140.449 133.809 140.995 134.352 141.667 134.373C147.754 134.571 153.668 136.252 158.746 139.237C164.162 142.421 168.383 146.947 170.876 152.242C173.368 157.537 174.02 163.363 172.75 168.984C171.479 174.605 168.342 179.768 163.737 183.821C159.131 187.873 153.263 190.633 146.874 191.751C140.486 192.869 133.864 192.295 127.846 190.102C121.829 187.909 116.685 184.195 113.067 179.43C109.74 175.048 107.839 169.96 107.554 164.714C107.512 163.951 106.897 163.331 106.133 163.331V163.331Z" stroke="url(#paint4_linear_1063_2701)" stroke-width="6" mask="url(#path-9-inside-3_1063_2701)"></path>
                                                </mask>
                                                <g mask="url(#mask0_1063_2701)">
                                                    <g filter="url(#filter3_f_1063_2701)">
                                                        <ellipse cx="106.557" cy="155.776" rx="17.1723" ry="15.1095" fill="#FADD77"></ellipse>
                                                    </g>
                                                    <g filter="url(#filter4_f_1063_2701)">
                                                        <ellipse cx="106.557" cy="158.162" rx="9.94183" ry="8.74762" fill="#FADD77"></ellipse>
                                                    </g>
                                                </g>
                                                <defs>
                                                    <filter id="filter0_f_1063_2701" x="0.365234" y="0" width="278.464" height="270" filterUnits="userSpaceOnUse" color-interpolation-filters="sRGB">
                                                        <feflood flood-opacity="0" result="BackgroundImageFix"></feflood>
                                                        <feblend mode="normal" in="SourceGraphic" in2="BackgroundImageFix" result="shape"></feblend>
                                                        <fegaussianblur stdDeviation="52" result="effect1_foregroundBlur_1063_2701"></fegaussianblur>
                                                    </filter>
                                                    <filter id="filter1_f_1063_2701" x="77.1343" y="124.619" width="126.631" height="150.586" filterUnits="userSpaceOnUse" color-interpolation-filters="sRGB">
                                                        <feflood flood-opacity="0" result="BackgroundImageFix"></feflood>
                                                        <feblend mode="normal" in="SourceGraphic" in2="BackgroundImageFix" result="shape"></feblend>
                                                        <fegaussianblur stdDeviation="12" result="effect1_foregroundBlur_1063_2701"></fegaussianblur>
                                                    </filter>
                                                    <filter id="filter2_f_1063_2701" x="98.7825" y="131.503" width="83.3674" height="74.8062" filterUnits="userSpaceOnUse" color-interpolation-filters="sRGB">
                                                        <feflood flood-opacity="0" result="BackgroundImageFix"></feflood>
                                                        <feblend mode="normal" in="SourceGraphic" in2="BackgroundImageFix" result="shape"></feblend>
                                                        <fegaussianblur stdDeviation="3" result="effect1_foregroundBlur_1063_2701"></fegaussianblur>
                                                    </filter>
                                                    <filter id="filter3_f_1063_2701" x="75.3848" y="126.667" width="62.3445" height="58.219" filterUnits="userSpaceOnUse" color-interpolation-filters="sRGB">
                                                        <feflood flood-opacity="0" result="BackgroundImageFix"></feflood>
                                                        <feblend mode="normal" in="SourceGraphic" in2="BackgroundImageFix" result="shape"></feblend>
                                                        <fegaussianblur stdDeviation="7" result="effect1_foregroundBlur_1063_2701"></fegaussianblur>
                                                    </filter>
                                                    <filter id="filter4_f_1063_2701" x="82.615" y="135.414" width="47.8835" height="45.4951" filterUnits="userSpaceOnUse" color-interpolation-filters="sRGB">
                                                        <feflood flood-opacity="0" result="BackgroundImageFix"></feflood>
                                                        <feblend mode="normal" in="SourceGraphic" in2="BackgroundImageFix" result="shape"></feblend>
                                                        <fegaussianblur stdDeviation="7" result="effect1_foregroundBlur_1063_2701"></fegaussianblur>
                                                    </filter>
                                                    <lineargradient id="paint0_linear_1063_2701" x1="155.053" y1="189.653" x2="49.5812" y2="366.886" gradientUnits="userSpaceOnUse">
                                                        <stop offset="0.177306" stop-color="#927777"></stop>
                                                        <stop offset="1" stop-color="#000AFF"></stop>
                                                    </lineargradient>
                                                    <lineargradient id="paint1_linear_1063_2701" x1="158.074" y1="170.886" x2="31.6136" y2="384.333" gradientUnits="userSpaceOnUse">
                                                        <stop offset="0.177306" stop-color="#373139"></stop>
                                                        <stop offset="1" stop-color="#F79238"></stop>
                                                    </lineargradient>
                                                    <lineargradient id="paint2_linear_1063_2701" x1="125.085" y1="175.259" x2="137.67" y2="136.438" gradientUnits="userSpaceOnUse">
                                                        <stop stop-color="#E67662"></stop>
                                                        <stop offset="0.353335" stop-color="#E67662"></stop>
                                                        <stop offset="1" stop-color="#E67662" stop-opacity="0"></stop>
                                                    </lineargradient>
                                                    <lineargradient id="paint3_linear_1063_2701" x1="125.085" y1="169.693" x2="137.67" y2="130.871" gradientUnits="userSpaceOnUse">
                                                        <stop stop-color="#E67662"></stop>
                                                        <stop offset="1" stop-color="#E67662" stop-opacity="0"></stop>
                                                    </ineargradient>
                                                    <lineargradient id="paint4_linear_1063_2701" x1="125.085" y1="169.693" x2="137.669" y2="130.871" gradientUnits="userSpaceOnUse">
                                                        <stop stop-color="#E67662"></stop>
                                                        <stop offset="1" stop-color="#E67662" stop-opacity="0"></stop>
                                                    </lineargradient>
                                                </defs>
                                            </svg>