<svg width="127" height="155" viewBox="0 0 127 155" fill="none" xmlns="http://www.w3.org/2000/svg">
                          <g filter="url(#filter0_f_1063_2701)">
                            <rect x="24.1343" y="27.6189" width="78.6309" height="102.586" rx="10" fill="url(#paint0_linear_1063_2701)"></rect>
                          </g>
                          <rect x="16" y="0.580811" width="94.8993" height="123.262" rx="10" fill="url(#paint1_linear_1063_2701)"></rect>
                          <path opacity="0.5" d="M97.6499 42.3309C97.6499 58.6761 82.5241 72.2428 63.4497 72.2428C44.3754 72.2428 29.2495 58.6761 29.2495 42.3309C29.2495 25.9856 44.3754 12.4189 63.4497 12.4189C82.5241 12.4189 97.6499 25.9856 97.6499 42.3309Z" stroke="#F79238" stroke-width="3"></path>
                          <g filter="url(#filter1_f_1063_2701)">
                            <mask id="path-4-inside-1_1063_2701" fill="white">
                              <path d="M29.133 47.8974C28.3689 47.8974 27.7458 48.5173 27.7841 49.2805C28.0709 55.0082 30.1349 60.5673 33.766 65.3489C37.6888 70.5146 43.2644 74.5407 49.7878 76.9182C56.3112 79.2957 63.4893 79.9178 70.4144 78.7058C77.3396 77.4937 83.7008 74.502 88.6935 70.109C93.6863 65.716 97.0864 60.1189 98.4639 54.0256C99.8414 47.9323 99.1345 41.6164 96.4324 35.8766C93.7303 30.1368 89.1545 25.231 83.2837 21.7794C77.7507 18.5264 71.3015 16.7029 64.667 16.5038C63.9949 16.4836 63.4497 17.0306 63.4497 17.7029C63.4497 18.3752 63.9949 18.9182 64.6669 18.9401C70.754 19.1381 76.6684 20.8184 81.7463 23.8038C87.1621 26.9879 91.3833 31.5135 93.8759 36.8083C96.3685 42.1032 97.0207 47.9296 95.75 53.5506C94.4792 59.1716 91.3427 64.3348 86.7369 68.3874C82.1311 72.4399 76.263 75.1997 69.8746 76.3178C63.4862 77.4359 56.8645 76.862 50.8467 74.6688C44.829 72.4756 39.6856 68.7615 36.0668 63.9963C32.7398 59.6151 30.8389 54.5263 30.5541 49.2804C30.5127 48.5174 29.8972 47.8974 29.133 47.8974Z"></path>
                            </mask>
                            <path d="M29.133 47.8974C28.3689 47.8974 27.7458 48.5173 27.7841 49.2805C28.0709 55.0082 30.1349 60.5673 33.766 65.3489C37.6888 70.5146 43.2644 74.5407 49.7878 76.9182C56.3112 79.2957 63.4893 79.9178 70.4144 78.7058C77.3396 77.4937 83.7008 74.502 88.6935 70.109C93.6863 65.716 97.0864 60.1189 98.4639 54.0256C99.8414 47.9323 99.1345 41.6164 96.4324 35.8766C93.7303 30.1368 89.1545 25.231 83.2837 21.7794C77.7507 18.5264 71.3015 16.7029 64.667 16.5038C63.9949 16.4836 63.4497 17.0306 63.4497 17.7029C63.4497 18.3752 63.9949 18.9182 64.6669 18.9401C70.754 19.1381 76.6684 20.8184 81.7463 23.8038C87.1621 26.9879 91.3833 31.5135 93.8759 36.8083C96.3685 42.1032 97.0207 47.9296 95.75 53.5506C94.4792 59.1716 91.3427 64.3348 86.7369 68.3874C82.1311 72.4399 76.263 75.1997 69.8746 76.3178C63.4862 77.4359 56.8645 76.862 50.8467 74.6688C44.829 72.4756 39.6856 68.7615 36.0668 63.9963C32.7398 59.6151 30.8389 54.5263 30.5541 49.2804C30.5127 48.5174 29.8972 47.8974 29.133 47.8974Z" stroke="url(#paint2_linear_1063_2701)" stroke-width="6" mask="url(#path-4-inside-1_1063_2701)"></path>
                          </g>
                          <path d="M57.0397 43.0655H63.0637V41.3975H59.8237C61.2157 40.3295 62.9317 38.7935 62.9317 36.8735C62.9317 35.3975 62.0437 34.2335 60.0517 34.2335C58.4557 34.2335 57.0757 35.1455 57.0157 37.2695H58.9957C58.9957 36.4415 59.3557 35.9615 59.9677 35.9615C60.5917 35.9615 60.8797 36.3695 60.8797 37.0055C60.8797 38.4815 58.8997 40.0055 57.0397 41.5415V43.0655ZM64.5311 34.4135V39.6335H66.5111C66.6191 39.2255 66.9551 38.9135 67.5311 38.9135C68.2631 38.9135 68.6591 39.3335 68.6591 40.1255C68.6591 40.8815 68.3231 41.4455 67.5431 41.4455C66.8711 41.4455 66.5231 41.0375 66.4391 40.5815H64.4351C64.5071 42.0935 65.6471 43.1855 67.6151 43.1855C69.5591 43.1855 70.6391 41.9855 70.6391 40.1375C70.6391 38.7215 69.9071 37.2695 67.9991 37.2695C67.3031 37.2695 66.7031 37.5215 66.3911 37.8695V36.2135H70.1351V34.4135H64.5311ZM59.4982 52.6775C59.4982 49.8575 55.3342 50.5175 55.3342 49.0535C55.3342 48.5255 55.7062 48.2735 56.1982 48.2855C56.7502 48.2975 57.1342 48.6215 57.1702 49.1615H59.3902C59.3062 47.5535 58.0702 46.6415 56.2342 46.6415C54.4702 46.6415 53.1622 47.5295 53.1622 49.1255C53.1382 52.1135 57.3502 51.2735 57.3502 52.8335C57.3502 53.3255 56.9662 53.6255 56.3662 53.6255C55.7902 53.6255 55.3822 53.3135 55.3222 52.6655H53.1382C53.1982 54.3695 54.6142 55.2695 56.4262 55.2695C58.3942 55.2695 59.4982 54.0935 59.4982 52.6775ZM69.053 50.9495C69.053 48.4175 67.145 46.6415 64.745 46.6415C62.357 46.6415 60.413 48.4175 60.413 50.9495C60.413 53.4815 62.357 55.2695 64.745 55.2695C67.133 55.2695 69.053 53.4815 69.053 50.9495ZM62.513 50.9495C62.513 49.4495 63.377 48.5015 64.745 48.5015C66.089 48.5015 66.965 49.4495 66.965 50.9495C66.965 52.4255 66.089 53.3975 64.745 53.3975C63.377 53.3975 62.513 52.4255 62.513 50.9495ZM70.1946 46.7615V55.1855H74.9346V53.6015H72.2466V46.7615H70.1946Z" fill="#E67662"></path>
                          <path d="M49.588 88.4138V89.2278H47.498V96.0808H46.497V89.2278H44.396V88.4138H49.588ZM50.7761 93.0448C50.7761 92.4288 50.9008 91.8898 51.1501 91.4278C51.3995 90.9585 51.7405 90.5955 52.1731 90.3388C52.6131 90.0821 53.1008 89.9538 53.6361 89.9538C54.1641 89.9538 54.6225 90.0675 55.0111 90.2948C55.3998 90.5221 55.6895 90.8081 55.8801 91.1528V90.0528H56.8921V96.0808H55.8801V94.9588C55.6821 95.3108 55.3851 95.6041 54.9891 95.8388C54.6005 96.0661 54.1458 96.1798 53.6251 96.1798C53.0898 96.1798 52.6058 96.0478 52.1731 95.7838C51.7405 95.5198 51.3995 95.1495 51.1501 94.6728C50.9008 94.1961 50.7761 93.6535 50.7761 93.0448ZM55.8801 93.0558C55.8801 92.6011 55.7885 92.2051 55.6051 91.8678C55.4218 91.5305 55.1725 91.2738 54.8571 91.0978C54.5491 90.9145 54.2081 90.8228 53.8341 90.8228C53.4601 90.8228 53.1191 90.9108 52.8111 91.0868C52.5031 91.2628 52.2575 91.5195 52.0741 91.8568C51.8908 92.1941 51.7991 92.5901 51.7991 93.0448C51.7991 93.5068 51.8908 93.9101 52.0741 94.2548C52.2575 94.5921 52.5031 94.8525 52.8111 95.0358C53.1191 95.2118 53.4601 95.2998 53.8341 95.2998C54.2081 95.2998 54.5491 95.2118 54.8571 95.0358C55.1725 94.8525 55.4218 94.5921 55.6051 94.2548C55.7885 93.9101 55.8801 93.5105 55.8801 93.0558ZM59.9147 91.0318C60.0907 90.6871 60.3401 90.4195 60.6627 90.2288C60.9927 90.0381 61.3924 89.9428 61.8617 89.9428V90.9768H61.5977C60.4757 90.9768 59.9147 91.5855 59.9147 92.8028V96.0808H58.9137V90.0528H59.9147V91.0318ZM65.8333 89.9538C66.3539 89.9538 66.8086 90.0675 67.1973 90.2948C67.5933 90.5221 67.8866 90.8081 68.0773 91.1528V90.0528H69.0893V96.2128C69.0893 96.7628 68.9719 97.2505 68.7373 97.6758C68.5026 98.1085 68.1653 98.4458 67.7253 98.6878C67.2926 98.9298 66.7866 99.0508 66.2073 99.0508C65.4153 99.0508 64.7553 98.8638 64.2273 98.4898C63.6993 98.1158 63.3876 97.6061 63.2923 96.9608H64.2823C64.3923 97.3275 64.6196 97.6208 64.9643 97.8408C65.3089 98.0681 65.7233 98.1818 66.2073 98.1818C66.7573 98.1818 67.2046 98.0095 67.5493 97.6648C67.9013 97.3201 68.0773 96.8361 68.0773 96.2128V94.9478C67.8793 95.2998 67.5859 95.5931 67.1973 95.8278C66.8086 96.0625 66.3539 96.1798 65.8333 96.1798C65.2979 96.1798 64.8103 96.0478 64.3703 95.7838C63.9376 95.5198 63.5966 95.1495 63.3473 94.6728C63.0979 94.1961 62.9733 93.6535 62.9733 93.0448C62.9733 92.4288 63.0979 91.8898 63.3473 91.4278C63.5966 90.9585 63.9376 90.5955 64.3703 90.3388C64.8103 90.0821 65.2979 89.9538 65.8333 89.9538ZM68.0773 93.0558C68.0773 92.6011 67.9856 92.2051 67.8023 91.8678C67.6189 91.5305 67.3696 91.2738 67.0543 91.0978C66.7463 90.9145 66.4053 90.8228 66.0313 90.8228C65.6573 90.8228 65.3163 90.9108 65.0083 91.0868C64.7003 91.2628 64.4546 91.5195 64.2713 91.8568C64.0879 92.1941 63.9963 92.5901 63.9963 93.0448C63.9963 93.5068 64.0879 93.9101 64.2713 94.2548C64.4546 94.5921 64.7003 94.8525 65.0083 95.0358C65.3163 95.2118 65.6573 95.2998 66.0313 95.2998C66.4053 95.2998 66.7463 95.2118 67.0543 95.0358C67.3696 94.8525 67.6189 94.5921 67.8023 94.2548C67.9856 93.9101 68.0773 93.5105 68.0773 93.0558ZM76.6108 92.8358C76.6108 93.0265 76.5998 93.2281 76.5778 93.4408H71.7598C71.7965 94.0348 71.9982 94.5005 72.3648 94.8378C72.7388 95.1678 73.1898 95.3328 73.7178 95.3328C74.1505 95.3328 74.5098 95.2338 74.7958 95.0358C75.0892 94.8305 75.2945 94.5591 75.4118 94.2218H76.4898C76.3285 94.8011 76.0058 95.2741 75.5218 95.6408C75.0378 96.0001 74.4365 96.1798 73.7178 96.1798C73.1458 96.1798 72.6325 96.0515 72.1778 95.7948C71.7305 95.5381 71.3785 95.1751 71.1218 94.7058C70.8652 94.2291 70.7368 93.6791 70.7368 93.0558C70.7368 92.4325 70.8615 91.8861 71.1108 91.4168C71.3602 90.9475 71.7085 90.5881 72.1558 90.3388C72.6105 90.0821 73.1312 89.9538 73.7178 89.9538C74.2898 89.9538 74.7958 90.0785 75.2358 90.3278C75.6758 90.5771 76.0132 90.9218 76.2478 91.3618C76.4898 91.7945 76.6108 92.2858 76.6108 92.8358ZM75.5768 92.6268C75.5768 92.2455 75.4925 91.9191 75.3238 91.6478C75.1552 91.3691 74.9242 91.1601 74.6308 91.0208C74.3448 90.8741 74.0258 90.8008 73.6738 90.8008C73.1678 90.8008 72.7352 90.9621 72.3758 91.2848C72.0238 91.6075 71.8222 92.0548 71.7708 92.6268H75.5768ZM79.4831 90.8778V94.4308C79.4831 94.7241 79.5455 94.9331 79.6701 95.0578C79.7948 95.1751 80.0111 95.2338 80.3191 95.2338H81.0561V96.0808H80.1541C79.5968 96.0808 79.1788 95.9525 78.9001 95.6958C78.6215 95.4391 78.4821 95.0175 78.4821 94.4308V90.8778H77.7011V90.0528H78.4821V88.5348H79.4831V90.0528H81.0561V90.8778H79.4831ZM55.1605 105.414L52.2675 113.081H51.1125L48.2195 105.414H49.2865L51.6955 112.025L54.1045 105.414H55.1605ZM56.2141 110.045C56.2141 109.429 56.3387 108.89 56.5881 108.428C56.8374 107.958 57.1784 107.595 57.6111 107.339C58.0511 107.082 58.5387 106.954 59.0741 106.954C59.6021 106.954 60.0604 107.067 60.4491 107.295C60.8377 107.522 61.1274 107.808 61.3181 108.153V107.053H62.3301V113.081H61.3181V111.959C61.1201 112.311 60.8231 112.604 60.4271 112.839C60.0384 113.066 59.5837 113.18 59.0631 113.18C58.5277 113.18 58.0437 113.048 57.6111 112.784C57.1784 112.52 56.8374 112.149 56.5881 111.673C56.3387 111.196 56.2141 110.653 56.2141 110.045ZM61.3181 110.056C61.3181 109.601 61.2264 109.205 61.0431 108.868C60.8597 108.53 60.6104 108.274 60.2951 108.098C59.9871 107.914 59.6461 107.823 59.2721 107.823C58.8981 107.823 58.5571 107.911 58.2491 108.087C57.9411 108.263 57.6954 108.519 57.5121 108.857C57.3287 109.194 57.2371 109.59 57.2371 110.045C57.2371 110.507 57.3287 110.91 57.5121 111.255C57.6954 111.592 57.9411 111.852 58.2491 112.036C58.5571 112.212 58.8981 112.3 59.2721 112.3C59.6461 112.3 59.9871 112.212 60.2951 112.036C60.6104 111.852 60.8597 111.592 61.0431 111.255C61.2264 110.91 61.3181 110.51 61.3181 110.056ZM65.3527 104.941V113.081H64.3517V104.941H65.3527ZM72.7347 107.053V113.081H71.7337V112.19C71.543 112.498 71.2753 112.74 70.9307 112.916C70.5933 113.084 70.2193 113.169 69.8087 113.169C69.3393 113.169 68.9177 113.073 68.5437 112.883C68.1697 112.685 67.8727 112.391 67.6527 112.003C67.44 111.614 67.3337 111.141 67.3337 110.584V107.053H68.3237V110.452C68.3237 111.046 68.474 111.504 68.7747 111.827C69.0753 112.142 69.486 112.3 70.0067 112.3C70.542 112.3 70.9637 112.135 71.2717 111.805C71.5797 111.475 71.7337 110.994 71.7337 110.364V107.053H72.7347ZM80.2548 109.836C80.2548 110.026 80.2438 110.228 80.2218 110.441H75.4038C75.4405 111.035 75.6421 111.5 76.0088 111.838C76.3828 112.168 76.8338 112.333 77.3618 112.333C77.7945 112.333 78.1538 112.234 78.4398 112.036C78.7331 111.83 78.9385 111.559 79.0558 111.222H80.1338C79.9725 111.801 79.6498 112.274 79.1658 112.641C78.6818 113 78.0805 113.18 77.3618 113.18C76.7898 113.18 76.2765 113.051 75.8218 112.795C75.3745 112.538 75.0225 112.175 74.7658 111.706C74.5091 111.229 74.3808 110.679 74.3808 110.056C74.3808 109.432 74.5055 108.886 74.7548 108.417C75.0041 107.947 75.3525 107.588 75.7998 107.339C76.2545 107.082 76.7751 106.954 77.3618 106.954C77.9338 106.954 78.4398 107.078 78.8798 107.328C79.3198 107.577 79.6571 107.922 79.8918 108.362C80.1338 108.794 80.2548 109.286 80.2548 109.836ZM79.2208 109.627C79.2208 109.245 79.1365 108.919 78.9678 108.648C78.7991 108.369 78.5681 108.16 78.2748 108.021C77.9888 107.874 77.6698 107.801 77.3178 107.801C76.8118 107.801 76.3791 107.962 76.0198 108.285C75.6678 108.607 75.4661 109.055 75.4148 109.627H79.2208Z" fill="white"></path>
                          <mask id="path-7-inside-2_1063_2701" fill="white">
                            <path d="M29.133 42.3308C28.3689 42.3308 27.7459 42.9507 27.7841 43.7138C28.0709 49.4415 30.1349 55.0007 33.766 59.7823C37.6888 64.9479 43.2644 68.9741 49.7878 71.3516C56.3112 73.7291 63.4893 74.3511 70.4145 73.1391C77.3396 71.9271 83.7008 68.9354 88.6936 64.5423C93.6863 60.1493 97.0864 54.5522 98.4639 48.4589C99.8414 42.3656 99.1345 36.0497 96.4324 30.31C93.7303 24.5702 89.1545 19.6643 83.2837 16.2127C77.7507 12.9598 71.3015 11.1362 64.667 10.9371C63.9949 10.917 63.4497 11.4639 63.4497 12.1362C63.4497 12.8086 63.9949 13.3515 64.6669 13.3734C70.754 13.5714 76.6684 15.2517 81.7463 18.2371C87.1621 21.4212 91.3833 25.9468 93.8759 31.2417C96.3685 36.5366 97.0207 42.3629 95.75 47.9839C94.4792 53.6049 91.3427 58.7682 86.7369 62.8207C82.1311 66.8732 76.263 69.633 69.8746 70.7511C63.4862 71.8692 56.8645 71.2954 50.8467 69.1022C44.829 66.909 39.6856 63.1949 36.0668 58.4296C32.7398 54.0484 30.8389 48.9596 30.5541 43.7137C30.5127 42.9507 29.8972 42.3308 29.133 42.3308Z"></path>
                          </mask>
                          <path d="M29.133 42.3308C28.3689 42.3308 27.7459 42.9507 27.7841 43.7138C28.0709 49.4415 30.1349 55.0007 33.766 59.7823C37.6888 64.9479 43.2644 68.9741 49.7878 71.3516C56.3112 73.7291 63.4893 74.3511 70.4145 73.1391C77.3396 71.9271 83.7008 68.9354 88.6936 64.5423C93.6863 60.1493 97.0864 54.5522 98.4639 48.4589C99.8414 42.3656 99.1345 36.0497 96.4324 30.31C93.7303 24.5702 89.1545 19.6643 83.2837 16.2127C77.7507 12.9598 71.3015 11.1362 64.667 10.9371C63.9949 10.917 63.4497 11.4639 63.4497 12.1362C63.4497 12.8086 63.9949 13.3515 64.6669 13.3734C70.754 13.5714 76.6684 15.2517 81.7463 18.2371C87.1621 21.4212 91.3833 25.9468 93.8759 31.2417C96.3685 36.5366 97.0207 42.3629 95.75 47.9839C94.4792 53.6049 91.3427 58.7682 86.7369 62.8207C82.1311 66.8732 76.263 69.633 69.8746 70.7511C63.4862 71.8692 56.8645 71.2954 50.8467 69.1022C44.829 66.909 39.6856 63.1949 36.0668 58.4296C32.7398 54.0484 30.8389 48.9596 30.5541 43.7137C30.5127 42.9507 29.8972 42.3308 29.133 42.3308Z" stroke="url(#paint3_linear_1063_2701)" stroke-width="6" mask="url(#path-7-inside-2_1063_2701)"></path>
                          <mask id="mask0_1063_2701" style="mask-type:alpha" maskUnits="userSpaceOnUse" x="27" y="10" width="73" height="64">
                            <mask id="path-8-inside-3_1063_2701" fill="white">
                              <path d="M29.1328 42.3308C28.3687 42.3308 27.7456 42.9507 27.7838 43.7138C28.0707 49.4415 30.1347 55.0007 33.7658 59.7823C37.6886 64.9479 43.2642 68.9741 49.7876 71.3516C56.3109 73.7291 63.489 74.3511 70.4142 73.1391C77.3394 71.9271 83.7005 68.9354 88.6933 64.5423C93.6861 60.1493 97.0862 54.5522 98.4637 48.4589C99.8412 42.3656 99.1342 36.0497 96.4321 30.31C93.7301 24.5702 89.1543 19.6643 83.2834 16.2127C77.7504 12.9598 71.3013 11.1362 64.6667 10.9371C63.9947 10.917 63.4494 11.4639 63.4494 12.1362C63.4494 12.8086 63.9946 13.3515 64.6666 13.3734C70.7538 13.5714 76.6681 15.2517 81.7461 18.2371C87.1619 21.4212 91.383 25.9468 93.8756 31.2417C96.3683 36.5366 97.0204 42.3629 95.7497 47.9839C94.479 53.6049 91.3424 58.7682 86.7366 62.8207C82.1309 66.8732 76.2628 69.633 69.8744 70.7511C63.486 71.8692 56.8642 71.2954 50.8465 69.1022C44.8288 66.909 39.6853 63.1949 36.0666 58.4296C32.7395 54.0484 30.8387 48.9596 30.5539 43.7137C30.5125 42.9507 29.8969 42.3308 29.1328 42.3308Z"></path>
                            </mask>
                            <path d="M29.1328 42.3308C28.3687 42.3308 27.7456 42.9507 27.7838 43.7138C28.0707 49.4415 30.1347 55.0007 33.7658 59.7823C37.6886 64.9479 43.2642 68.9741 49.7876 71.3516C56.3109 73.7291 63.489 74.3511 70.4142 73.1391C77.3394 71.9271 83.7005 68.9354 88.6933 64.5423C93.6861 60.1493 97.0862 54.5522 98.4637 48.4589C99.8412 42.3656 99.1342 36.0497 96.4321 30.31C93.7301 24.5702 89.1543 19.6643 83.2834 16.2127C77.7504 12.9598 71.3013 11.1362 64.6667 10.9371C63.9947 10.917 63.4494 11.4639 63.4494 12.1362C63.4494 12.8086 63.9946 13.3515 64.6666 13.3734C70.7538 13.5714 76.6681 15.2517 81.7461 18.2371C87.1619 21.4212 91.383 25.9468 93.8756 31.2417C96.3683 36.5366 97.0204 42.3629 95.7497 47.9839C94.479 53.6049 91.3424 58.7682 86.7366 62.8207C82.1309 66.8732 76.2628 69.633 69.8744 70.7511C63.486 71.8692 56.8642 71.2954 50.8465 69.1022C44.8288 66.909 39.6853 63.1949 36.0666 58.4296C32.7395 54.0484 30.8387 48.9596 30.5539 43.7137C30.5125 42.9507 29.8969 42.3308 29.1328 42.3308Z" stroke="url(#paint4_linear_1063_2701)" stroke-width="6" mask="url(#path-8-inside-3_1063_2701)"></path>
                          </mask>
                          <g mask="url(#mask0_1063_2701)">
                            <g filter="url(#filter2_f_1063_2701)">
                              <ellipse cx="29.557" cy="34.776" rx="17.1723" ry="15.1095" fill="#FADD77"></ellipse>
                            </g>
                            <g filter="url(#filter3_f_1063_2701)">
                              <ellipse cx="29.5568" cy="37.1617" rx="9.94183" ry="8.74762" fill="#FADD77"></ellipse>
                            </g>
                          </g>
                          <defs>
                            <filter id="filter0_f_1063_2701" x="0.134277" y="3.6189" width="126.631" height="150.586" filterUnits="userSpaceOnUse" color-interpolation-filters="sRGB">
                              <feFlood flood-opacity="0" result="BackgroundImageFix"></feFlood>
                              <feBlend mode="normal" in="SourceGraphic" in2="BackgroundImageFix" result="shape"></feBlend>
                              <feGaussianBlur stdDeviation="12" result="effect1_foregroundBlur_1063_2701"></feGaussianBlur>
                            </filter>
                            <filter id="filter1_f_1063_2701" x="21.7825" y="10.5032" width="83.3674" height="74.8062" filterUnits="userSpaceOnUse" color-interpolation-filters="sRGB">
                              <feFlood flood-opacity="0" result="BackgroundImageFix"></feFlood>
                              <feBlend mode="normal" in="SourceGraphic" in2="BackgroundImageFix" result="shape"></feBlend>
                              <feGaussianBlur stdDeviation="3" result="effect1_foregroundBlur_1063_2701"></feGaussianBlur>
                            </filter>
                            <filter id="filter2_f_1063_2701" x="-1.61523" y="5.6665" width="62.3445" height="58.219" filterUnits="userSpaceOnUse" color-interpolation-filters="sRGB">
                              <feFlood flood-opacity="0" result="BackgroundImageFix"></feFlood>
                              <feBlend mode="normal" in="SourceGraphic" in2="BackgroundImageFix" result="shape"></feBlend>
                              <feGaussianBlur stdDeviation="7" result="effect1_foregroundBlur_1063_2701"></feGaussianBlur>
                            </filter>
                            <filter id="filter3_f_1063_2701" x="5.61499" y="14.4141" width="47.8835" height="45.4951" filterUnits="userSpaceOnUse" color-interpolation-filters="sRGB">
                              <feFlood flood-opacity="0" result="BackgroundImageFix"></feFlood>
                              <feBlend mode="normal" in="SourceGraphic" in2="BackgroundImageFix" result="shape"></feBlend>
                              <feGaussianBlur stdDeviation="7" result="effect1_foregroundBlur_1063_2701"></feGaussianBlur>
                            </filter>
                            <linearGradient id="paint0_linear_1063_2701" x1="78.0526" y1="68.6532" x2="-27.4188" y2="245.886" gradientUnits="userSpaceOnUse">
                              <stop offset="0.177306" stop-color="#927777"></stop>
                              <stop offset="1" stop-color="#000AFF"></stop>
                            </linearGradient>
                            <linearGradient id="paint1_linear_1063_2701" x1="81.0738" y1="49.8856" x2="-45.3864" y2="263.333" gradientUnits="userSpaceOnUse">
                              <stop offset="0.177306" stop-color="#373139"></stop>
                              <stop offset="1" stop-color="#F79238"></stop>
                            </linearGradient>
                            <linearGradient id="paint2_linear_1063_2701" x1="48.085" y1="54.2593" x2="60.6696" y2="15.4378" gradientUnits="userSpaceOnUse">
                              <stop stop-color="#E67662"></stop>
                              <stop offset="0.353335" stop-color="#E67662"></stop>
                              <stop offset="1" stop-color="#E67662" stop-opacity="0"></stop>
                            </linearGradient>
                            <linearGradient id="paint3_linear_1063_2701" x1="48.085" y1="48.6927" x2="60.6697" y2="9.87118" gradientUnits="userSpaceOnUse">
                              <stop stop-color="#E67662"></stop>
                              <stop offset="1" stop-color="#E67662" stop-opacity="0"></stop>
                            </linearGradient>
                            <linearGradient id="paint4_linear_1063_2701" x1="48.0848" y1="48.6927" x2="60.6694" y2="9.87118" gradientUnits="userSpaceOnUse">
                              <stop stop-color="#E67662"></stop>
                              <stop offset="1" stop-color="#E67662" stop-opacity="0"></stop>
                            </linearGradient>
                          </defs>
                        </svg>