<svg width="127" height="156" viewBox="0 0 127 156" fill="none" xmlns="http://www.w3.org/2000/svg">
                          <g filter="url(#filter0_f_1063_2714)">
                            <rect x="24.1094" y="28.6191" width="78.6309" height="102.586" rx="10" fill="url(#paint0_linear_1063_2714)"></rect>
                          </g>
                          <rect x="15.9753" y="1.58105" width="94.8993" height="123.262" rx="10" fill="url(#paint1_linear_1063_2714)"></rect>
                          <path d="M97.625 43.3311C97.625 59.6764 82.4992 73.243 63.4248 73.243C44.3505 73.243 29.2246 59.6764 29.2246 43.3311C29.2246 26.9858 44.3505 13.4192 63.4248 13.4192C82.4992 13.4192 97.625 26.9858 97.625 43.3311Z" stroke="#FE7A61" stroke-width="3"></path>
                          <g filter="url(#filter1_f_1063_2714)">
                            <mask id="path-4-inside-1_1063_2714" fill="white">
                              <path d="M29.1084 48.8977C28.3442 48.8977 27.7212 49.5176 27.7594 50.2807C28.0462 56.0084 30.1102 61.5676 33.7414 66.3492C37.6642 71.5148 43.2398 75.541 49.7631 77.9185C56.2865 80.296 63.4646 80.918 70.3898 79.706C77.315 78.494 83.6761 75.5023 88.6689 71.1092C93.6617 66.7162 97.0618 61.1191 98.4393 55.0258C99.8168 48.9325 99.1098 42.6166 96.4077 36.8768C93.7057 31.1371 89.1299 26.2312 83.259 22.7796C77.726 19.5267 71.2769 17.7031 64.6423 17.504C63.9703 17.4839 63.425 18.0308 63.425 18.7031C63.425 19.3755 63.9702 19.9184 64.6422 19.9403C70.7293 20.1383 76.6437 21.8186 81.7217 24.804C87.1375 27.9881 91.3586 32.5137 93.8512 37.8086C96.3439 43.1035 96.996 48.9298 95.7253 54.5508C94.4546 60.1718 91.318 65.3351 86.7122 69.3876C82.1065 73.4401 76.2383 76.1999 69.8499 77.318C63.4616 78.4361 56.8398 77.8623 50.8221 75.6691C44.8043 73.4758 39.6609 69.7618 36.0422 64.9965C32.7151 60.6153 30.8143 55.5265 30.5295 50.2806C30.488 49.5176 29.8725 48.8977 29.1084 48.8977Z"></path>
                            </mask>
                            <path d="M29.1084 48.8977C28.3442 48.8977 27.7212 49.5176 27.7594 50.2807C28.0462 56.0084 30.1102 61.5676 33.7414 66.3492C37.6642 71.5148 43.2398 75.541 49.7631 77.9185C56.2865 80.296 63.4646 80.918 70.3898 79.706C77.315 78.494 83.6761 75.5023 88.6689 71.1092C93.6617 66.7162 97.0618 61.1191 98.4393 55.0258C99.8168 48.9325 99.1098 42.6166 96.4077 36.8768C93.7057 31.1371 89.1299 26.2312 83.259 22.7796C77.726 19.5267 71.2769 17.7031 64.6423 17.504C63.9703 17.4839 63.425 18.0308 63.425 18.7031C63.425 19.3755 63.9702 19.9184 64.6422 19.9403C70.7293 20.1383 76.6437 21.8186 81.7217 24.804C87.1375 27.9881 91.3586 32.5137 93.8512 37.8086C96.3439 43.1035 96.996 48.9298 95.7253 54.5508C94.4546 60.1718 91.318 65.3351 86.7122 69.3876C82.1065 73.4401 76.2383 76.1999 69.8499 77.318C63.4616 78.4361 56.8398 77.8623 50.8221 75.6691C44.8043 73.4758 39.6609 69.7618 36.0422 64.9965C32.7151 60.6153 30.8143 55.5265 30.5295 50.2806C30.488 49.5176 29.8725 48.8977 29.1084 48.8977Z" stroke="url(#paint2_linear_1063_2714)" stroke-width="6" mask="url(#path-4-inside-1_1063_2714)"></path>
                          </g>
                          <path d="M59.6945 44.1858H61.8305V35.4258H58.5065V37.3338H59.6945V44.1858ZM64.6742 39.4818C63.8342 39.8778 63.3422 40.6218 63.3422 41.6178C63.3422 43.3698 64.7942 44.3538 66.5822 44.3538C68.3702 44.3538 69.8222 43.3698 69.8222 41.6178C69.8222 40.6218 69.3302 39.8898 68.4782 39.4818C69.1382 39.1338 69.6062 38.4978 69.6062 37.5978C69.6062 36.3498 68.6462 35.2458 66.5822 35.2458C64.5182 35.2458 63.5462 36.3498 63.5462 37.5978C63.5462 38.5218 64.0022 39.1218 64.6742 39.4818ZM66.5822 38.9298C65.9942 38.9298 65.5502 38.5578 65.5502 37.9218C65.5502 37.2498 65.9702 36.8778 66.5822 36.8778C67.1942 36.8778 67.6142 37.2498 67.6142 37.9098C67.6142 38.5458 67.1702 38.9298 66.5822 38.9298ZM66.5822 40.3698C67.3142 40.3698 67.8182 40.8018 67.8182 41.5218C67.8182 42.1698 67.3622 42.6738 66.5822 42.6738C65.7902 42.6738 65.3222 42.1818 65.3222 41.5218C65.3222 40.7778 65.8502 40.3698 66.5822 40.3698ZM59.9254 53.6778C59.9254 50.8578 55.7614 51.5178 55.7614 50.0538C55.7614 49.5258 56.1334 49.2738 56.6254 49.2858C57.1774 49.2978 57.5614 49.6218 57.5974 50.1618H59.8174C59.7334 48.5538 58.4974 47.6418 56.6614 47.6418C54.8974 47.6418 53.5894 48.5298 53.5894 50.1258C53.5654 53.1138 57.7774 52.2738 57.7774 53.8338C57.7774 54.3258 57.3934 54.6258 56.7934 54.6258C56.2174 54.6258 55.8094 54.3138 55.7494 53.6658H53.5654C53.6254 55.3698 55.0414 56.2698 56.8534 56.2698C58.8214 56.2698 59.9254 55.0938 59.9254 53.6778ZM69.4802 51.9498C69.4802 49.4178 67.5722 47.6418 65.1722 47.6418C62.7842 47.6418 60.8402 49.4178 60.8402 51.9498C60.8402 54.4818 62.7842 56.2698 65.1722 56.2698C67.5602 56.2698 69.4802 54.4818 69.4802 51.9498ZM62.9402 51.9498C62.9402 50.4498 63.8042 49.5018 65.1722 49.5018C66.5162 49.5018 67.3922 50.4498 67.3922 51.9498C67.3922 53.4258 66.5162 54.3978 65.1722 54.3978C63.8042 54.3978 62.9402 53.4258 62.9402 51.9498ZM70.6218 47.7618V56.1858H75.3618V54.6018H72.6738V47.7618H70.6218Z" fill="#F0C777"></path>
                          <path d="M46.3358 95.3761H42.9918L42.3758 97.0811H41.3198L44.0918 89.4581H45.2468L48.0078 97.0811H46.9518L46.3358 95.3761ZM46.0498 94.5621L44.6638 90.6901L43.2778 94.5621H46.0498ZM56.7949 90.9431C57.2642 90.9431 57.6822 91.0421 58.0489 91.2401C58.4155 91.4307 58.7052 91.7204 58.9179 92.1091C59.1305 92.4977 59.2369 92.9707 59.2369 93.5281V97.0811H58.2469V93.6711C58.2469 93.0697 58.0965 92.6114 57.7959 92.2961C57.5025 91.9734 57.1029 91.8121 56.5969 91.8121C56.0762 91.8121 55.6619 91.9807 55.3539 92.3181C55.0459 92.6481 54.8919 93.1284 54.8919 93.7591V97.0811H53.9019V93.6711C53.9019 93.0697 53.7515 92.6114 53.4509 92.2961C53.1575 91.9734 52.7579 91.8121 52.2519 91.8121C51.7312 91.8121 51.3169 91.9807 51.0089 92.3181C50.7009 92.6481 50.5469 93.1284 50.5469 93.7591V97.0811H49.5459V91.0531H50.5469V91.9221C50.7449 91.6067 51.0089 91.3647 51.3389 91.1961C51.6762 91.0274 52.0465 90.9431 52.4499 90.9431C52.9559 90.9431 53.4032 91.0567 53.7919 91.2841C54.1805 91.5114 54.4702 91.8451 54.6609 92.2851C54.8295 91.8597 55.1082 91.5297 55.4969 91.2951C55.8855 91.0604 56.3182 90.9431 56.7949 90.9431ZM63.8379 97.1801C63.2732 97.1801 62.7599 97.0517 62.2979 96.7951C61.8432 96.5384 61.4839 96.1754 61.2199 95.7061C60.9632 95.2294 60.8349 94.6794 60.8349 94.0561C60.8349 93.4401 60.9669 92.8974 61.2309 92.4281C61.5022 91.9514 61.8689 91.5884 62.3309 91.3391C62.7929 91.0824 63.3099 90.9541 63.8819 90.9541C64.4539 90.9541 64.9709 91.0824 65.4329 91.3391C65.8949 91.5884 66.2579 91.9477 66.5219 92.4171C66.7932 92.8864 66.9289 93.4327 66.9289 94.0561C66.9289 94.6794 66.7895 95.2294 66.5109 95.7061C66.2395 96.1754 65.8692 96.5384 65.3999 96.7951C64.9305 97.0517 64.4099 97.1801 63.8379 97.1801ZM63.8379 96.3001C64.1972 96.3001 64.5345 96.2157 64.8499 96.0471C65.1652 95.8784 65.4182 95.6254 65.6089 95.2881C65.8069 94.9507 65.9059 94.5401 65.9059 94.0561C65.9059 93.5721 65.8105 93.1614 65.6199 92.8241C65.4292 92.4867 65.1799 92.2374 64.8719 92.0761C64.5639 91.9074 64.2302 91.8231 63.8709 91.8231C63.5042 91.8231 63.1669 91.9074 62.8589 92.0761C62.5582 92.2374 62.3162 92.4867 62.1329 92.8241C61.9495 93.1614 61.8579 93.5721 61.8579 94.0561C61.8579 94.5474 61.9459 94.9617 62.1219 95.2991C62.3052 95.6364 62.5472 95.8894 62.8479 96.0581C63.1485 96.2194 63.4785 96.3001 63.8379 96.3001ZM73.921 91.0531V97.0811H72.92V96.1901C72.7293 96.4981 72.4617 96.7401 72.117 96.9161C71.7797 97.0847 71.4057 97.1691 70.995 97.1691C70.5257 97.1691 70.104 97.0737 69.73 96.8831C69.356 96.6851 69.059 96.3917 68.839 96.0031C68.6263 95.6144 68.52 95.1414 68.52 94.5841V91.0531H69.51V94.4521C69.51 95.0461 69.6603 95.5044 69.961 95.8271C70.2617 96.1424 70.6723 96.3001 71.193 96.3001C71.7283 96.3001 72.15 96.1351 72.458 95.8051C72.766 95.4751 72.92 94.9947 72.92 94.3641V91.0531H73.921ZM78.8781 90.9431C79.6115 90.9431 80.2055 91.1667 80.6601 91.6141C81.1148 92.0541 81.3421 92.6921 81.3421 93.5281V97.0811H80.3521V93.6711C80.3521 93.0697 80.2018 92.6114 79.9011 92.2961C79.6005 91.9734 79.1898 91.8121 78.6691 91.8121C78.1411 91.8121 77.7195 91.9771 77.4041 92.3071C77.0961 92.6371 76.9421 93.1174 76.9421 93.7481V97.0811H75.9411V91.0531H76.9421V91.9111C77.1401 91.6031 77.4078 91.3647 77.7451 91.1961C78.0898 91.0274 78.4675 90.9431 78.8781 90.9431ZM84.5283 91.8781V95.4311C84.5283 95.7244 84.5906 95.9334 84.7153 96.0581C84.8399 96.1754 85.0563 96.2341 85.3643 96.2341H86.1013V97.0811H85.1993C84.6419 97.0811 84.2239 96.9527 83.9453 96.6961C83.6666 96.4394 83.5273 96.0177 83.5273 95.4311V91.8781H82.7463V91.0531H83.5273V89.5351H84.5283V91.0531H86.1013V91.8781H84.5283ZM49.5184 114.081L47.6924 110.946H46.4824V114.081H45.4814V106.414H47.9564C48.5358 106.414 49.0234 106.513 49.4194 106.711C49.8228 106.909 50.1234 107.177 50.3214 107.514C50.5194 107.851 50.6184 108.236 50.6184 108.669C50.6184 109.197 50.4644 109.663 50.1564 110.066C49.8558 110.469 49.4011 110.737 48.7924 110.869L50.7174 114.081H49.5184ZM46.4824 110.143H47.9564C48.4991 110.143 48.9061 110.011 49.1774 109.747C49.4488 109.476 49.5844 109.116 49.5844 108.669C49.5844 108.214 49.4488 107.862 49.1774 107.613C48.9134 107.364 48.5064 107.239 47.9564 107.239H46.4824V110.143ZM52.1298 111.045C52.1298 110.429 52.2545 109.89 52.5038 109.428C52.7532 108.959 53.0942 108.596 53.5268 108.339C53.9668 108.082 54.4545 107.954 54.9898 107.954C55.5178 107.954 55.9762 108.068 56.3648 108.295C56.7535 108.522 57.0432 108.808 57.2338 109.153V108.053H58.2458V114.081H57.2338V112.959C57.0358 113.311 56.7388 113.604 56.3428 113.839C55.9542 114.066 55.4995 114.18 54.9788 114.18C54.4435 114.18 53.9595 114.048 53.5268 113.784C53.0942 113.52 52.7532 113.15 52.5038 112.673C52.2545 112.196 52.1298 111.654 52.1298 111.045ZM57.2338 111.056C57.2338 110.601 57.1422 110.205 56.9588 109.868C56.7755 109.531 56.5262 109.274 56.2108 109.098C55.9028 108.915 55.5618 108.823 55.1878 108.823C54.8138 108.823 54.4728 108.911 54.1648 109.087C53.8568 109.263 53.6112 109.52 53.4278 109.857C53.2445 110.194 53.1528 110.59 53.1528 111.045C53.1528 111.507 53.2445 111.91 53.4278 112.255C53.6112 112.592 53.8568 112.853 54.1648 113.036C54.4728 113.212 54.8138 113.3 55.1878 113.3C55.5618 113.3 55.9028 113.212 56.2108 113.036C56.5262 112.853 56.7755 112.592 56.9588 112.255C57.1422 111.91 57.2338 111.511 57.2338 111.056ZM60.7844 107.074C60.5938 107.074 60.4324 107.008 60.3004 106.876C60.1684 106.744 60.1024 106.583 60.1024 106.392C60.1024 106.201 60.1684 106.04 60.3004 105.908C60.4324 105.776 60.5938 105.71 60.7844 105.71C60.9678 105.71 61.1218 105.776 61.2464 105.908C61.3784 106.04 61.4444 106.201 61.4444 106.392C61.4444 106.583 61.3784 106.744 61.2464 106.876C61.1218 107.008 60.9678 107.074 60.7844 107.074ZM61.2684 108.053V114.081H60.2674V108.053H61.2684ZM65.4385 114.18C64.9765 114.18 64.5621 114.103 64.1955 113.949C63.8288 113.788 63.5391 113.568 63.3265 113.289C63.1138 113.003 62.9965 112.677 62.9745 112.31H64.0085C64.0378 112.611 64.1771 112.856 64.4265 113.047C64.6831 113.238 65.0168 113.333 65.4275 113.333C65.8088 113.333 66.1095 113.249 66.3295 113.08C66.5495 112.911 66.6595 112.699 66.6595 112.442C66.6595 112.178 66.5421 111.984 66.3075 111.859C66.0728 111.727 65.7098 111.599 65.2185 111.474C64.7711 111.357 64.4045 111.239 64.1185 111.122C63.8398 110.997 63.5978 110.818 63.3925 110.583C63.1945 110.341 63.0955 110.026 63.0955 109.637C63.0955 109.329 63.1871 109.047 63.3705 108.79C63.5538 108.533 63.8141 108.332 64.1515 108.185C64.4888 108.031 64.8738 107.954 65.3065 107.954C65.9738 107.954 66.5128 108.123 66.9235 108.46C67.3341 108.797 67.5541 109.259 67.5835 109.846H66.5825C66.5605 109.531 66.4321 109.278 66.1975 109.087C65.9701 108.896 65.6621 108.801 65.2735 108.801C64.9141 108.801 64.6281 108.878 64.4155 109.032C64.2028 109.186 64.0965 109.388 64.0965 109.637C64.0965 109.835 64.1588 110 64.2835 110.132C64.4155 110.257 64.5768 110.359 64.7675 110.44C64.9655 110.513 65.2368 110.598 65.5815 110.693C66.0141 110.81 66.3661 110.928 66.6375 111.045C66.9088 111.155 67.1398 111.324 67.3305 111.551C67.5285 111.778 67.6311 112.075 67.6385 112.442C67.6385 112.772 67.5468 113.069 67.3635 113.333C67.1801 113.597 66.9198 113.806 66.5825 113.96C66.2525 114.107 65.8711 114.18 65.4385 114.18ZM74.8815 110.836C74.8815 111.027 74.8705 111.228 74.8485 111.441H70.0305C70.0672 112.035 70.2689 112.501 70.6355 112.838C71.0095 113.168 71.4605 113.333 71.9885 113.333C72.4212 113.333 72.7805 113.234 73.0665 113.036C73.3599 112.831 73.5652 112.559 73.6825 112.222H74.7605C74.5992 112.801 74.2765 113.274 73.7925 113.641C73.3085 114 72.7072 114.18 71.9885 114.18C71.4165 114.18 70.9032 114.052 70.4485 113.795C70.0012 113.538 69.6492 113.175 69.3925 112.706C69.1359 112.229 69.0075 111.679 69.0075 111.056C69.0075 110.433 69.1322 109.886 69.3815 109.417C69.6309 108.948 69.9792 108.588 70.4265 108.339C70.8812 108.082 71.4019 107.954 71.9885 107.954C72.5605 107.954 73.0665 108.079 73.5065 108.328C73.9465 108.577 74.2839 108.922 74.5185 109.362C74.7605 109.795 74.8815 110.286 74.8815 110.836ZM73.8475 110.627C73.8475 110.246 73.7632 109.919 73.5945 109.648C73.4259 109.369 73.1949 109.16 72.9015 109.021C72.6155 108.874 72.2965 108.801 71.9445 108.801C71.4385 108.801 71.0059 108.962 70.6465 109.285C70.2945 109.608 70.0929 110.055 70.0415 110.627H73.8475ZM76.1588 111.045C76.1588 110.429 76.2835 109.89 76.5328 109.428C76.7821 108.959 77.1231 108.596 77.5558 108.339C77.9958 108.082 78.4871 107.954 79.0298 107.954C79.4991 107.954 79.9355 108.064 80.3388 108.284C80.7421 108.497 81.0501 108.779 81.2628 109.131V105.941H82.2748V114.081H81.2628V112.948C81.0648 113.307 80.7715 113.604 80.3828 113.839C79.9941 114.066 79.5395 114.18 79.0188 114.18C78.4835 114.18 77.9958 114.048 77.5558 113.784C77.1231 113.52 76.7821 113.15 76.5328 112.673C76.2835 112.196 76.1588 111.654 76.1588 111.045ZM81.2628 111.056C81.2628 110.601 81.1711 110.205 80.9878 109.868C80.8045 109.531 80.5551 109.274 80.2398 109.098C79.9318 108.915 79.5908 108.823 79.2168 108.823C78.8428 108.823 78.5018 108.911 78.1938 109.087C77.8858 109.263 77.6401 109.52 77.4568 109.857C77.2735 110.194 77.1818 110.59 77.1818 111.045C77.1818 111.507 77.2735 111.91 77.4568 112.255C77.6401 112.592 77.8858 112.853 78.1938 113.036C78.5018 113.212 78.8428 113.3 79.2168 113.3C79.5908 113.3 79.9318 113.212 80.2398 113.036C80.5551 112.853 80.8045 112.592 80.9878 112.255C81.1711 111.91 81.2628 111.511 81.2628 111.056Z" fill="white"></path>
                          <mask id="path-7-inside-2_1063_2714" fill="white">
                            <path d="M46.2669 69.4803C45.8848 70.0625 46.0774 70.7922 46.711 71.0876C51.5059 73.323 56.8223 74.5696 62.2571 74.7261C68.1249 74.8951 73.9495 73.7883 79.215 71.5035C84.4805 69.2188 89.0243 65.8267 92.444 61.6278C95.8637 57.4288 98.0537 52.5527 98.82 47.4311C99.5863 42.3096 98.9053 37.1008 96.8373 32.2662C94.7692 27.4316 91.378 23.1203 86.964 19.7143C82.55 16.3083 77.2495 13.9127 71.5319 12.7397C66.292 11.6647 60.8501 11.6469 55.6124 12.6806C54.8366 12.8337 54.3599 13.5627 54.5662 14.2402C54.7548 14.8593 55.4489 15.2094 56.1576 15.0683C61.0079 14.1027 66.0497 14.1151 70.9035 15.1109C76.1779 16.193 81.0676 18.4029 85.1395 21.5449C89.2114 24.6869 92.3397 28.664 94.2475 33.1238C96.1552 37.5837 96.7835 42.3888 96.0765 47.1133C95.3696 51.8379 93.3494 56.3361 90.1948 60.2096C87.0401 64.0831 82.8485 67.2122 77.9911 69.3199C73.1338 71.4275 67.7607 72.4486 62.3477 72.2927C57.3677 72.1492 52.4955 71.0136 48.0955 68.9775C47.4609 68.6838 46.649 68.898 46.2669 69.4803Z"></path>
                          </mask>
                          <path d="M46.2669 69.4803C45.8848 70.0625 46.0774 70.7922 46.711 71.0876C51.5059 73.323 56.8223 74.5696 62.2571 74.7261C68.1249 74.8951 73.9495 73.7883 79.215 71.5035C84.4805 69.2188 89.0243 65.8267 92.444 61.6278C95.8637 57.4288 98.0537 52.5527 98.82 47.4311C99.5863 42.3096 98.9053 37.1008 96.8373 32.2662C94.7692 27.4316 91.378 23.1203 86.964 19.7143C82.55 16.3083 77.2495 13.9127 71.5319 12.7397C66.292 11.6647 60.8501 11.6469 55.6124 12.6806C54.8366 12.8337 54.3599 13.5627 54.5662 14.2402C54.7548 14.8593 55.4489 15.2094 56.1576 15.0683C61.0079 14.1027 66.0497 14.1151 70.9035 15.1109C76.1779 16.193 81.0676 18.4029 85.1395 21.5449C89.2114 24.6869 92.3397 28.664 94.2475 33.1238C96.1552 37.5837 96.7835 42.3888 96.0765 47.1133C95.3696 51.8379 93.3494 56.3361 90.1948 60.2096C87.0401 64.0831 82.8485 67.2122 77.9911 69.3199C73.1338 71.4275 67.7607 72.4486 62.3477 72.2927C57.3677 72.1492 52.4955 71.0136 48.0955 68.9775C47.4609 68.6838 46.649 68.898 46.2669 69.4803Z" stroke="url(#paint3_linear_1063_2714)" stroke-width="6" mask="url(#path-7-inside-2_1063_2714)"></path>
                          <defs>
                            <filter id="filter0_f_1063_2714" x="0.109375" y="4.61914" width="126.631" height="150.586" filterUnits="userSpaceOnUse" color-interpolation-filters="sRGB">
                              <feFlood flood-opacity="0" result="BackgroundImageFix"></feFlood>
                              <feBlend mode="normal" in="SourceGraphic" in2="BackgroundImageFix" result="shape"></feBlend>
                              <feGaussianBlur stdDeviation="12" result="effect1_foregroundBlur_1063_2714"></feGaussianBlur>
                            </filter>
                            <filter id="filter1_f_1063_2714" x="21.7578" y="11.5034" width="83.3674" height="74.8062" filterUnits="userSpaceOnUse" color-interpolation-filters="sRGB">
                              <feFlood flood-opacity="0" result="BackgroundImageFix"></feFlood>
                              <feBlend mode="normal" in="SourceGraphic" in2="BackgroundImageFix" result="shape"></feBlend>
                              <feGaussianBlur stdDeviation="3" result="effect1_foregroundBlur_1063_2714"></feGaussianBlur>
                            </filter>
                            <linearGradient id="paint0_linear_1063_2714" x1="78.0277" y1="69.6534" x2="-27.4437" y2="246.886" gradientUnits="userSpaceOnUse">
                              <stop offset="0.177306" stop-color="#E67662"></stop>
                              <stop offset="1" stop-color="#F0C777"></stop>
                            </linearGradient>
                            <linearGradient id="paint1_linear_1063_2714" x1="81.0492" y1="50.8858" x2="-45.4111" y2="264.334" gradientUnits="userSpaceOnUse">
                              <stop offset="0.177306" stop-color="#50261F"></stop>
                              <stop offset="1" stop-color="#FF4321"></stop>
                            </linearGradient>
                            <linearGradient id="paint2_linear_1063_2714" x1="63.8769" y1="64.4048" x2="55.5591" y2="41.3879" gradientUnits="userSpaceOnUse">
                              <stop stop-color="#B75240"></stop>
                              <stop offset="0.457794" stop-color="#F19888" stop-opacity="0"></stop>
                              <stop offset="1" stop-color="#E67662" stop-opacity="0"></stop>
                            </linearGradient>
                            <linearGradient id="paint3_linear_1063_2714" x1="62.0046" y1="58.2198" x2="37.8172" y2="25.1081" gradientUnits="userSpaceOnUse">
                              <stop stop-color="#F0C777"></stop>
                              <stop offset="1" stop-color="#FF7961"></stop>
                            </linearGradient>
                          </defs>
                        </svg>