<svg width="184" height="264" viewBox="0 0 184 264" fill="none" xmlns="http://www.w3.org/2000/svg">
                      <g opacity="0.35" filter="url(#filter0_f_1063_5351)">
                        <path d="M30.0438 38.2812C30.0438 33.863 33.6255 30.2812 38.0438 30.2812H145.29C149.708 30.2812 153.29 33.863 153.29 38.2812V226C153.29 230.418 149.708 234 145.29 234H38.0438C33.6255 234 30.0438 230.418 30.0438 226V38.2812Z" fill="black"></path>
                      </g>
                      <path d="M14 30C14 25.5817 17.5817 22 22 22H161.334C165.752 22 169.334 25.5817 169.334 30V217.719C169.334 222.137 165.752 225.719 161.334 225.719H22C17.5817 225.719 14 222.137 14 217.719V30Z" fill="#1C1C1E"></path>
                      <path d="M18.4528 22L168.722 83.1676L166.484 111.263L16.4146 48.292L18.4528 22Z" fill="url(#paint0_linear_1063_5351)" fill-opacity="0.3"></path>
                      <path d="M18.4579 28.384L168.728 89.5516L166.489 111.299L16.4197 48.3284L18.4579 28.384Z" fill="url(#paint1_linear_1063_5351)" fill-opacity="0.2"></path>
                      <path d="M57.6678 90.365L72.9096 95.3043L72.9655 72.1295L57.6678 65.6343V90.365Z" fill="url(#paint2_linear_1063_5351)" fill-opacity="0.8"></path>
                      <path d="M72.9657 96.614L49.1464 109.424V61.9976L72.9657 72.132V96.614Z" fill="url(#paint3_linear_1063_5351)" fill-opacity="0.8"></path>
                      <g style="mix-blend-mode:lighten">
                        <ellipse cx="79.1898" cy="113.853" rx="65.1898" ry="28.4133" fill="url(#paint4_radial_1063_5351)" fill-opacity="0.6"></ellipse>
                      </g>
                      <path d="M57.669 90.3667L49.1464 109.424V61.9976L57.669 65.6329V90.3667Z" fill="url(#paint5_linear_1063_5351)"></path>
                      <path d="M69.5955 51.0017L72.7655 35.7053L103.51 35.7684L82.3772 52.0397L69.5955 51.0017Z" fill="url(#paint6_linear_1063_5351)" fill-opacity="0.8"></path>
                      <g opacity="0.7">
                        <path d="M82.3766 52.0392L69.5947 51.0017L57.6678 65.632V90.3652L71.1654 90.1283L82.2673 75.9728L82.3766 52.0392Z" fill="url(#paint7_linear_1063_5351)"></path>
                        <path d="M82.3766 52.0392L69.5947 51.0017L57.6678 65.632V90.3652L71.1654 90.1283L82.2673 75.9728L82.3766 52.0392Z" fill="url(#paint8_radial_1063_5351)"></path>
                        <path d="M82.3766 52.0392L69.5947 51.0017L57.6678 65.632V90.3652L71.1654 90.1283L82.2673 75.9728L82.3766 52.0392Z" fill="url(#paint9_linear_1063_5351)"></path>
                      </g>
                      <path d="M69.5946 51.0017L84.8354 55.9413L72.9668 72.1315L57.67 65.6329L69.5946 51.0017Z" fill="url(#paint10_linear_1063_5351)" fill-opacity="0.8"></path>
                      <path d="M82.2375 75.9836L97.5972 82.3333L85.6714 95.9222L71.1659 90.1271L82.2375 75.9836Z" fill="url(#paint11_linear_1063_5351)" fill-opacity="0.8"></path>
                      <path d="M69.5946 51.002L84.8354 55.9416L97.6178 56.9797L82.376 52.0395L69.5946 51.002Z" fill="url(#paint12_linear_1063_5351)" fill-opacity="0.8"></path>
                      <path d="M57.6643 90.3629L72.9681 96.6178L85.6884 95.9301L71.1671 90.1282L57.6643 90.3629Z" fill="url(#paint13_linear_1063_5351)"></path>
                      <path d="M84.8754 56.0104L72.7659 35.7053L49.1464 61.9973L72.9682 72.1295L84.8754 56.0104Z" fill="url(#paint14_linear_1063_5351)" fill-opacity="0.9"></path>
                      <path d="M97.5892 82.3386L103.449 84.8091V35.6694L97.6042 56.9843L97.5892 82.3386Z" fill="url(#paint15_linear_1063_5351)" fill-opacity="0.9"></path>
                      <path d="M72.9657 96.6157L49.1464 109.424L79.9996 113.463L85.6647 95.9214L72.9657 96.6157Z" fill="url(#paint16_linear_1063_5351)" fill-opacity="0.9"></path>
                      <path d="M97.5941 82.3335L103.447 84.8085L79.9994 113.463L85.6645 95.9213L97.5941 82.3335Z" fill="url(#paint17_linear_1063_5351)"></path>
                      <path d="M84.8752 56.0104L72.7657 35.7053H103.459L97.6042 56.9841L84.8752 56.0104Z" fill="url(#paint18_linear_1063_5351)"></path>
                      <path d="M84.8752 56.0104L72.7657 35.7053H103.459L97.6042 56.9841L84.8752 56.0104Z" fill="url(#paint19_linear_1063_5351)" fill-opacity="0.6"></path>
                      <path d="M49.186 109.46L57.6787 90.345L72.9657 96.6159L49.186 109.46Z" fill="url(#paint20_linear_1063_5351)"></path>
                      <path d="M18.6925 74.5255L168.962 135.693L166.484 111.295L16.4144 48.3237L18.6925 74.5255Z" fill="url(#paint21_linear_1063_5351)" fill-opacity="0.4"></path>
                      <path d="M18.6925 68.773L168.962 129.941L166.484 111.295L16.4144 48.3237L18.6925 68.773Z" fill="url(#paint22_linear_1063_5351)" fill-opacity="0.3"></path>
                      <g opacity="0.7">
                        <path d="M97.6182 56.9792L84.8655 55.9419L72.9658 72.128V96.6161L85.6908 95.9217L97.5945 82.3256L97.6182 56.9792Z" fill="url(#paint23_linear_1063_5351)"></path>
                        <path d="M97.6182 56.9792L84.8655 55.9419L72.9658 72.128V96.6161L85.6908 95.9217L97.5945 82.3256L97.6182 56.9792Z" fill="url(#paint24_radial_1063_5351)"></path>
                        <path d="M97.6182 56.9792L84.8655 55.9419L72.9658 72.128V96.6161L85.6908 95.9217L97.5945 82.3256L97.6182 56.9792Z" fill="url(#paint25_linear_1063_5351)"></path>
                      </g>
                      <path d="M169.334 217.719C169.334 222.137 165.752 225.719 161.334 225.719L22 225.719C17.5817 225.719 14 222.137 14 217.719L14 125.234C14 120.816 17.5817 117.234 22 117.234L161.334 117.234C165.752 117.234 169.334 120.816 169.334 125.234L169.334 217.719Z" fill="#1C1C1E"></path>
                      <path d="M161.334 117.735L22 117.735C17.8579 117.735 14.5 121.092 14.5 125.235L14.5 217.719C14.5 221.861 17.8579 225.219 22 225.219L161.334 225.219C165.476 225.219 168.834 221.861 168.834 217.719L168.834 125.235C168.834 121.092 165.476 117.735 161.334 117.735Z" stroke="url(#paint26_linear_1063_5351)"></path>
                      <path d="M34.0549 150.202H33.2849L29.0279 143.734V150.202H28.2579V142.513H29.0279L33.2849 148.97V142.513H34.0549V150.202ZM40.2539 148.376H36.7559L36.0849 150.202H35.2709L38.0759 142.612H38.9449L41.7389 150.202H40.9249L40.2539 148.376ZM40.0229 147.738L38.5049 143.58L36.9869 147.738H40.0229ZM50.4877 142.612V150.202H49.7177V144.141L47.0117 150.202H46.4507L43.7447 144.163V150.202H42.9747V142.612H43.7887L46.7257 149.19L49.6627 142.612H50.4877ZM53.0045 143.14V146.011H55.9195V146.649H53.0045V149.564H56.2495V150.202H52.2345V142.502H56.2495V143.14H53.0045Z" fill="#E67662"></path>
                      <path opacity="0.6" d="M27.6659 133.241C27.6659 132.829 27.7559 132.461 27.9359 132.137C28.1159 131.809 28.3619 131.555 28.6739 131.375C28.9859 131.191 29.3339 131.099 29.7179 131.099C30.1859 131.099 30.5859 131.211 30.9179 131.435C31.2539 131.655 31.4979 131.967 31.6499 132.371H31.1579C31.0379 132.087 30.8539 131.865 30.6059 131.705C30.3619 131.545 30.0659 131.465 29.7179 131.465C29.4099 131.465 29.1319 131.537 28.8839 131.681C28.6399 131.825 28.4479 132.033 28.3079 132.305C28.1679 132.573 28.0979 132.885 28.0979 133.241C28.0979 133.597 28.1679 133.909 28.3079 134.177C28.4479 134.445 28.6399 134.651 28.8839 134.795C29.1319 134.939 29.4099 135.011 29.7179 135.011C30.0659 135.011 30.3619 134.933 30.6059 134.777C30.8539 134.617 31.0379 134.397 31.1579 134.117H31.6499C31.4979 134.517 31.2539 134.827 30.9179 135.047C30.5819 135.267 30.1819 135.377 29.7179 135.377C29.3339 135.377 28.9859 135.287 28.6739 135.107C28.3619 134.923 28.1159 134.669 27.9359 134.345C27.7559 134.021 27.6659 133.653 27.6659 133.241ZM37.0168 134.345H35.1088L34.7428 135.341H34.2988L35.8288 131.201H36.3028L37.8268 135.341H37.3828L37.0168 134.345ZM36.8908 133.997L36.0628 131.729L35.2348 133.997H36.8908ZM43.7629 135.341H43.3429L41.0209 131.813V135.341H40.6009V131.147H41.0209L43.3429 134.669V131.147H43.7629V135.341ZM48.0562 131.147C48.5202 131.147 48.9182 131.231 49.2502 131.399C49.5822 131.567 49.8362 131.809 50.0122 132.125C50.1882 132.441 50.2762 132.817 50.2762 133.253C50.2762 133.685 50.1882 134.059 50.0122 134.375C49.8362 134.687 49.5822 134.927 49.2502 135.095C48.9182 135.259 48.5202 135.341 48.0562 135.341H46.8142V131.147H48.0562ZM48.0562 134.993C48.6402 134.993 49.0842 134.841 49.3882 134.537C49.6962 134.229 49.8502 133.801 49.8502 133.253C49.8502 132.701 49.6962 132.271 49.3882 131.963C49.0842 131.651 48.6402 131.495 48.0562 131.495H47.2342V134.993H48.0562ZM53.5705 131.147V135.341H53.1505V131.147H53.5705ZM57.8636 131.147C58.3276 131.147 58.7256 131.231 59.0576 131.399C59.3896 131.567 59.6436 131.809 59.8196 132.125C59.9956 132.441 60.0836 132.817 60.0836 133.253C60.0836 133.685 59.9956 134.059 59.8196 134.375C59.6436 134.687 59.3896 134.927 59.0576 135.095C58.7256 135.259 58.3276 135.341 57.8636 135.341H56.6216V131.147H57.8636ZM57.8636 134.993C58.4476 134.993 58.8916 134.841 59.1956 134.537C59.5036 134.229 59.6576 133.801 59.6576 133.253C59.6576 132.701 59.5036 132.271 59.1956 131.963C58.8916 131.651 58.4476 131.495 57.8636 131.495H57.0416V134.993H57.8636ZM65.3879 134.345H63.4799L63.1139 135.341H62.6699L64.1999 131.201H64.6739L66.1979 135.341H65.7539L65.3879 134.345ZM65.2619 133.997L64.4339 131.729L63.6059 133.997H65.2619ZM71.426 131.147V131.495H70.262V135.341H69.842V131.495H68.672V131.147H71.426ZM74.6092 131.489V133.055H76.1992V133.403H74.6092V134.993H76.3792V135.341H74.1892V131.141H76.3792V131.489H74.6092Z" fill="white"></path>
                      <path opacity="0.6" d="M21.5832 168.16C22.1246 168.16 22.5889 168.258 22.9762 168.454C23.3636 168.65 23.6599 168.933 23.8652 169.301C24.0706 169.67 24.1732 170.109 24.1732 170.617C24.1732 171.121 24.0706 171.558 23.8652 171.926C23.6599 172.29 23.3636 172.57 22.9762 172.766C22.5889 172.958 22.1246 173.053 21.5832 173.053H20.1342V168.16H21.5832ZM21.5832 172.647C22.2646 172.647 22.7826 172.47 23.1372 172.115C23.4966 171.756 23.6762 171.257 23.6762 170.617C23.6762 169.973 23.4966 169.472 23.1372 169.112C22.7826 168.748 22.2646 168.566 21.5832 168.566H20.6242V172.647H21.5832ZM28.0166 168.559V170.386H29.8716V170.792H28.0166V172.647H30.0816V173.053H27.5266V168.153H30.0816V168.559H28.0166ZM34.9811 173.102C34.6591 173.102 34.3744 173.046 34.1271 172.934C33.8844 172.822 33.6931 172.666 33.5531 172.465C33.4131 172.265 33.3384 172.041 33.3291 171.793H33.8471C33.8704 172.031 33.9754 172.241 34.1621 172.423C34.3488 172.601 34.6218 172.689 34.9811 172.689C35.3124 172.689 35.5738 172.605 35.7651 172.437C35.9611 172.265 36.0591 172.048 36.0591 171.786C36.0591 171.576 36.0054 171.408 35.8981 171.282C35.7908 171.152 35.6578 171.056 35.4991 170.995C35.3404 170.93 35.1211 170.86 34.8411 170.785C34.5144 170.697 34.2554 170.61 34.0641 170.526C33.8728 170.442 33.7094 170.312 33.5741 170.134C33.4388 169.957 33.3711 169.717 33.3711 169.413C33.3711 169.161 33.4364 168.937 33.5671 168.741C33.6978 168.541 33.8821 168.384 34.1201 168.272C34.3581 168.16 34.6311 168.104 34.9391 168.104C35.3918 168.104 35.7558 168.216 36.0311 168.44C36.3111 168.66 36.4721 168.944 36.5141 169.294H35.9821C35.9494 169.094 35.8398 168.916 35.6531 168.762C35.4664 168.604 35.2144 168.524 34.8971 168.524C34.6031 168.524 34.3581 168.604 34.1621 168.762C33.9661 168.916 33.8681 169.129 33.8681 169.399C33.8681 169.605 33.9218 169.77 34.0291 169.896C34.1364 170.022 34.2694 170.118 34.4281 170.183C34.5914 170.249 34.8108 170.319 35.0861 170.393C35.4034 170.482 35.6601 170.571 35.8561 170.659C36.0521 170.743 36.2178 170.874 36.3531 171.051C36.4884 171.229 36.5561 171.467 36.5561 171.765C36.5561 171.994 36.4954 172.211 36.3741 172.416C36.2528 172.622 36.0731 172.787 35.8351 172.913C35.5971 173.039 35.3124 173.102 34.9811 173.102ZM39.729 170.603C39.729 170.123 39.834 169.693 40.044 169.315C40.254 168.933 40.541 168.636 40.905 168.426C41.269 168.212 41.675 168.104 42.123 168.104C42.669 168.104 43.1356 168.235 43.523 168.496C43.915 168.753 44.1996 169.117 44.377 169.588H43.803C43.663 169.257 43.4483 168.998 43.159 168.811C42.8743 168.625 42.529 168.531 42.123 168.531C41.7636 168.531 41.4393 168.615 41.15 168.783C40.8653 168.951 40.6413 169.194 40.478 169.511C40.3146 169.824 40.233 170.188 40.233 170.603C40.233 171.019 40.3146 171.383 40.478 171.695C40.6413 172.008 40.8653 172.248 41.15 172.416C41.4393 172.584 41.7636 172.668 42.123 172.668C42.529 172.668 42.8743 172.577 43.159 172.395C43.4483 172.209 43.663 171.952 43.803 171.625H44.377C44.1996 172.092 43.915 172.454 43.523 172.71C43.131 172.967 42.6643 173.095 42.123 173.095C41.675 173.095 41.269 172.99 40.905 172.78C40.541 172.566 40.254 172.269 40.044 171.891C39.834 171.513 39.729 171.084 39.729 170.603ZM50.4074 173.053L49.1964 171.009H48.2934V173.053H47.8034V168.16H49.2734C49.8194 168.16 50.2324 168.291 50.5124 168.552C50.797 168.814 50.9394 169.157 50.9394 169.581C50.9394 169.936 50.8367 170.239 50.6314 170.491C50.4307 170.739 50.132 170.9 49.7354 170.974L50.9954 173.053H50.4074ZM48.2934 170.61H49.2804C49.663 170.61 49.95 170.517 50.1414 170.33C50.3374 170.144 50.4354 169.894 50.4354 169.581C50.4354 169.259 50.342 169.012 50.1554 168.839C49.9687 168.662 49.6747 168.573 49.2734 168.573H48.2934V170.61ZM54.8518 168.16V173.053H54.3618V168.16H54.8518ZM61.5404 169.567C61.5404 169.987 61.4027 170.326 61.1274 170.582C60.852 170.839 60.439 170.967 59.8884 170.967H58.9014V173.053H58.4114V168.16H59.8884C60.4344 168.16 60.845 168.289 61.1204 168.545C61.4004 168.802 61.5404 169.143 61.5404 169.567ZM59.8884 170.547C60.6537 170.547 61.0364 170.221 61.0364 169.567C61.0364 169.241 60.9454 168.993 60.7634 168.825C60.5814 168.657 60.2897 168.573 59.8884 168.573H58.9014V170.547H59.8884ZM67.6755 168.16V168.566H66.3175V173.053H65.8275V168.566H64.4625V168.16H67.6755ZM71.3893 168.16V173.053H70.8993V168.16H71.3893ZM77.1469 173.102C76.6942 173.102 76.2835 172.997 75.9149 172.787C75.5462 172.573 75.2545 172.276 75.0399 171.898C74.8299 171.516 74.7249 171.084 74.7249 170.603C74.7249 170.123 74.8299 169.693 75.0399 169.315C75.2545 168.933 75.5462 168.636 75.9149 168.426C76.2835 168.212 76.6942 168.104 77.1469 168.104C77.6042 168.104 78.0172 168.212 78.3859 168.426C78.7545 168.636 79.0439 168.933 79.2539 169.315C79.4639 169.693 79.5689 170.123 79.5689 170.603C79.5689 171.084 79.4639 171.516 79.2539 171.898C79.0439 172.276 78.7545 172.573 78.3859 172.787C78.0172 172.997 77.6042 173.102 77.1469 173.102ZM77.1469 172.675C77.5109 172.675 77.8375 172.591 78.1269 172.423C78.4162 172.255 78.6449 172.015 78.8129 171.702C78.9809 171.385 79.0649 171.019 79.0649 170.603C79.0649 170.188 78.9809 169.824 78.8129 169.511C78.6449 169.199 78.4162 168.958 78.1269 168.79C77.8375 168.622 77.5109 168.538 77.1469 168.538C76.7829 168.538 76.4562 168.622 76.1669 168.79C75.8775 168.958 75.6489 169.199 75.4809 169.511C75.3129 169.824 75.2289 170.188 75.2289 170.603C75.2289 171.019 75.3129 171.385 75.4809 171.702C75.6489 172.015 75.8775 172.255 76.1669 172.423C76.4562 172.591 76.7829 172.675 77.1469 172.675ZM86.6045 173.053H86.1145L83.4055 168.937V173.053H82.9155V168.16H83.4055L86.1145 172.269V168.16H86.6045V173.053Z" fill="white"></path>
                      <g opacity="0.5" filter="url(#filter1_f_1063_5351)">
                        <ellipse cx="22.7512" cy="117.649" rx="2.91706" ry="0.414062" fill="#BE7D42"></ellipse>
                      </g>
                      <g filter="url(#filter2_f_1063_5351)">
                        <ellipse cx="22.7512" cy="117.649" rx="2.1878" ry="2.07031" fill="#BE7D42"></ellipse>
                      </g>
                      <g filter="url(#filter3_f_1063_5351)">
                        <ellipse cx="22.7513" cy="117.649" rx="1.45853" ry="1.38021" fill="#EFBB8A"></ellipse>
                      </g>
                      <path opacity="0.6" d="M110.637 139.603L108.782 144.496H108.222L106.367 139.603H106.899L108.502 143.964L110.119 139.603H110.637ZM116.022 144.545C115.569 144.545 115.158 144.44 114.79 144.23C114.421 144.015 114.129 143.719 113.915 143.341C113.705 142.958 113.6 142.527 113.6 142.046C113.6 141.565 113.705 141.136 113.915 140.758C114.129 140.375 114.421 140.079 114.79 139.869C115.158 139.654 115.569 139.547 116.022 139.547C116.479 139.547 116.892 139.654 117.261 139.869C117.629 140.079 117.919 140.375 118.129 140.758C118.339 141.136 118.444 141.565 118.444 142.046C118.444 142.527 118.339 142.958 118.129 143.341C117.919 143.719 117.629 144.015 117.261 144.23C116.892 144.44 116.479 144.545 116.022 144.545ZM116.022 144.118C116.386 144.118 116.712 144.034 117.002 143.866C117.291 143.698 117.52 143.458 117.688 143.145C117.856 142.828 117.94 142.461 117.94 142.046C117.94 141.631 117.856 141.267 117.688 140.954C117.52 140.641 117.291 140.401 117.002 140.233C116.712 140.065 116.386 139.981 116.022 139.981C115.658 139.981 115.331 140.065 115.042 140.233C114.752 140.401 114.524 140.641 114.356 140.954C114.188 141.267 114.104 141.631 114.104 142.046C114.104 142.461 114.188 142.828 114.356 143.145C114.524 143.458 114.752 143.698 115.042 143.866C115.331 144.034 115.658 144.118 116.022 144.118ZM124.653 139.603V140.009H123.295V144.496H122.805V140.009H121.44V139.603H124.653ZM128.367 140.002V141.829H130.222V142.235H128.367V144.09H130.432V144.496H127.877V139.596H130.432V140.002H128.367ZM135.331 144.545C135.009 144.545 134.725 144.489 134.477 144.377C134.235 144.265 134.043 144.109 133.903 143.908C133.763 143.707 133.689 143.483 133.679 143.236H134.197C134.221 143.474 134.326 143.684 134.512 143.866C134.699 144.043 134.972 144.132 135.331 144.132C135.663 144.132 135.924 144.048 136.115 143.88C136.311 143.707 136.409 143.49 136.409 143.229C136.409 143.019 136.356 142.851 136.248 142.725C136.141 142.594 136.008 142.499 135.849 142.438C135.691 142.373 135.471 142.303 135.191 142.228C134.865 142.139 134.606 142.053 134.414 141.969C134.223 141.885 134.06 141.754 133.924 141.577C133.789 141.4 133.721 141.159 133.721 140.856C133.721 140.604 133.787 140.38 133.917 140.184C134.048 139.983 134.232 139.827 134.47 139.715C134.708 139.603 134.981 139.547 135.289 139.547C135.742 139.547 136.106 139.659 136.381 139.883C136.661 140.102 136.822 140.387 136.864 140.737H136.332C136.3 140.536 136.19 140.359 136.003 140.205C135.817 140.046 135.565 139.967 135.247 139.967C134.953 139.967 134.708 140.046 134.512 140.205C134.316 140.359 134.218 140.571 134.218 140.842C134.218 141.047 134.272 141.213 134.379 141.339C134.487 141.465 134.62 141.561 134.778 141.626C134.942 141.691 135.161 141.761 135.436 141.836C135.754 141.925 136.01 142.013 136.206 142.102C136.402 142.186 136.568 142.317 136.703 142.494C136.839 142.671 136.906 142.909 136.906 143.208C136.906 143.437 136.846 143.654 136.724 143.859C136.603 144.064 136.423 144.23 136.185 144.356C135.947 144.482 135.663 144.545 135.331 144.545Z" fill="white"></path>
                      <g filter="url(#filter4_d_1063_5351)">
                        <path d="M111.122 155.44V152.528H115.868V162.762H112.606V155.44H111.122ZM117.022 157.498C117.022 155.883 117.363 154.614 118.044 153.69C118.735 152.766 119.794 152.304 121.222 152.304C122.641 152.304 123.695 152.771 124.386 153.704C125.077 154.628 125.422 155.893 125.422 157.498C125.422 159.113 125.077 160.387 124.386 161.32C123.695 162.244 122.641 162.706 121.222 162.706C119.794 162.706 118.735 162.244 118.044 161.32C117.363 160.387 117.022 159.113 117.022 157.498ZM122.356 157.498C122.356 156.751 122.281 156.191 122.132 155.818C121.983 155.435 121.679 155.244 121.222 155.244C120.755 155.244 120.447 155.435 120.298 155.818C120.149 156.191 120.074 156.751 120.074 157.498C120.074 158.254 120.149 158.823 120.298 159.206C120.447 159.579 120.755 159.766 121.222 159.766C121.679 159.766 121.983 159.579 122.132 159.206C122.281 158.823 122.356 158.254 122.356 157.498ZM128.083 162.874C127.542 162.874 127.108 162.729 126.781 162.44C126.455 162.151 126.291 161.787 126.291 161.348C126.291 160.9 126.455 160.531 126.781 160.242C127.108 159.943 127.542 159.794 128.083 159.794C128.615 159.794 129.045 159.943 129.371 160.242C129.698 160.531 129.861 160.9 129.861 161.348C129.861 161.787 129.698 162.151 129.371 162.44C129.045 162.729 128.615 162.874 128.083 162.874ZM130.762 157.498C130.762 155.883 131.103 154.614 131.784 153.69C132.475 152.766 133.534 152.304 134.962 152.304C136.381 152.304 137.435 152.771 138.126 153.704C138.817 154.628 139.162 155.893 139.162 157.498C139.162 159.113 138.817 160.387 138.126 161.32C137.435 162.244 136.381 162.706 134.962 162.706C133.534 162.706 132.475 162.244 131.784 161.32C131.103 160.387 130.762 159.113 130.762 157.498ZM136.096 157.498C136.096 156.751 136.021 156.191 135.872 155.818C135.723 155.435 135.419 155.244 134.962 155.244C134.495 155.244 134.187 155.435 134.038 155.818C133.889 156.191 133.814 156.751 133.814 157.498C133.814 158.254 133.889 158.823 134.038 159.206C134.187 159.579 134.495 159.766 134.962 159.766C135.419 159.766 135.723 159.579 135.872 159.206C136.021 158.823 136.096 158.254 136.096 157.498Z" fill="#E67662"></path>
                      </g>
                      <g style="mix-blend-mode:overlay">
                        <rect x="118.285" y="94.0471" width="2.1878" height="16.5625" rx="1.0939" fill="#F0C777"></rect>
                        <rect x="124.119" y="104.813" width="2.1878" height="5.79687" rx="1.0939" fill="#F0C777"></rect>
                        <rect x="129.953" y="101.5" width="2.1878" height="9.10937" rx="1.0939" fill="#F0C777"></rect>
                        <rect x="135.787" y="95.7034" width="2.1878" height="14.9062" rx="1.0939" fill="#F0C777"></rect>
                        <rect x="141.621" y="90.7344" width="2.1878" height="19.875" rx="1.0939" fill="#F0C777"></rect>
                        <rect x="147.288" y="98.2026" width="2.38851" height="12.7866" rx="1.19426" fill="#F0C777"></rect>
                        <rect x="153.29" y="94.875" width="2.1878" height="15.7344" rx="1.0939" fill="#F0C777"></rect>
                      </g>
                      <path d="M38.7507 193.365C38.2334 193.365 37.7614 193.245 37.3347 193.005C36.908 192.759 36.5694 192.421 36.3187 191.989C36.0734 191.551 35.9507 191.061 35.9507 190.517C35.9507 189.973 36.0734 189.485 36.3187 189.053C36.5694 188.615 36.908 188.277 37.3347 188.037C37.7614 187.791 38.2334 187.669 38.7507 187.669C39.2734 187.669 39.748 187.791 40.1747 188.037C40.6014 188.277 40.9374 188.613 41.1827 189.045C41.428 189.477 41.5507 189.967 41.5507 190.517C41.5507 191.066 41.428 191.557 41.1827 191.989C40.9374 192.421 40.6014 192.759 40.1747 193.005C39.748 193.245 39.2734 193.365 38.7507 193.365ZM38.7507 192.733C39.14 192.733 39.4894 192.642 39.7987 192.461C40.1134 192.279 40.3587 192.021 40.5347 191.685C40.716 191.349 40.8067 190.959 40.8067 190.517C40.8067 190.069 40.716 189.679 40.5347 189.349C40.3587 189.013 40.116 188.754 39.8067 188.573C39.4974 188.391 39.1454 188.301 38.7507 188.301C38.356 188.301 38.004 188.391 37.6947 188.573C37.3854 188.754 37.14 189.013 36.9587 189.349C36.7827 189.679 36.6947 190.069 36.6947 190.517C36.6947 190.959 36.7827 191.349 36.9587 191.685C37.14 192.021 37.3854 192.279 37.6947 192.461C38.0094 192.642 38.3614 192.733 38.7507 192.733ZM47.0558 193.309H46.3278L43.3998 188.869V193.309H42.6718V187.725H43.3998L46.3278 192.157V187.725H47.0558V193.309ZM49.1848 188.325V190.189H51.2168V190.789H49.1848V192.709H51.4568V193.309H48.4568V187.725H51.4568V188.325H49.1848ZM56.4463 189.365C56.4463 189.829 56.2863 190.215 55.9663 190.525C55.6516 190.829 55.169 190.981 54.5183 190.981H53.4463V193.309H52.7183V187.733H54.5183C55.1476 187.733 55.625 187.885 55.9503 188.189C56.281 188.493 56.4463 188.885 56.4463 189.365ZM54.5183 190.381C54.9236 190.381 55.2223 190.293 55.4143 190.117C55.6063 189.941 55.7023 189.69 55.7023 189.365C55.7023 188.677 55.3076 188.333 54.5183 188.333H53.4463V190.381H54.5183ZM60.0391 193.365C59.5218 193.365 59.0498 193.245 58.6231 193.005C58.1965 192.759 57.8578 192.421 57.6071 191.989C57.3618 191.551 57.2391 191.061 57.2391 190.517C57.2391 189.973 57.3618 189.485 57.6071 189.053C57.8578 188.615 58.1965 188.277 58.6231 188.037C59.0498 187.791 59.5218 187.669 60.0391 187.669C60.5618 187.669 61.0365 187.791 61.4631 188.037C61.8898 188.277 62.2258 188.613 62.4711 189.045C62.7165 189.477 62.8391 189.967 62.8391 190.517C62.8391 191.066 62.7165 191.557 62.4711 191.989C62.2258 192.421 61.8898 192.759 61.4631 193.005C61.0365 193.245 60.5618 193.365 60.0391 193.365ZM60.0391 192.733C60.4285 192.733 60.7778 192.642 61.0871 192.461C61.4018 192.279 61.6471 192.021 61.8231 191.685C62.0045 191.349 62.0951 190.959 62.0951 190.517C62.0951 190.069 62.0045 189.679 61.8231 189.349C61.6471 189.013 61.4045 188.754 61.0951 188.573C60.7858 188.391 60.4338 188.301 60.0391 188.301C59.6445 188.301 59.2925 188.391 58.9831 188.573C58.6738 188.754 58.4285 189.013 58.2471 189.349C58.0711 189.679 57.9831 190.069 57.9831 190.517C57.9831 190.959 58.0711 191.349 58.2471 191.685C58.4285 192.021 58.6738 192.279 58.9831 192.461C59.2978 192.642 59.6498 192.733 60.0391 192.733ZM64.6882 187.733V193.309H63.9602V187.733H64.6882ZM69.0249 193.309L67.6969 191.029H66.8169V193.309H66.0889V187.733H67.8889C68.3103 187.733 68.6649 187.805 68.9529 187.949C69.2463 188.093 69.4649 188.287 69.6089 188.533C69.7529 188.778 69.8249 189.058 69.8249 189.373C69.8249 189.757 69.7129 190.095 69.4889 190.389C69.2703 190.682 68.9396 190.877 68.4969 190.973L69.8969 193.309H69.0249ZM66.8169 190.445H67.8889C68.2836 190.445 68.5796 190.349 68.7769 190.157C68.9743 189.959 69.0729 189.698 69.0729 189.373C69.0729 189.042 68.9743 188.786 68.7769 188.605C68.5849 188.423 68.2889 188.333 67.8889 188.333H66.8169V190.445ZM75.5001 193.309H74.7721L71.8441 188.869V193.309H71.1161V187.725H71.8441L74.7721 192.157V187.725H75.5001V193.309ZM81.1251 189.349C80.9705 189.023 80.7465 188.773 80.4531 188.597C80.1598 188.415 79.8185 188.325 79.4291 188.325C79.0398 188.325 78.6878 188.415 78.3731 188.597C78.0638 188.773 77.8185 189.029 77.6371 189.365C77.4611 189.695 77.3731 190.079 77.3731 190.517C77.3731 190.954 77.4611 191.338 77.6371 191.669C77.8185 191.999 78.0638 192.255 78.3731 192.437C78.6878 192.613 79.0398 192.701 79.4291 192.701C79.9731 192.701 80.4211 192.538 80.7731 192.213C81.1251 191.887 81.3305 191.447 81.3891 190.893H79.1651V190.301H82.1651V190.861C82.1225 191.319 81.9785 191.741 81.7331 192.125C81.4878 192.503 81.1651 192.805 80.7651 193.029C80.3651 193.247 79.9198 193.357 79.4291 193.357C78.9118 193.357 78.4398 193.237 78.0131 192.997C77.5865 192.751 77.2478 192.413 76.9971 191.981C76.7518 191.549 76.6291 191.061 76.6291 190.517C76.6291 189.973 76.7518 189.485 76.9971 189.053C77.2478 188.615 77.5865 188.277 78.0131 188.037C78.4398 187.791 78.9118 187.669 79.4291 187.669C80.0211 187.669 80.5438 187.815 80.9971 188.109C81.4558 188.402 81.7891 188.815 81.9971 189.349H81.1251ZM87.0157 189.365C87.0157 189.829 86.8557 190.215 86.5357 190.525C86.221 190.829 85.7384 190.981 85.0877 190.981H84.0157V193.309H83.2877V187.733H85.0877C85.717 187.733 86.1944 187.885 86.5197 188.189C86.8504 188.493 87.0157 188.885 87.0157 189.365ZM85.0877 190.381C85.493 190.381 85.7917 190.293 85.9837 190.117C86.1757 189.941 86.2717 189.69 86.2717 189.365C86.2717 188.677 85.877 188.333 85.0877 188.333H84.0157V190.381H85.0877ZM90.6085 193.365C90.0912 193.365 89.6192 193.245 89.1925 193.005C88.7658 192.759 88.4272 192.421 88.1765 191.989C87.9312 191.551 87.8085 191.061 87.8085 190.517C87.8085 189.973 87.9312 189.485 88.1765 189.053C88.4272 188.615 88.7658 188.277 89.1925 188.037C89.6192 187.791 90.0912 187.669 90.6085 187.669C91.1312 187.669 91.6058 187.791 92.0325 188.037C92.4592 188.277 92.7952 188.613 93.0405 189.045C93.2858 189.477 93.4085 189.967 93.4085 190.517C93.4085 191.066 93.2858 191.557 93.0405 191.989C92.7952 192.421 92.4592 192.759 92.0325 193.005C91.6058 193.245 91.1312 193.365 90.6085 193.365ZM90.6085 192.733C90.9978 192.733 91.3472 192.642 91.6565 192.461C91.9712 192.279 92.2165 192.021 92.3925 191.685C92.5738 191.349 92.6645 190.959 92.6645 190.517C92.6645 190.069 92.5738 189.679 92.3925 189.349C92.2165 189.013 91.9738 188.754 91.6645 188.573C91.3552 188.391 91.0032 188.301 90.6085 188.301C90.2138 188.301 89.8618 188.391 89.5525 188.573C89.2432 188.754 88.9978 189.013 88.8165 189.349C88.6405 189.679 88.5525 190.069 88.5525 190.517C88.5525 190.959 88.6405 191.349 88.8165 191.685C88.9978 192.021 89.2432 192.279 89.5525 192.461C89.8672 192.642 90.2192 192.733 90.6085 192.733ZM95.2576 188.325V190.189H97.2896V190.789H95.2576V192.709H97.5296V193.309H94.5296V187.725H97.5296V188.325H95.2576ZM99.5191 187.733V193.309H98.7911V187.733H99.5191ZM104.352 187.733V188.325H102.832V193.309H102.104V188.325H100.576V187.733H104.352ZM109.632 189.349C109.477 189.023 109.253 188.773 108.96 188.597C108.667 188.415 108.325 188.325 107.936 188.325C107.547 188.325 107.195 188.415 106.88 188.597C106.571 188.773 106.325 189.029 106.144 189.365C105.968 189.695 105.88 190.079 105.88 190.517C105.88 190.954 105.968 191.338 106.144 191.669C106.325 191.999 106.571 192.255 106.88 192.437C107.195 192.613 107.547 192.701 107.936 192.701C108.48 192.701 108.928 192.538 109.28 192.213C109.632 191.887 109.837 191.447 109.896 190.893H107.672V190.301H110.672V190.861C110.629 191.319 110.485 191.741 110.24 192.125C109.995 192.503 109.672 192.805 109.272 193.029C108.872 193.247 108.427 193.357 107.936 193.357C107.419 193.357 106.947 193.237 106.52 192.997C106.093 192.751 105.755 192.413 105.504 191.981C105.259 191.549 105.136 191.061 105.136 190.517C105.136 189.973 105.259 189.485 105.504 189.053C105.755 188.615 106.093 188.277 106.52 188.037C106.947 187.791 107.419 187.669 107.936 187.669C108.528 187.669 109.051 187.815 109.504 188.109C109.963 188.402 110.296 188.815 110.504 189.349H109.632ZM118.803 187.733L117.187 193.309H116.371L115.075 188.821L113.731 193.309L112.923 193.317L111.363 187.733H112.139L113.355 192.461L114.699 187.733H115.515L116.795 192.445L118.019 187.733H118.803ZM123.487 189.365C123.487 189.829 123.327 190.215 123.007 190.525C122.693 190.829 122.21 190.981 121.559 190.981H120.487V193.309H119.759V187.733H121.559C122.189 187.733 122.666 187.885 122.991 188.189C123.322 188.493 123.487 188.885 123.487 189.365ZM121.559 190.381C121.965 190.381 122.263 190.293 122.455 190.117C122.647 189.941 122.743 189.69 122.743 189.365C122.743 188.677 122.349 188.333 121.559 188.333H120.487V190.381H121.559ZM128.12 188.157H125.312V189.981C125.435 189.81 125.616 189.671 125.856 189.565C126.096 189.453 126.355 189.397 126.632 189.397C127.075 189.397 127.435 189.49 127.712 189.677C127.989 189.858 128.187 190.095 128.304 190.389C128.427 190.677 128.488 190.983 128.488 191.309C128.488 191.693 128.416 192.037 128.272 192.341C128.128 192.645 127.907 192.885 127.608 193.061C127.315 193.237 126.949 193.325 126.512 193.325C125.952 193.325 125.499 193.181 125.152 192.893C124.805 192.605 124.595 192.221 124.52 191.741H125.232C125.301 192.045 125.448 192.282 125.672 192.453C125.896 192.623 126.179 192.709 126.52 192.709C126.941 192.709 127.259 192.583 127.472 192.333C127.685 192.077 127.792 191.741 127.792 191.325C127.792 190.909 127.685 190.589 127.472 190.365C127.259 190.135 126.944 190.021 126.528 190.021C126.245 190.021 125.997 190.09 125.784 190.229C125.576 190.362 125.424 190.546 125.328 190.781H124.64V187.517H128.12V188.157ZM132.759 193.309L130.463 190.765V193.309H129.735V187.733H130.463V190.317L132.767 187.733H133.687L131.159 190.525L133.711 193.309H132.759ZM138.685 190.949C138.685 191.087 138.677 191.234 138.661 191.389H135.157C135.183 191.821 135.33 192.159 135.597 192.405C135.869 192.645 136.197 192.765 136.581 192.765C136.895 192.765 137.157 192.693 137.365 192.549C137.578 192.399 137.727 192.202 137.813 191.957H138.597C138.479 192.378 138.245 192.722 137.893 192.989C137.541 193.25 137.103 193.381 136.581 193.381C136.165 193.381 135.791 193.287 135.461 193.101C135.135 192.914 134.879 192.65 134.693 192.309C134.506 191.962 134.413 191.562 134.413 191.109C134.413 190.655 134.503 190.258 134.685 189.917C134.866 189.575 135.119 189.314 135.445 189.133C135.775 188.946 136.154 188.853 136.581 188.853C136.997 188.853 137.365 188.943 137.685 189.125C138.005 189.306 138.25 189.557 138.421 189.877C138.597 190.191 138.685 190.549 138.685 190.949ZM137.933 190.797C137.933 190.519 137.871 190.282 137.749 190.085C137.626 189.882 137.458 189.73 137.245 189.629C137.037 189.522 136.805 189.469 136.549 189.469C136.181 189.469 135.866 189.586 135.605 189.821C135.349 190.055 135.202 190.381 135.165 190.797H137.933ZM145.645 188.925L144.277 193.309H143.525L142.469 189.829L141.413 193.309H140.661L139.285 188.925H140.029L141.037 192.605L142.125 188.925H142.869L143.933 192.613L144.925 188.925H145.645ZM146.256 191.101C146.256 190.653 146.347 190.261 146.528 189.925C146.709 189.583 146.957 189.319 147.272 189.133C147.592 188.946 147.949 188.853 148.344 188.853C148.685 188.853 149.003 188.933 149.296 189.093C149.589 189.247 149.813 189.453 149.968 189.709V187.389H150.704V193.309H149.968V192.485C149.824 192.746 149.611 192.962 149.328 193.133C149.045 193.298 148.715 193.381 148.336 193.381C147.947 193.381 147.592 193.285 147.272 193.093C146.957 192.901 146.709 192.631 146.528 192.285C146.347 191.938 146.256 191.543 146.256 191.101ZM149.968 191.109C149.968 190.778 149.901 190.49 149.768 190.245C149.635 189.999 149.453 189.813 149.224 189.685C149 189.551 148.752 189.485 148.48 189.485C148.208 189.485 147.96 189.549 147.736 189.677C147.512 189.805 147.333 189.991 147.2 190.237C147.067 190.482 147 190.77 147 191.101C147 191.437 147.067 191.73 147.2 191.981C147.333 192.226 147.512 192.415 147.736 192.549C147.96 192.677 148.208 192.741 148.48 192.741C148.752 192.741 149 192.677 149.224 192.549C149.453 192.415 149.635 192.226 149.768 191.981C149.901 191.73 149.968 191.439 149.968 191.109ZM40.2227 200.949C40.2227 201.087 40.2147 201.234 40.1987 201.389H36.6947C36.7214 201.821 36.868 202.159 37.1347 202.405C37.4067 202.645 37.7347 202.765 38.1187 202.765C38.4334 202.765 38.6947 202.693 38.9027 202.549C39.116 202.399 39.2654 202.202 39.3507 201.957H40.1347C40.0174 202.378 39.7827 202.722 39.4307 202.989C39.0787 203.25 38.6414 203.381 38.1187 203.381C37.7027 203.381 37.3294 203.287 36.9987 203.101C36.6734 202.914 36.4174 202.65 36.2307 202.309C36.044 201.962 35.9507 201.562 35.9507 201.109C35.9507 200.655 36.0414 200.258 36.2227 199.917C36.404 199.575 36.6574 199.314 36.9827 199.133C37.3134 198.946 37.692 198.853 38.1187 198.853C38.5347 198.853 38.9027 198.943 39.2227 199.125C39.5427 199.306 39.788 199.557 39.9587 199.877C40.1347 200.191 40.2227 200.549 40.2227 200.949ZM39.4707 200.797C39.4707 200.519 39.4094 200.282 39.2867 200.085C39.164 199.882 38.996 199.73 38.7827 199.629C38.5747 199.522 38.3427 199.469 38.0867 199.469C37.7187 199.469 37.404 199.586 37.1427 199.821C36.8867 200.055 36.74 200.381 36.7027 200.797H39.4707ZM43.1276 199.525H42.2076V203.309H41.4796V199.525H40.9116V198.925H41.4796V198.613C41.4796 198.122 41.605 197.765 41.8556 197.541C42.1116 197.311 42.5196 197.197 43.0796 197.197V197.805C42.7596 197.805 42.533 197.869 42.3996 197.997C42.2716 198.119 42.2076 198.325 42.2076 198.613V198.925H43.1276V199.525ZM48.1364 200.949C48.1364 201.087 48.1284 201.234 48.1124 201.389H44.6084C44.6351 201.821 44.7818 202.159 45.0484 202.405C45.3204 202.645 45.6484 202.765 46.0324 202.765C46.3471 202.765 46.6084 202.693 46.8164 202.549C47.0298 202.399 47.1791 202.202 47.2644 201.957H48.0484C47.9311 202.378 47.6964 202.722 47.3444 202.989C46.9924 203.25 46.5551 203.381 46.0324 203.381C45.6164 203.381 45.2431 203.287 44.9124 203.101C44.5871 202.914 44.3311 202.65 44.1444 202.309C43.9578 201.962 43.8644 201.562 43.8644 201.109C43.8644 200.655 43.9551 200.258 44.1364 199.917C44.3178 199.575 44.5711 199.314 44.8964 199.133C45.2271 198.946 45.6058 198.853 46.0324 198.853C46.4484 198.853 46.8164 198.943 47.1364 199.125C47.4564 199.306 47.7018 199.557 47.8724 199.877C48.0484 200.191 48.1364 200.549 48.1364 200.949ZM47.3844 200.797C47.3844 200.519 47.3231 200.282 47.2004 200.085C47.0778 199.882 46.9098 199.73 46.6964 199.629C46.4884 199.522 46.2564 199.469 46.0004 199.469C45.6324 199.469 45.3178 199.586 45.0564 199.821C44.8004 200.055 44.6538 200.381 44.6164 200.797H47.3844ZM51.0414 199.525H50.1214V203.309H49.3934V199.525H48.8254V198.925H49.3934V198.613C49.3934 198.122 49.5187 197.765 49.7694 197.541C50.0254 197.311 50.4334 197.197 50.9934 197.197V197.805C50.6734 197.805 50.4467 197.869 50.3134 197.997C50.1854 198.119 50.1214 198.325 50.1214 198.613V198.925H51.0414V199.525ZM56.0502 200.949C56.0502 201.087 56.0422 201.234 56.0262 201.389H52.5222C52.5489 201.821 52.6955 202.159 52.9622 202.405C53.2342 202.645 53.5622 202.765 53.9462 202.765C54.2609 202.765 54.5222 202.693 54.7302 202.549C54.9435 202.399 55.0929 202.202 55.1782 201.957H55.9622C55.8449 202.378 55.6102 202.722 55.2582 202.989C54.9062 203.25 54.4689 203.381 53.9462 203.381C53.5302 203.381 53.1569 203.287 52.8262 203.101C52.5009 202.914 52.2449 202.65 52.0582 202.309C51.8715 201.962 51.7782 201.562 51.7782 201.109C51.7782 200.655 51.8689 200.258 52.0502 199.917C52.2315 199.575 52.4849 199.314 52.8102 199.133C53.1409 198.946 53.5195 198.853 53.9462 198.853C54.3622 198.853 54.7302 198.943 55.0502 199.125C55.3702 199.306 55.6155 199.557 55.7862 199.877C55.9622 200.191 56.0502 200.549 56.0502 200.949ZM55.2982 200.797C55.2982 200.519 55.2369 200.282 55.1142 200.085C54.9915 199.882 54.8235 199.73 54.6102 199.629C54.4022 199.522 54.1702 199.469 53.9142 199.469C53.5462 199.469 53.2315 199.586 52.9702 199.821C52.7142 200.055 52.5675 200.381 52.5302 200.797H55.2982ZM37.9907 213.365C37.6227 213.365 37.292 213.301 36.9987 213.173C36.7107 213.039 36.484 212.858 36.3187 212.629C36.1534 212.394 36.068 212.125 36.0627 211.821H36.8387C36.8654 212.082 36.972 212.303 37.1587 212.485C37.3507 212.661 37.628 212.749 37.9907 212.749C38.3374 212.749 38.6094 212.663 38.8067 212.493C39.0094 212.317 39.1107 212.093 39.1107 211.821C39.1107 211.607 39.052 211.434 38.9347 211.301C38.8174 211.167 38.6707 211.066 38.4947 210.997C38.3187 210.927 38.0814 210.853 37.7827 210.773C37.4147 210.677 37.1187 210.581 36.8947 210.485C36.676 210.389 36.4867 210.239 36.3267 210.037C36.172 209.829 36.0947 209.551 36.0947 209.205C36.0947 208.901 36.172 208.631 36.3267 208.397C36.4814 208.162 36.6974 207.981 36.9747 207.853C37.2574 207.725 37.58 207.661 37.9427 207.661C38.4654 207.661 38.892 207.791 39.2227 208.053C39.5587 208.314 39.748 208.661 39.7907 209.093H38.9907C38.964 208.879 38.852 208.693 38.6547 208.533C38.4574 208.367 38.196 208.285 37.8707 208.285C37.5667 208.285 37.3187 208.365 37.1267 208.525C36.9347 208.679 36.8387 208.898 36.8387 209.181C36.8387 209.383 36.8947 209.549 37.0067 209.677C37.124 209.805 37.2654 209.903 37.4307 209.973C37.6014 210.037 37.8387 210.111 38.1427 210.197C38.5107 210.298 38.8067 210.399 39.0307 210.501C39.2547 210.597 39.4467 210.749 39.6067 210.957C39.7667 211.159 39.8467 211.437 39.8467 211.789C39.8467 212.061 39.7747 212.317 39.6307 212.557C39.4867 212.797 39.2734 212.991 38.9907 213.141C38.708 213.29 38.3747 213.365 37.9907 213.365ZM44.51 207.733V208.325H42.99V213.309H42.262V208.325H40.734V207.733H44.51ZM48.5901 213.309L46.2941 210.765V213.309H45.5661V207.733H46.2941V210.317L48.5981 207.733H49.5181L46.9901 210.525L49.5421 213.309H48.5901ZM54.7392 209.349C54.5845 209.023 54.3605 208.773 54.0672 208.597C53.7739 208.415 53.4325 208.325 53.0432 208.325C52.6539 208.325 52.3019 208.415 51.9872 208.597C51.6779 208.773 51.4325 209.029 51.2512 209.365C51.0752 209.695 50.9872 210.079 50.9872 210.517C50.9872 210.954 51.0752 211.338 51.2512 211.669C51.4325 211.999 51.6779 212.255 51.9872 212.437C52.3019 212.613 52.6539 212.701 53.0432 212.701C53.5872 212.701 54.0352 212.538 54.3872 212.213C54.7392 211.887 54.9445 211.447 55.0032 210.893H52.7792V210.301H55.7792V210.861C55.7365 211.319 55.5925 211.741 55.3472 212.125C55.1019 212.503 54.7792 212.805 54.3792 213.029C53.9792 213.247 53.5339 213.357 53.0432 213.357C52.5259 213.357 52.0539 213.237 51.6272 212.997C51.2005 212.751 50.8619 212.413 50.6112 211.981C50.3659 211.549 50.2432 211.061 50.2432 210.517C50.2432 209.973 50.3659 209.485 50.6112 209.053C50.8619 208.615 51.2005 208.277 51.6272 208.037C52.0539 207.791 52.5259 207.669 53.0432 207.669C53.6352 207.669 54.1579 207.815 54.6112 208.109C55.0699 208.402 55.4032 208.815 55.6112 209.349H54.7392ZM59.7098 207.733V211.853C59.7098 212.311 59.5684 212.679 59.2858 212.957C59.0031 213.229 58.6298 213.365 58.1658 213.365C57.6964 213.365 57.3204 213.226 57.0378 212.949C56.7551 212.666 56.6138 212.282 56.6138 211.797H57.3418C57.3471 212.069 57.4164 212.29 57.5498 212.461C57.6884 212.631 57.8938 212.717 58.1658 212.717C58.4378 212.717 58.6404 212.637 58.7738 212.477C58.9071 212.311 58.9738 212.103 58.9738 211.853V207.733H59.7098ZM62.0319 208.325V210.189H64.0639V210.789H62.0319V212.709H64.3039V213.309H61.3039V207.725H64.3039V208.325H62.0319ZM69.2935 209.365C69.2935 209.829 69.1335 210.215 68.8135 210.525C68.4988 210.829 68.0162 210.981 67.3655 210.981H66.2935V213.309H65.5655V207.733H67.3655C67.9948 207.733 68.4722 207.885 68.7975 208.189C69.1282 208.493 69.2935 208.885 69.2935 209.365ZM67.3655 210.381C67.7708 210.381 68.0695 210.293 68.2615 210.117C68.4535 209.941 68.5495 209.69 68.5495 209.365C68.5495 208.677 68.1548 208.333 67.3655 208.333H66.2935V210.381H67.3655ZM73.3823 213.309L71.0863 210.765V213.309H70.3583V207.733H71.0863V210.317L73.3903 207.733H74.3103L71.7823 210.525L74.3343 213.309H73.3823ZM78.7394 207.733V208.325H77.2194V213.309H76.4914V208.325H74.9634V207.733H78.7394ZM82.6035 207.733V211.853C82.6035 212.311 82.4622 212.679 82.1795 212.957C81.8968 213.229 81.5235 213.365 81.0595 213.365C80.5902 213.365 80.2142 213.226 79.9315 212.949C79.6488 212.666 79.5075 212.282 79.5075 211.797H80.2355C80.2408 212.069 80.3102 212.29 80.4435 212.461C80.5822 212.631 80.7875 212.717 81.0595 212.717C81.3315 212.717 81.5342 212.637 81.6675 212.477C81.8008 212.311 81.8675 212.103 81.8675 211.853V207.733H82.6035ZM88.4217 209.349C88.267 209.023 88.043 208.773 87.7497 208.597C87.4564 208.415 87.115 208.325 86.7257 208.325C86.3364 208.325 85.9844 208.415 85.6697 208.597C85.3604 208.773 85.115 209.029 84.9337 209.365C84.7577 209.695 84.6697 210.079 84.6697 210.517C84.6697 210.954 84.7577 211.338 84.9337 211.669C85.115 211.999 85.3604 212.255 85.6697 212.437C85.9844 212.613 86.3364 212.701 86.7257 212.701C87.2697 212.701 87.7177 212.538 88.0697 212.213C88.4217 211.887 88.627 211.447 88.6857 210.893H86.4617V210.301H89.4617V210.861C89.419 211.319 89.275 211.741 89.0297 212.125C88.7844 212.503 88.4617 212.805 88.0617 213.029C87.6617 213.247 87.2164 213.357 86.7257 213.357C86.2084 213.357 85.7364 213.237 85.3097 212.997C84.883 212.751 84.5444 212.413 84.2937 211.981C84.0484 211.549 83.9257 211.061 83.9257 210.517C83.9257 209.973 84.0484 209.485 84.2937 209.053C84.5444 208.615 84.883 208.277 85.3097 208.037C85.7364 207.791 86.2084 207.669 86.7257 207.669C87.3177 207.669 87.8404 207.815 88.2937 208.109C88.7524 208.402 89.0857 208.815 89.2937 209.349H88.4217Z" fill="white"></path>
                      <g filter="url(#filter5_d_1063_5351)">
                        <path d="M30.5059 190.277C30.5059 192.782 28.6343 194.746 26.4048 194.746C24.1754 194.746 22.3038 192.782 22.3038 190.277C22.3038 187.772 24.1754 185.809 26.4048 185.809C28.6343 185.809 30.5059 187.772 30.5059 190.277Z" stroke="#E67662"></path>
                      </g>
                      <defs>
                        <filter id="filter0_f_1063_5351" x="0.0438232" y="0.28125" width="183.246" height="263.719" filterUnits="userSpaceOnUse" color-interpolation-filters="sRGB">
                          <feFlood flood-opacity="0" result="BackgroundImageFix"></feFlood>
                          <feBlend mode="normal" in="SourceGraphic" in2="BackgroundImageFix" result="shape"></feBlend>
                          <feGaussianBlur stdDeviation="15" result="effect1_foregroundBlur_1063_5351"></feGaussianBlur>
                        </filter>
                        <filter id="filter1_f_1063_5351" x="18.8341" y="116.235" width="7.83411" height="2.82812" filterUnits="userSpaceOnUse" color-interpolation-filters="sRGB">
                          <feFlood flood-opacity="0" result="BackgroundImageFix"></feFlood>
                          <feBlend mode="normal" in="SourceGraphic" in2="BackgroundImageFix" result="shape"></feBlend>
                          <feGaussianBlur stdDeviation="0.5" result="effect1_foregroundBlur_1063_5351"></feGaussianBlur>
                        </filter>
                        <filter id="filter2_f_1063_5351" x="17.5634" y="112.578" width="10.3756" height="10.1406" filterUnits="userSpaceOnUse" color-interpolation-filters="sRGB">
                          <feFlood flood-opacity="0" result="BackgroundImageFix"></feFlood>
                          <feBlend mode="normal" in="SourceGraphic" in2="BackgroundImageFix" result="shape"></feBlend>
                          <feGaussianBlur stdDeviation="1.5" result="effect1_foregroundBlur_1063_5351"></feGaussianBlur>
                        </filter>
                        <filter id="filter3_f_1063_5351" x="20.2927" y="115.268" width="4.91711" height="4.7605" filterUnits="userSpaceOnUse" color-interpolation-filters="sRGB">
                          <feFlood flood-opacity="0" result="BackgroundImageFix"></feFlood>
                          <feBlend mode="normal" in="SourceGraphic" in2="BackgroundImageFix" result="shape"></feBlend>
                          <feGaussianBlur stdDeviation="0.5" result="effect1_foregroundBlur_1063_5351"></feGaussianBlur>
                        </filter>
                        <filter id="filter4_d_1063_5351" x="105.122" y="146.304" width="40.04" height="22.5701" filterUnits="userSpaceOnUse" color-interpolation-filters="sRGB">
                          <feFlood flood-opacity="0" result="BackgroundImageFix"></feFlood>
                          <feColorMatrix in="SourceAlpha" type="matrix" values="0 0 0 0 0 0 0 0 0 0 0 0 0 0 0 0 0 0 127 0" result="hardAlpha"></feColorMatrix>
                          <feOffset></feOffset>
                          <feGaussianBlur stdDeviation="3"></feGaussianBlur>
                          <feColorMatrix type="matrix" values="0 0 0 0 0.941176 0 0 0 0 0.780392 0 0 0 0 0.466667 0 0 0 0.4 0"></feColorMatrix>
                          <feBlend mode="normal" in2="BackgroundImageFix" result="effect1_dropShadow_1063_5351"></feBlend>
                          <feBlend mode="normal" in="SourceGraphic" in2="effect1_dropShadow_1063_5351" result="shape"></feBlend>
                        </filter>
                        <filter id="filter5_d_1063_5351" x="17.8038" y="181.309" width="17.202" height="17.9375" filterUnits="userSpaceOnUse" color-interpolation-filters="sRGB">
                          <feFlood flood-opacity="0" result="BackgroundImageFix"></feFlood>
                          <feColorMatrix in="SourceAlpha" type="matrix" values="0 0 0 0 0 0 0 0 0 0 0 0 0 0 0 0 0 0 127 0" result="hardAlpha"></feColorMatrix>
                          <feOffset></feOffset>
                          <feGaussianBlur stdDeviation="2"></feGaussianBlur>
                          <feColorMatrix type="matrix" values="0 0 0 0 0.941176 0 0 0 0 0.780392 0 0 0 0 0.466667 0 0 0 1 0"></feColorMatrix>
                          <feBlend mode="normal" in2="BackgroundImageFix" result="effect1_dropShadow_1063_5351"></feBlend>
                          <feBlend mode="normal" in="SourceGraphic" in2="effect1_dropShadow_1063_5351" result="shape"></feBlend>
                        </filter>
                        <linearGradient id="paint0_linear_1063_5351" x1="38.3336" y1="39.9937" x2="145.587" y2="109.63" gradientUnits="userSpaceOnUse">
                          <stop stop-color="#9492ED" stop-opacity="0"></stop>
                          <stop offset="0.546875" stop-color="#7674EC"></stop>
                          <stop offset="1" stop-color="#817FDF" stop-opacity="0"></stop>
                        </linearGradient>
                        <linearGradient id="paint1_linear_1063_5351" x1="38.3387" y1="40.0302" x2="145.592" y2="109.667" gradientUnits="userSpaceOnUse">
                          <stop stop-color="#232183" stop-opacity="0"></stop>
                          <stop offset="0.546875" stop-color="#232183"></stop>
                          <stop offset="1" stop-color="#232183" stop-opacity="0"></stop>
                        </linearGradient>
                        <linearGradient id="paint2_linear_1063_5351" x1="57.6678" y1="71.0447" x2="73.3281" y2="72.4907" gradientUnits="userSpaceOnUse">
                          <stop stop-color="#548DD1"></stop>
                          <stop offset="0.59375" stop-color="#E39DE5"></stop>
                          <stop offset="1" stop-color="white"></stop>
                        </linearGradient>
                        <linearGradient id="paint3_linear_1063_5351" x1="46.4465" y1="81.9588" x2="80.5636" y2="90.3526" gradientUnits="userSpaceOnUse">
                          <stop offset="0.0340296" stop-color="#2B79ED" stop-opacity="0.8"></stop>
                          <stop offset="0.791667" stop-color="#FCA6EF" stop-opacity="0.8"></stop>
                          <stop offset="1" stop-color="white"></stop>
                        </linearGradient>
                        <radialGradient id="paint4_radial_1063_5351" cx="0" cy="0" r="1" gradientUnits="userSpaceOnUse" gradientTransform="translate(79.1898 113.853) rotate(90) scale(28.4133 65.1898)">
                          <stop offset="0.0729167" stop-color="white"></stop>
                          <stop offset="0.34375" stop-color="#FF7373" stop-opacity="0.8"></stop>
                          <stop offset="1" stop-color="#0E7DFF" stop-opacity="0"></stop>
                        </radialGradient>
                        <linearGradient id="paint5_linear_1063_5351" x1="57.669" y1="64.3582" x2="54.432" y2="101.532" gradientUnits="userSpaceOnUse">
                          <stop stop-color="#2295D6"></stop>
                          <stop offset="1" stop-color="#2249D6" stop-opacity="0.3"></stop>
                        </linearGradient>
                        <linearGradient id="paint6_linear_1063_5351" x1="70.6404" y1="39.431" x2="80.8523" y2="55.0933" gradientUnits="userSpaceOnUse">
                          <stop stop-color="#4B86FA" stop-opacity="0.8"></stop>
                          <stop offset="0.534769" stop-color="#FCA6EF" stop-opacity="0.8"></stop>
                          <stop offset="0.716558" stop-color="white"></stop>
                        </linearGradient>
                        <linearGradient id="paint7_linear_1063_5351" x1="83.1759" y1="57.0117" x2="43.4715" y2="87.1088" gradientUnits="userSpaceOnUse">
                          <stop stop-color="#324BCC"></stop>
                          <stop offset="1" stop-color="white" stop-opacity="0.8"></stop>
                        </linearGradient>
                        <radialGradient id="paint8_radial_1063_5351" cx="0" cy="0" r="1" gradientUnits="userSpaceOnUse" gradientTransform="translate(70.4219 100.525) rotate(-90) scale(30.372 19.3638)">
                          <stop stop-color="#00F0FF"></stop>
                          <stop offset="1" stop-color="#00F0FF" stop-opacity="0"></stop>
                        </radialGradient>
                        <linearGradient id="paint9_linear_1063_5351" x1="57.6679" y1="85.921" x2="68.9298" y2="71.2174" gradientUnits="userSpaceOnUse">
                          <stop stop-color="white"></stop>
                          <stop offset="1" stop-color="white" stop-opacity="0"></stop>
                        </linearGradient>
                        <linearGradient id="paint10_linear_1063_5351" x1="64.9929" y1="56.2139" x2="77.0283" y2="64.8435" gradientUnits="userSpaceOnUse">
                          <stop stop-color="#4078CB"></stop>
                          <stop offset="0.59375" stop-color="#E39DE5"></stop>
                          <stop offset="1" stop-color="white"></stop>
                        </linearGradient>
                        <linearGradient id="paint11_linear_1063_5351" x1="96.625" y1="83.3117" x2="71.0196" y2="92.835" gradientUnits="userSpaceOnUse">
                          <stop stop-color="#4078CB"></stop>
                          <stop offset="1" stop-color="#E39DE5"></stop>
                        </linearGradient>
                        <linearGradient id="paint12_linear_1063_5351" x1="79.7268" y1="51.7819" x2="79.4853" y2="55.908" gradientUnits="userSpaceOnUse">
                          <stop stop-color="#4078CB"></stop>
                          <stop offset="0.59375" stop-color="#E39DE5"></stop>
                          <stop offset="1" stop-color="white"></stop>
                        </linearGradient>
                        <linearGradient id="paint13_linear_1063_5351" x1="67.7973" y1="90.7325" x2="67.5558" y2="94.8586" gradientUnits="userSpaceOnUse">
                          <stop stop-color="#4078CB"></stop>
                          <stop offset="0.59375" stop-color="#E39DE5"></stop>
                          <stop offset="1" stop-color="white"></stop>
                        </linearGradient>
                        <linearGradient id="paint14_linear_1063_5351" x1="57.3671" y1="51.8646" x2="72.9794" y2="69.648" gradientUnits="userSpaceOnUse">
                          <stop offset="0.0729167" stop-color="#4B86FA" stop-opacity="0.8"></stop>
                          <stop offset="0.791667" stop-color="#D22828" stop-opacity="0.8"></stop>
                          <stop offset="1" stop-color="white"></stop>
                        </linearGradient>
                        <linearGradient id="paint15_linear_1063_5351" x1="104.618" y1="35.6694" x2="117.656" y2="42.1091" gradientUnits="userSpaceOnUse">
                          <stop offset="0.00889157" stop-color="#1D2A9B" stop-opacity="0.8"></stop>
                          <stop offset="0.645598" stop-color="#AF2929" stop-opacity="0.8"></stop>
                          <stop offset="1" stop-color="white"></stop>
                        </linearGradient>
                        <linearGradient id="paint16_linear_1063_5351" x1="49.1464" y1="107.127" x2="88.1882" y2="100.568" gradientUnits="userSpaceOnUse">
                          <stop offset="0.0340296" stop-color="#4B5CFA" stop-opacity="0.8"></stop>
                          <stop offset="0.791667" stop-color="#50111D" stop-opacity="0.8"></stop>
                          <stop offset="1" stop-color="white"></stop>
                        </linearGradient>
                        <linearGradient id="paint17_linear_1063_5351" x1="98.863" y1="93.1217" x2="90.8386" y2="88.3959" gradientUnits="userSpaceOnUse">
                          <stop offset="0.0340296" stop-color="#4B5CFA" stop-opacity="0.8"></stop>
                          <stop offset="0.539474" stop-color="#FCA6EF" stop-opacity="0.8"></stop>
                          <stop offset="1" stop-color="white"></stop>
                        </linearGradient>
                        <linearGradient id="paint18_linear_1063_5351" x1="102.546" y1="42.8766" x2="91.4731" y2="60.4757" gradientUnits="userSpaceOnUse">
                          <stop stop-color="#0A3892"></stop>
                          <stop offset="0.536458" stop-color="#29B2ED" stop-opacity="0.8"></stop>
                          <stop offset="0.967948" stop-color="white"></stop>
                        </linearGradient>
                        <linearGradient id="paint19_linear_1063_5351" x1="97.2645" y1="58.0661" x2="88.6797" y2="41.1541" gradientUnits="userSpaceOnUse">
                          <stop stop-color="#FF439D"></stop>
                          <stop offset="1" stop-color="#FF43D6" stop-opacity="0"></stop>
                        </linearGradient>
                        <linearGradient id="paint20_linear_1063_5351" x1="56.0201" y1="89.3712" x2="71.8281" y2="101.421" gradientUnits="userSpaceOnUse">
                          <stop stop-color="#0D2549"></stop>
                          <stop offset="1" stop-color="#FF93E1" stop-opacity="0.6"></stop>
                        </linearGradient>
                        <linearGradient id="paint21_linear_1063_5351" x1="38.3335" y1="40.0255" x2="145.587" y2="109.662" gradientUnits="userSpaceOnUse">
                          <stop stop-color="#232183" stop-opacity="0"></stop>
                          <stop offset="0.546875" stop-color="#232183"></stop>
                          <stop offset="1" stop-color="#232183" stop-opacity="0"></stop>
                        </linearGradient>
                        <linearGradient id="paint22_linear_1063_5351" x1="38.3335" y1="40.0255" x2="145.587" y2="109.662" gradientUnits="userSpaceOnUse">
                          <stop stop-color="#232183" stop-opacity="0"></stop>
                          <stop offset="0.546875" stop-color="#8A88EC"></stop>
                          <stop offset="1" stop-color="#232183" stop-opacity="0"></stop>
                        </linearGradient>
                        <linearGradient id="paint23_linear_1063_5351" x1="98.4157" y1="61.9505" x2="58.7423" y2="91.9622" gradientUnits="userSpaceOnUse">
                          <stop stop-color="#0B1135"></stop>
                          <stop offset="1" stop-color="white" stop-opacity="0.8"></stop>
                        </linearGradient>
                        <radialGradient id="paint24_radial_1063_5351" cx="0" cy="0" r="1" gradientUnits="userSpaceOnUse" gradientTransform="translate(85.6907 105.455) rotate(-90) scale(30.3652 19.3196)">
                          <stop stop-color="#00F0FF"></stop>
                          <stop offset="1" stop-color="#00F0FF" stop-opacity="0"></stop>
                        </radialGradient>
                        <linearGradient id="paint25_linear_1063_5351" x1="77.0095" y1="91.6714" x2="86.2512" y2="78.5094" gradientUnits="userSpaceOnUse">
                          <stop stop-color="white"></stop>
                          <stop offset="1" stop-color="white" stop-opacity="0"></stop>
                        </linearGradient>
                        <linearGradient id="paint26_linear_1063_5351" x1="45.3584" y1="104.813" x2="73.3317" y2="184.368" gradientUnits="userSpaceOnUse">
                          <stop offset="0.0749607" stop-color="#9F4E03"></stop>
                          <stop offset="0.421149" stop-color="#465558" stop-opacity="0"></stop>
                        </linearGradient>
                      </defs>
                    </svg>