<svg width="127" height="157" viewBox="0 0 127 157" fill="none" xmlns="http://www.w3.org/2000/svg">
                          <g filter="url(#filter0_f_1063_2725)">
                            <rect x="24.9863" y="30" width="77.2833" height="103" rx="10" fill="url(#paint0_linear_1063_2725)"></rect>
                          </g>
                          <g filter="url(#filter1_b_1063_2725)">
                            <rect x="16.1436" y="2.58081" width="94.8993" height="123.262" rx="10" fill="url(#paint1_linear_1063_2725)"></rect>
                          </g>
                          <path opacity="0.5" d="M97.7933 44.3309C97.7933 60.6761 82.6674 74.2428 63.593 74.2428C44.5187 74.2428 29.3928 60.6761 29.3928 44.3309C29.3928 27.9856 44.5187 14.4189 63.593 14.4189C82.6674 14.4189 97.7933 27.9856 97.7933 44.3309Z" stroke="#6EA4B7" stroke-width="3"></path>
                          <g filter="url(#filter2_f_1063_2725)">
                            <mask id="path-4-inside-1_1063_2725" fill="white">
                              <path d="M29.2766 49.8977C28.5125 49.8977 27.8894 50.5176 27.9276 51.2807C28.2145 57.0084 30.2784 62.5676 33.9096 67.3492C37.8324 72.5148 43.408 76.541 49.9313 78.9185C56.4547 81.296 63.6328 81.918 70.558 80.706C77.4832 79.494 83.8443 76.5023 88.8371 72.1092C93.8299 67.7162 97.23 62.1191 98.6075 56.0258C99.985 49.9325 99.278 43.6166 96.5759 37.8769C93.8739 32.1371 89.2981 27.2312 83.4272 23.7796C77.8942 20.5267 71.4451 18.7031 64.8105 18.504C64.1385 18.4839 63.5932 19.0308 63.5932 19.7031V19.7031C63.5932 20.3755 64.1384 20.9184 64.8104 20.9403C70.8976 21.1383 76.8119 22.8186 81.8899 25.804C87.3057 28.9881 91.5268 33.5137 94.0194 38.8086C96.5121 44.1035 97.1642 49.9298 95.8935 55.5508C94.6228 61.1718 91.4862 66.3351 86.8804 70.3876C82.2747 74.4401 76.4065 77.1999 70.0182 78.318C63.6298 79.4361 57.008 78.8623 50.9903 76.6691C44.9726 74.4758 39.8291 70.7618 36.2104 65.9965C32.8833 61.6153 30.9825 56.5265 30.6977 51.2806C30.6562 50.5176 30.0407 49.8977 29.2766 49.8977V49.8977Z"></path>
                            </mask>
                            <path d="M29.2766 49.8977C28.5125 49.8977 27.8894 50.5176 27.9276 51.2807C28.2145 57.0084 30.2784 62.5676 33.9096 67.3492C37.8324 72.5148 43.408 76.541 49.9313 78.9185C56.4547 81.296 63.6328 81.918 70.558 80.706C77.4832 79.494 83.8443 76.5023 88.8371 72.1092C93.8299 67.7162 97.23 62.1191 98.6075 56.0258C99.985 49.9325 99.278 43.6166 96.5759 37.8769C93.8739 32.1371 89.2981 27.2312 83.4272 23.7796C77.8942 20.5267 71.4451 18.7031 64.8105 18.504C64.1385 18.4839 63.5932 19.0308 63.5932 19.7031V19.7031C63.5932 20.3755 64.1384 20.9184 64.8104 20.9403C70.8976 21.1383 76.8119 22.8186 81.8899 25.804C87.3057 28.9881 91.5268 33.5137 94.0194 38.8086C96.5121 44.1035 97.1642 49.9298 95.8935 55.5508C94.6228 61.1718 91.4862 66.3351 86.8804 70.3876C82.2747 74.4401 76.4065 77.1999 70.0182 78.318C63.6298 79.4361 57.008 78.8623 50.9903 76.6691C44.9726 74.4758 39.8291 70.7618 36.2104 65.9965C32.8833 61.6153 30.9825 56.5265 30.6977 51.2806C30.6562 50.5176 30.0407 49.8977 29.2766 49.8977V49.8977Z" stroke="url(#paint2_linear_1063_2725)" stroke-width="6" mask="url(#path-4-inside-1_1063_2725)"></path>
                          </g>
                          <path d="M61.1701 36.4375V38.1895H64.9021L61.8541 45.1855H63.9541L66.9661 37.9615V36.4375H61.1701ZM59.6415 54.6775C59.6415 51.8575 55.4775 52.5175 55.4775 51.0535C55.4775 50.5255 55.8495 50.2735 56.3415 50.2855C56.8935 50.2975 57.2775 50.6215 57.3135 51.1615H59.5335C59.4495 49.5535 58.2135 48.6415 56.3775 48.6415C54.6135 48.6415 53.3055 49.5295 53.3055 51.1255C53.2815 54.1135 57.4935 53.2735 57.4935 54.8335C57.4935 55.3255 57.1095 55.6255 56.5095 55.6255C55.9335 55.6255 55.5255 55.3135 55.4655 54.6655H53.2815C53.3415 56.3695 54.7575 57.2695 56.5695 57.2695C58.5375 57.2695 59.6415 56.0935 59.6415 54.6775ZM69.1963 52.9495C69.1963 50.4175 67.2883 48.6415 64.8883 48.6415C62.5003 48.6415 60.5563 50.4175 60.5563 52.9495C60.5563 55.4815 62.5003 57.2695 64.8883 57.2695C67.2763 57.2695 69.1963 55.4815 69.1963 52.9495ZM62.6563 52.9495C62.6563 51.4495 63.5203 50.5015 64.8883 50.5015C66.2323 50.5015 67.1083 51.4495 67.1083 52.9495C67.1083 54.4255 66.2323 55.3975 64.8883 55.3975C63.5203 55.3975 62.6563 54.4255 62.6563 52.9495ZM70.3379 48.7615V57.1855H75.0779V55.6015H72.3899V48.7615H70.3379Z" fill="#4C9EBB"></path>
                          <path d="M46.052 96.3758H42.708L42.092 98.0808H41.036L43.808 90.4578H44.963L47.724 98.0808H46.668L46.052 96.3758ZM45.766 95.5618L44.38 91.6898L42.994 95.5618H45.766ZM56.5111 91.9428C56.9805 91.9428 57.3985 92.0418 57.7651 92.2398C58.1318 92.4305 58.4215 92.7201 58.6341 93.1088C58.8468 93.4975 58.9531 93.9705 58.9531 94.5278V98.0808H57.9631V94.6708C57.9631 94.0695 57.8128 93.6111 57.5121 93.2958C57.2188 92.9731 56.8191 92.8118 56.3131 92.8118C55.7925 92.8118 55.3781 92.9805 55.0701 93.3178C54.7621 93.6478 54.6081 94.1281 54.6081 94.7588V98.0808H53.6181V94.6708C53.6181 94.0695 53.4678 93.6111 53.1671 93.2958C52.8738 92.9731 52.4741 92.8118 51.9681 92.8118C51.4475 92.8118 51.0331 92.9805 50.7251 93.3178C50.4171 93.6478 50.2631 94.1281 50.2631 94.7588V98.0808H49.2621V92.0528H50.2631V92.9218C50.4611 92.6065 50.7251 92.3645 51.0551 92.1958C51.3925 92.0271 51.7628 91.9428 52.1661 91.9428C52.6721 91.9428 53.1195 92.0565 53.5081 92.2838C53.8968 92.5111 54.1865 92.8448 54.3771 93.2848C54.5458 92.8595 54.8245 92.5295 55.2131 92.2948C55.6018 92.0601 56.0345 91.9428 56.5111 91.9428ZM63.5542 98.1798C62.9895 98.1798 62.4762 98.0515 62.0142 97.7948C61.5595 97.5381 61.2002 97.1751 60.9362 96.7058C60.6795 96.2291 60.5512 95.6791 60.5512 95.0558C60.5512 94.4398 60.6832 93.8971 60.9472 93.4278C61.2185 92.9511 61.5852 92.5881 62.0472 92.3388C62.5092 92.0821 63.0262 91.9538 63.5982 91.9538C64.1702 91.9538 64.6872 92.0821 65.1492 92.3388C65.6112 92.5881 65.9742 92.9475 66.2382 93.4168C66.5095 93.8861 66.6452 94.4325 66.6452 95.0558C66.6452 95.6791 66.5058 96.2291 66.2272 96.7058C65.9558 97.1751 65.5855 97.5381 65.1162 97.7948C64.6468 98.0515 64.1262 98.1798 63.5542 98.1798ZM63.5542 97.2998C63.9135 97.2998 64.2508 97.2155 64.5662 97.0468C64.8815 96.8781 65.1345 96.6251 65.3252 96.2878C65.5232 95.9505 65.6222 95.5398 65.6222 95.0558C65.6222 94.5718 65.5268 94.1611 65.3362 93.8238C65.1455 93.4865 64.8962 93.2371 64.5882 93.0758C64.2802 92.9071 63.9465 92.8228 63.5872 92.8228C63.2205 92.8228 62.8832 92.9071 62.5752 93.0758C62.2745 93.2371 62.0325 93.4865 61.8492 93.8238C61.6658 94.1611 61.5742 94.5718 61.5742 95.0558C61.5742 95.5471 61.6622 95.9615 61.8382 96.2988C62.0215 96.6361 62.2635 96.8891 62.5642 97.0578C62.8648 97.2191 63.1948 97.2998 63.5542 97.2998ZM73.6373 92.0528V98.0808H72.6363V97.1898C72.4456 97.4978 72.178 97.7398 71.8333 97.9158C71.496 98.0845 71.122 98.1688 70.7113 98.1688C70.242 98.1688 69.8203 98.0735 69.4463 97.8828C69.0723 97.6848 68.7753 97.3915 68.5553 97.0028C68.3426 96.6141 68.2363 96.1411 68.2363 95.5838V92.0528H69.2263V95.4518C69.2263 96.0458 69.3766 96.5041 69.6773 96.8268C69.978 97.1421 70.3886 97.2998 70.9093 97.2998C71.4446 97.2998 71.8663 97.1348 72.1743 96.8048C72.4823 96.4748 72.6363 95.9945 72.6363 95.3638V92.0528H73.6373ZM78.5944 91.9428C79.3278 91.9428 79.9218 92.1665 80.3764 92.6138C80.8311 93.0538 81.0584 93.6918 81.0584 94.5278V98.0808H80.0684V94.6708C80.0684 94.0695 79.9181 93.6111 79.6174 93.2958C79.3168 92.9731 78.9061 92.8118 78.3854 92.8118C77.8574 92.8118 77.4358 92.9768 77.1204 93.3068C76.8124 93.6368 76.6584 94.1171 76.6584 94.7478V98.0808H75.6574V92.0528H76.6584V92.9108C76.8564 92.6028 77.1241 92.3645 77.4614 92.1958C77.8061 92.0271 78.1838 91.9428 78.5944 91.9428ZM84.2446 92.8778V96.4308C84.2446 96.7241 84.3069 96.9331 84.4316 97.0578C84.5562 97.1751 84.7726 97.2338 85.0806 97.2338H85.8176V98.0808H84.9156C84.3582 98.0808 83.9402 97.9525 83.6616 97.6958C83.3829 97.4391 83.2436 97.0175 83.2436 96.4308V92.8778H82.4626V92.0528H83.2436V90.5348H84.2446V92.0528H85.8176V92.8778H84.2446ZM37.5571 115.081L35.7311 111.946H34.5211V115.081H33.5201V107.414H35.9951C36.5744 107.414 37.0621 107.513 37.4581 107.711C37.8614 107.909 38.1621 108.176 38.3601 108.514C38.5581 108.851 38.6571 109.236 38.6571 109.669C38.6571 110.197 38.5031 110.662 38.1951 111.066C37.8944 111.469 37.4398 111.737 36.8311 111.869L38.7561 115.081H37.5571ZM34.5211 111.143H35.9951C36.5378 111.143 36.9448 111.011 37.2161 110.747C37.4874 110.475 37.6231 110.116 37.6231 109.669C37.6231 109.214 37.4874 108.862 37.2161 108.613C36.9521 108.363 36.5451 108.239 35.9951 108.239H34.5211V111.143ZM46.0425 111.836C46.0425 112.026 46.0315 112.228 46.0095 112.441H41.1915C41.2282 113.035 41.4298 113.5 41.7965 113.838C42.1705 114.168 42.6215 114.333 43.1495 114.333C43.5822 114.333 43.9415 114.234 44.2275 114.036C44.5208 113.83 44.7262 113.559 44.8435 113.222H45.9215C45.7602 113.801 45.4375 114.274 44.9535 114.641C44.4695 115 43.8682 115.18 43.1495 115.18C42.5775 115.18 42.0642 115.051 41.6095 114.795C41.1622 114.538 40.8102 114.175 40.5535 113.706C40.2968 113.229 40.1685 112.679 40.1685 112.056C40.1685 111.432 40.2932 110.886 40.5425 110.417C40.7918 109.947 41.1402 109.588 41.5875 109.339C42.0422 109.082 42.5628 108.954 43.1495 108.954C43.7215 108.954 44.2275 109.078 44.6675 109.328C45.1075 109.577 45.4448 109.922 45.6795 110.362C45.9215 110.794 46.0425 111.286 46.0425 111.836ZM45.0085 111.627C45.0085 111.245 44.9242 110.919 44.7555 110.648C44.5868 110.369 44.3558 110.16 44.0625 110.021C43.7765 109.874 43.4575 109.801 43.1055 109.801C42.5995 109.801 42.1668 109.962 41.8075 110.285C41.4555 110.607 41.2538 111.055 41.2025 111.627H45.0085ZM54.9428 108.943C55.4121 108.943 55.8301 109.042 56.1968 109.24C56.5635 109.43 56.8531 109.72 57.0658 110.109C57.2785 110.497 57.3848 110.97 57.3848 111.528V115.081H56.3948V111.671C56.3948 111.069 56.2445 110.611 55.9438 110.296C55.6505 109.973 55.2508 109.812 54.7448 109.812C54.2241 109.812 53.8098 109.98 53.5018 110.318C53.1938 110.648 53.0398 111.128 53.0398 111.759V115.081H52.0498V111.671C52.0498 111.069 51.8995 110.611 51.5988 110.296C51.3055 109.973 50.9058 109.812 50.3998 109.812C49.8791 109.812 49.4648 109.98 49.1568 110.318C48.8488 110.648 48.6948 111.128 48.6948 111.759V115.081H47.6938V109.053H48.6948V109.922C48.8928 109.606 49.1568 109.364 49.4868 109.196C49.8241 109.027 50.1945 108.943 50.5978 108.943C51.1038 108.943 51.5511 109.056 51.9398 109.284C52.3285 109.511 52.6181 109.845 52.8088 110.285C52.9775 109.859 53.2561 109.529 53.6448 109.295C54.0335 109.06 54.4661 108.943 54.9428 108.943ZM58.9828 112.045C58.9828 111.429 59.1075 110.89 59.3568 110.428C59.6061 109.958 59.9471 109.595 60.3798 109.339C60.8198 109.082 61.3075 108.954 61.8428 108.954C62.3708 108.954 62.8291 109.067 63.2178 109.295C63.6065 109.522 63.8961 109.808 64.0868 110.153V109.053H65.0988V115.081H64.0868V113.959C63.8888 114.311 63.5918 114.604 63.1958 114.839C62.8071 115.066 62.3525 115.18 61.8318 115.18C61.2965 115.18 60.8125 115.048 60.3798 114.784C59.9471 114.52 59.6061 114.149 59.3568 113.673C59.1075 113.196 58.9828 112.653 58.9828 112.045ZM64.0868 112.056C64.0868 111.601 63.9951 111.205 63.8118 110.868C63.6285 110.53 63.3791 110.274 63.0638 110.098C62.7558 109.914 62.4148 109.823 62.0408 109.823C61.6668 109.823 61.3258 109.911 61.0178 110.087C60.7098 110.263 60.4641 110.519 60.2808 110.857C60.0975 111.194 60.0058 111.59 60.0058 112.045C60.0058 112.507 60.0975 112.91 60.2808 113.255C60.4641 113.592 60.7098 113.852 61.0178 114.036C61.3258 114.212 61.6668 114.3 62.0408 114.3C62.4148 114.3 62.7558 114.212 63.0638 114.036C63.3791 113.852 63.6285 113.592 63.8118 113.255C63.9951 112.91 64.0868 112.51 64.0868 112.056ZM67.6374 108.074C67.4467 108.074 67.2854 108.008 67.1534 107.876C67.0214 107.744 66.9554 107.582 66.9554 107.392C66.9554 107.201 67.0214 107.04 67.1534 106.908C67.2854 106.776 67.4467 106.71 67.6374 106.71C67.8207 106.71 67.9747 106.776 68.0994 106.908C68.2314 107.04 68.2974 107.201 68.2974 107.392C68.2974 107.582 68.2314 107.744 68.0994 107.876C67.9747 108.008 67.8207 108.074 67.6374 108.074ZM68.1214 109.053V115.081H67.1204V109.053H68.1214ZM73.0944 108.943C73.8278 108.943 74.4218 109.166 74.8764 109.614C75.3311 110.054 75.5584 110.692 75.5584 111.528V115.081H74.5684V111.671C74.5684 111.069 74.4181 110.611 74.1174 110.296C73.8168 109.973 73.4061 109.812 72.8854 109.812C72.3574 109.812 71.9358 109.977 71.6204 110.307C71.3124 110.637 71.1584 111.117 71.1584 111.748V115.081H70.1574V109.053H71.1584V109.911C71.3564 109.603 71.6241 109.364 71.9614 109.196C72.3061 109.027 72.6838 108.943 73.0944 108.943ZM78.0406 108.074C77.8499 108.074 77.6886 108.008 77.5566 107.876C77.4246 107.744 77.3586 107.582 77.3586 107.392C77.3586 107.201 77.4246 107.04 77.5566 106.908C77.6886 106.776 77.8499 106.71 78.0406 106.71C78.2239 106.71 78.3779 106.776 78.5026 106.908C78.6346 107.04 78.7006 107.201 78.7006 107.392C78.7006 107.582 78.6346 107.744 78.5026 107.876C78.3779 108.008 78.2239 108.074 78.0406 108.074ZM78.5246 109.053V115.081H77.5236V109.053H78.5246ZM83.4976 108.943C84.2309 108.943 84.8249 109.166 85.2796 109.614C85.7343 110.054 85.9616 110.692 85.9616 111.528V115.081H84.9716V111.671C84.9716 111.069 84.8213 110.611 84.5206 110.296C84.2199 109.973 83.8093 109.812 83.2886 109.812C82.7606 109.812 82.3389 109.977 82.0236 110.307C81.7156 110.637 81.5616 111.117 81.5616 111.748V115.081H80.5606V109.053H81.5616V109.911C81.7596 109.603 82.0273 109.364 82.3646 109.196C82.7093 109.027 83.0869 108.943 83.4976 108.943ZM90.4127 108.954C90.9334 108.954 91.388 109.067 91.7767 109.295C92.1727 109.522 92.466 109.808 92.6567 110.153V109.053H93.6687V115.213C93.6687 115.763 93.5514 116.25 93.3167 116.676C93.082 117.108 92.7447 117.446 92.3047 117.688C91.872 117.93 91.366 118.051 90.7867 118.051C89.9947 118.051 89.3347 117.864 88.8067 117.49C88.2787 117.116 87.967 116.606 87.8717 115.961H88.8617C88.9717 116.327 89.199 116.621 89.5437 116.841C89.8884 117.068 90.3027 117.182 90.7867 117.182C91.3367 117.182 91.784 117.009 92.1287 116.665C92.4807 116.32 92.6567 115.836 92.6567 115.213V113.948C92.4587 114.3 92.1654 114.593 91.7767 114.828C91.388 115.062 90.9334 115.18 90.4127 115.18C89.8774 115.18 89.3897 115.048 88.9497 114.784C88.517 114.52 88.176 114.149 87.9267 113.673C87.6774 113.196 87.5527 112.653 87.5527 112.045C87.5527 111.429 87.6774 110.89 87.9267 110.428C88.176 109.958 88.517 109.595 88.9497 109.339C89.3897 109.082 89.8774 108.954 90.4127 108.954ZM92.6567 112.056C92.6567 111.601 92.565 111.205 92.3817 110.868C92.1984 110.53 91.949 110.274 91.6337 110.098C91.3257 109.914 90.9847 109.823 90.6107 109.823C90.2367 109.823 89.8957 109.911 89.5877 110.087C89.2797 110.263 89.034 110.519 88.8507 110.857C88.6674 111.194 88.5757 111.59 88.5757 112.045C88.5757 112.507 88.6674 112.91 88.8507 113.255C89.034 113.592 89.2797 113.852 89.5877 114.036C89.8957 114.212 90.2367 114.3 90.6107 114.3C90.9847 114.3 91.3257 114.212 91.6337 114.036C91.949 113.852 92.1984 113.592 92.3817 113.255C92.565 112.91 92.6567 112.51 92.6567 112.056Z" fill="white"></path>
                          <mask id="path-7-inside-2_1063_2725" fill="white">
                            <path d="M29.2766 44.331C28.5125 44.331 27.8894 44.9509 27.9276 45.7141C28.2145 51.4417 30.2785 57.0009 33.9096 61.7825C37.8324 66.9482 43.408 70.9743 49.9314 73.3518C56.4547 75.7293 63.6328 76.3514 70.558 75.1393C77.4832 73.9273 83.8443 70.9356 88.8371 66.5426C93.8299 62.1496 97.23 56.5525 98.6075 50.4592C99.985 44.3659 99.278 38.05 96.5759 32.3102C93.8739 26.5704 89.2981 21.6646 83.4272 18.213C77.8942 14.96 71.4451 13.1365 64.8105 12.9374C64.1385 12.9172 63.5932 13.4641 63.5932 14.1365V14.1365C63.5932 14.8088 64.1384 15.3518 64.8104 15.3737C70.8976 15.5717 76.8119 17.252 81.8899 20.2374C87.3057 23.4214 91.5268 27.9471 94.0194 33.2419C96.5121 38.5368 97.1642 44.3632 95.8935 49.9842C94.6228 55.6052 91.4862 60.7684 86.8804 64.821C82.2747 68.8735 76.4066 71.6333 70.0182 72.7514C63.6298 73.8695 57.008 73.2956 50.9903 71.1024C44.9726 68.9092 39.8291 65.1951 36.2104 60.4299C32.8833 56.0487 30.9825 50.9599 30.6977 45.714C30.6563 44.951 30.0407 44.331 29.2766 44.331V44.331Z"></path>
                          </mask>
                          <path d="M29.2766 44.331C28.5125 44.331 27.8894 44.9509 27.9276 45.7141C28.2145 51.4417 30.2785 57.0009 33.9096 61.7825C37.8324 66.9482 43.408 70.9743 49.9314 73.3518C56.4547 75.7293 63.6328 76.3514 70.558 75.1393C77.4832 73.9273 83.8443 70.9356 88.8371 66.5426C93.8299 62.1496 97.23 56.5525 98.6075 50.4592C99.985 44.3659 99.278 38.05 96.5759 32.3102C93.8739 26.5704 89.2981 21.6646 83.4272 18.213C77.8942 14.96 71.4451 13.1365 64.8105 12.9374C64.1385 12.9172 63.5932 13.4641 63.5932 14.1365V14.1365C63.5932 14.8088 64.1384 15.3518 64.8104 15.3737C70.8976 15.5717 76.8119 17.252 81.8899 20.2374C87.3057 23.4214 91.5268 27.9471 94.0194 33.2419C96.5121 38.5368 97.1642 44.3632 95.8935 49.9842C94.6228 55.6052 91.4862 60.7684 86.8804 64.821C82.2747 68.8735 76.4066 71.6333 70.0182 72.7514C63.6298 73.8695 57.008 73.2956 50.9903 71.1024C44.9726 68.9092 39.8291 65.1951 36.2104 60.4299C32.8833 56.0487 30.9825 50.9599 30.6977 45.714C30.6563 44.951 30.0407 44.331 29.2766 44.331V44.331Z" stroke="url(#paint3_linear_1063_2725)" stroke-width="6" mask="url(#path-7-inside-2_1063_2725)"></path>
                          <mask id="mask0_1063_2725" style="mask-type:alpha" maskUnits="userSpaceOnUse" x="27" y="12" width="73" height="64">
                            <mask id="path-8-inside-3_1063_2725" fill="white">
                              <path d="M35.4528 27.05C34.8262 26.6652 33.9451 26.819 33.5151 27.4109C29.4943 32.9443 27.5392 39.4583 27.946 46.0376C28.3791 53.041 31.4636 59.7154 36.708 64.9974C41.9524 70.2794 49.055 73.8651 56.8843 75.1832C64.7135 76.5013 72.8188 75.476 79.909 72.2706C86.9991 69.0653 92.666 63.8642 96.0069 57.4962C99.3478 51.1282 100.17 43.9596 98.3437 37.1325C96.5169 30.3054 92.146 24.2126 85.9272 19.8249C80.0772 15.6974 72.9087 13.3021 65.444 12.9613C64.6732 12.9261 64.0209 13.4972 64.0113 14.1884V14.1884C64.0023 14.8408 64.5717 15.3595 65.2992 15.3927C72.1858 15.7069 78.7992 17.9166 84.1961 21.7244C89.9329 25.772 93.965 31.3925 95.6502 37.6905C97.3353 43.9884 96.5765 50.6014 93.4945 56.4758C90.4126 62.3502 85.1849 67.1481 78.6443 70.105C72.1038 73.0619 64.6267 74.0078 57.4043 72.7918C50.1819 71.5759 43.6298 68.2681 38.7919 63.3955C33.954 58.523 31.1086 52.3659 30.7091 45.9053C30.3358 39.869 32.1178 33.8921 35.7863 28.8055C36.214 28.2124 36.0794 27.4348 35.4528 27.05V27.05Z"></path>
                            </mask>
                            <path d="M35.4528 27.05C34.8262 26.6652 33.9451 26.819 33.5151 27.4109C29.4943 32.9443 27.5392 39.4583 27.946 46.0376C28.3791 53.041 31.4636 59.7154 36.708 64.9974C41.9524 70.2794 49.055 73.8651 56.8843 75.1832C64.7135 76.5013 72.8188 75.476 79.909 72.2706C86.9991 69.0653 92.666 63.8642 96.0069 57.4962C99.3478 51.1282 100.17 43.9596 98.3437 37.1325C96.5169 30.3054 92.146 24.2126 85.9272 19.8249C80.0772 15.6974 72.9087 13.3021 65.444 12.9613C64.6732 12.9261 64.0209 13.4972 64.0113 14.1884V14.1884C64.0023 14.8408 64.5717 15.3595 65.2992 15.3927C72.1858 15.7069 78.7992 17.9166 84.1961 21.7244C89.9329 25.772 93.965 31.3925 95.6502 37.6905C97.3353 43.9884 96.5765 50.6014 93.4945 56.4758C90.4126 62.3502 85.1849 67.1481 78.6443 70.105C72.1038 73.0619 64.6267 74.0078 57.4043 72.7918C50.1819 71.5759 43.6298 68.2681 38.7919 63.3955C33.954 58.523 31.1086 52.3659 30.7091 45.9053C30.3358 39.869 32.1178 33.8921 35.7863 28.8055C36.214 28.2124 36.0794 27.4348 35.4528 27.05V27.05Z" stroke="url(#paint4_linear_1063_2725)" stroke-width="6" mask="url(#path-8-inside-3_1063_2725)"></path>
                          </mask>
                          <g mask="url(#mask0_1063_2725)">
                            <g filter="url(#filter3_f_1063_2725)">
                              <ellipse cx="29.7003" cy="36.776" rx="17.1723" ry="15.1095" fill="white"></ellipse>
                            </g>
                            <g filter="url(#filter4_f_1063_2725)">
                              <ellipse cx="29.7006" cy="39.1619" rx="9.94183" ry="8.74762" fill="#92E3FF"></ellipse>
                            </g>
                          </g>
                          <defs>
                            <filter id="filter0_f_1063_2725" x="0.986328" y="6" width="125.283" height="151" filterUnits="userSpaceOnUse" color-interpolation-filters="sRGB">
                              <feFlood flood-opacity="0" result="BackgroundImageFix"></feFlood>
                              <feBlend mode="normal" in="SourceGraphic" in2="BackgroundImageFix" result="shape"></feBlend>
                              <feGaussianBlur stdDeviation="12" result="effect1_foregroundBlur_1063_2725"></feGaussianBlur>
                            </filter>
                            <filter id="filter1_b_1063_2725" x="12.1436" y="-1.41919" width="102.899" height="131.262" filterUnits="userSpaceOnUse" color-interpolation-filters="sRGB">
                              <feFlood flood-opacity="0" result="BackgroundImageFix"></feFlood>
                              <feGaussianBlur in="BackgroundImage" stdDeviation="2"></feGaussianBlur>
                              <feComposite in2="SourceAlpha" operator="in" result="effect1_backgroundBlur_1063_2725"></feComposite>
                              <feBlend mode="normal" in="SourceGraphic" in2="effect1_backgroundBlur_1063_2725" result="shape"></feBlend>
                            </filter>
                            <filter id="filter2_f_1063_2725" x="21.926" y="12.5034" width="83.3674" height="74.8062" filterUnits="userSpaceOnUse" color-interpolation-filters="sRGB">
                              <feFlood flood-opacity="0" result="BackgroundImageFix"></feFlood>
                              <feBlend mode="normal" in="SourceGraphic" in2="BackgroundImageFix" result="shape"></feBlend>
                              <feGaussianBlur stdDeviation="3" result="effect1_foregroundBlur_1063_2725"></feGaussianBlur>
                            </filter>
                            <filter id="filter3_f_1063_2725" x="-1.47192" y="7.6665" width="62.3445" height="58.219" filterUnits="userSpaceOnUse" color-interpolation-filters="sRGB">
                              <feFlood flood-opacity="0" result="BackgroundImageFix"></feFlood>
                              <feBlend mode="normal" in="SourceGraphic" in2="BackgroundImageFix" result="shape"></feBlend>
                              <feGaussianBlur stdDeviation="7" result="effect1_foregroundBlur_1063_2725"></feGaussianBlur>
                            </filter>
                            <filter id="filter4_f_1063_2725" x="5.75879" y="16.4143" width="47.8838" height="45.4954" filterUnits="userSpaceOnUse" color-interpolation-filters="sRGB">
                              <feFlood flood-opacity="0" result="BackgroundImageFix"></feFlood>
                              <feBlend mode="normal" in="SourceGraphic" in2="BackgroundImageFix" result="shape"></feBlend>
                              <feGaussianBlur stdDeviation="7" result="effect1_foregroundBlur_1063_2725"></feGaussianBlur>
                            </filter>
                            <linearGradient id="paint0_linear_1063_2725" x1="77.9806" y1="71.2" x2="-28.98" y2="247.145" gradientUnits="userSpaceOnUse">
                              <stop offset="0.177306" stop-color="#85C2D7"></stop>
                              <stop offset="1" stop-color="#2D2DDA"></stop>
                            </linearGradient>
                            <linearGradient id="paint1_linear_1063_2725" x1="36.931" y1="51.8856" x2="198.26" y2="51.8856" gradientUnits="userSpaceOnUse">
                              <stop offset="0.0284675" stop-color="#211530"></stop>
                              <stop offset="0.900819" stop-color="#17282E" stop-opacity="0.04"></stop>
                            </linearGradient>
                            <linearGradient id="paint2_linear_1063_2725" x1="71.7275" y1="70.1762" x2="65.7333" y2="34.11" gradientUnits="userSpaceOnUse">
                              <stop stop-color="#4C9EBB"></stop>
                              <stop offset="0.353335" stop-color="#4C9EBB"></stop>
                              <stop offset="0.823484" stop-color="#4C9EBB" stop-opacity="0"></stop>
                            </linearGradient>
                            <linearGradient id="paint3_linear_1063_2725" x1="48.2286" y1="50.6929" x2="60.8132" y2="11.8714" gradientUnits="userSpaceOnUse">
                              <stop stop-color="#56D4FF"></stop>
                              <stop offset="1" stop-color="#85C2D7" stop-opacity="0"></stop>
                            </linearGradient>
                            <linearGradient id="paint4_linear_1063_2725" x1="46.8559" y1="41.8107" x2="81.1297" y2="14.6744" gradientUnits="userSpaceOnUse">
                              <stop stop-color="#E67662"></stop>
                              <stop offset="1" stop-color="#E67662" stop-opacity="0"></stop>
                            </linearGradient>
                          </defs>
                        </svg>