<svg width="45" height="51" viewBox="0 0 45 51" fill="none" xmlns="http://www.w3.org/2000/svg">
<path d="M39.7286 0.302612H5.27143C2.36571 0.302612 0 2.60869 0 5.46621V39.3555C0 42.213 2.36571 44.5191 5.27143 44.5191H34.4314L33.0686 39.8819L36.36 42.8647L39.4714 45.6721L45 50.4347V5.46621C45 2.60869 42.6343 0.302612 39.7286 0.302612ZM29.8029 33.0388C29.8029 33.0388 28.8771 31.961 28.1057 31.0085C31.4743 30.081 32.76 28.0256 32.76 28.0256C31.7057 28.7024 30.7029 29.1787 29.8029 29.5045C28.5171 30.0309 27.2829 30.3818 26.0743 30.5824C23.6057 31.0336 21.3429 30.9082 19.4143 30.5573C17.9486 30.2816 16.6886 29.8805 15.6343 29.4795C15.0429 29.2539 14.4 28.9781 13.7571 28.6272C13.68 28.5771 13.6029 28.552 13.5257 28.5019C13.4743 28.4768 13.4486 28.4518 13.4229 28.4267C12.96 28.176 12.7029 28.0006 12.7029 28.0006C12.7029 28.0006 13.9371 30.0058 17.2029 30.9584C16.4314 31.9109 15.48 33.0388 15.48 33.0388C9.79714 32.8634 7.63714 29.2288 7.63714 29.2288C7.63714 21.1575 11.34 14.6153 11.34 14.6153C15.0429 11.9082 18.5657 11.9834 18.5657 11.9834L18.8229 12.2842C14.1943 13.5876 12.06 15.5678 12.06 15.5678C12.06 15.5678 12.6257 15.267 13.5771 14.8409C16.3286 13.6628 18.5143 13.3369 19.4143 13.2617C19.5686 13.2367 19.6971 13.2116 19.8514 13.2116C21.42 13.0111 23.1943 12.961 25.0457 13.1615C27.4886 13.4372 30.1114 14.1391 32.7857 15.5678C32.7857 15.5678 30.7543 13.6879 26.3829 12.3844L26.7429 11.9834C26.7429 11.9834 30.2657 11.9082 33.9686 14.6153C33.9686 14.6153 37.6714 21.1575 37.6714 29.2288C37.6714 29.2288 35.4857 32.8634 29.8029 33.0388ZM17.8457 21.333C16.38 21.333 15.2229 22.5863 15.2229 24.1153C15.2229 25.6444 16.4057 26.8977 17.8457 26.8977C19.3114 26.8977 20.4686 25.6444 20.4686 24.1153C20.4943 22.5863 19.3114 21.333 17.8457 21.333ZM27.2314 21.333C25.7657 21.333 24.6086 22.5863 24.6086 24.1153C24.6086 25.6444 25.7914 26.8977 27.2314 26.8977C28.6971 26.8977 29.8543 25.6444 29.8543 24.1153C29.8543 22.5863 28.6971 21.333 27.2314 21.333Z" fill="#7289DA"/>
</svg>
