<svg width="52" height="42" viewBox="0 0 52 42" fill="none" xmlns="http://www.w3.org/2000/svg">
<path d="M46.3827 10.4537C46.4141 10.8977 46.4141 11.3418 46.4141 11.7899C46.4141 25.445 35.75 41.1934 16.2502 41.1934V41.1852C10.4899 41.1934 4.84924 39.585 0 36.5524C0.837596 36.6506 1.67939 36.6997 2.52328 36.7017C7.29695 36.7058 11.9342 35.1445 15.6897 32.2694C11.1532 32.1855 7.17519 29.3023 5.7855 25.093C7.37462 25.3918 9.01203 25.3304 10.5718 24.915C5.62596 23.9409 2.06775 19.7051 2.06775 14.7857C2.06775 14.7407 2.06775 14.6977 2.06775 14.6547C3.54141 15.4549 5.19141 15.8989 6.8792 15.948C2.22099 12.9133 0.785115 6.87261 3.59809 2.14972C8.98054 8.60584 16.922 12.5307 25.447 12.9461C24.5926 9.35684 25.7597 5.59571 28.5139 3.07261C32.7838 -0.839947 39.4993 -0.639408 43.513 3.52075C45.8872 3.06442 48.1628 2.2152 50.2453 1.01197C49.4538 3.40411 47.7975 5.4361 45.5849 6.72733C47.6863 6.48586 49.7393 5.93745 51.6727 5.1005C50.2494 7.17956 48.4567 8.99055 46.3827 10.4537Z" fill="#1D9BF0"/>
</svg>
