<svg width="45" height="52" viewBox="0 0 45 52" fill="none" xmlns="http://www.w3.org/2000/svg">
<path d="M39.7286 0H5.27143C2.36571 0 0 2.36571 0 5.29714V40.0629C0 42.9943 2.36571 45.36 5.27143 45.36H34.4314L33.0686 40.6029L36.36 43.6629L39.4714 46.5429L45 51.4286V5.29714C45 2.36571 42.6343 0 39.7286 0ZM29.8029 33.5829C29.8029 33.5829 28.8771 32.4771 28.1057 31.5C31.4743 30.5486 32.76 28.44 32.76 28.44C31.7057 29.1343 30.7029 29.6229 29.8029 29.9571C28.5171 30.4971 27.2829 30.8571 26.0743 31.0629C23.6057 31.5257 21.3429 31.3971 19.4143 31.0371C17.9486 30.7543 16.6886 30.3429 15.6343 29.9314C15.0429 29.7 14.4 29.4171 13.7571 29.0571C13.68 29.0057 13.6029 28.98 13.5257 28.9286C13.4743 28.9029 13.4486 28.8771 13.4229 28.8514C12.96 28.5943 12.7029 28.4143 12.7029 28.4143C12.7029 28.4143 13.9371 30.4714 17.2029 31.4486C16.4314 32.4257 15.48 33.5829 15.48 33.5829C9.79714 33.4029 7.63714 29.6743 7.63714 29.6743C7.63714 21.3943 11.34 14.6829 11.34 14.6829C15.0429 11.9057 18.5657 11.9829 18.5657 11.9829L18.8229 12.2914C14.1943 13.6286 12.06 15.66 12.06 15.66C12.06 15.66 12.6257 15.3514 13.5771 14.9143C16.3286 13.7057 18.5143 13.3714 19.4143 13.2943C19.5686 13.2686 19.6971 13.2429 19.8514 13.2429C21.42 13.0371 23.1943 12.9857 25.0457 13.1914C27.4886 13.4743 30.1114 14.1943 32.7857 15.66C32.7857 15.66 30.7543 13.7314 26.3829 12.3943L26.7429 11.9829C26.7429 11.9829 30.2657 11.9057 33.9686 14.6829C33.9686 14.6829 37.6714 21.3943 37.6714 29.6743C37.6714 29.6743 35.4857 33.4029 29.8029 33.5829ZM17.8457 21.5743C16.38 21.5743 15.2229 22.86 15.2229 24.4286C15.2229 25.9971 16.4057 27.2829 17.8457 27.2829C19.3114 27.2829 20.4686 25.9971 20.4686 24.4286C20.4943 22.86 19.3114 21.5743 17.8457 21.5743ZM27.2314 21.5743C25.7657 21.5743 24.6086 22.86 24.6086 24.4286C24.6086 25.9971 25.7914 27.2829 27.2314 27.2829C28.6971 27.2829 29.8543 25.9971 29.8543 24.4286C29.8543 22.86 28.6971 21.5743 27.2314 21.5743Z" fill="#7289DA"/>
</svg>
