<svg width="65" height="65" viewBox="0 0 65 65" fill="none" xmlns="http://www.w3.org/2000/svg">
<path d="M48.75 48.75C57.7246 39.7754 57.7246 25.2246 48.75 16.25C39.7754 7.27537 25.2246 7.27537 16.25 16.25C7.27537 25.2246 7.27537 39.7754 16.25 48.75C25.2246 57.7246 39.7754 57.7246 48.75 48.75Z" fill="url(#paint0_linear_2_546)"/>
<path d="M43.6828 22.7383L39.5779 43.4331C39.5779 43.4331 39.0044 44.8685 37.4252 44.1796L27.9531 36.918L24.5087 35.2526L18.7109 33.3014C18.7109 33.3014 17.8214 32.9854 17.7353 32.2965C17.6492 31.6076 18.7394 31.2347 18.7394 31.2347L41.7883 22.1932C41.7883 22.1932 43.6828 21.3605 43.6828 22.7383Z" fill="white"/>
<path d="M27.2251 43.2016C27.2251 43.2016 26.9487 43.1749 26.6042 42.0822C26.2598 40.9895 24.5083 35.2502 24.5083 35.2502L38.4297 26.4128C38.4297 26.4128 39.2331 25.9246 39.2047 26.4128C39.2047 26.4128 39.3485 26.4989 38.9179 26.9002C38.4874 27.3015 27.982 36.746 27.982 36.746" fill="#D3E6F2"/>
<path d="M31.5848 39.7019L27.8382 43.1179C27.8382 43.1179 27.5454 43.34 27.2251 43.204L27.9467 36.856" fill="#B6D0E5"/>
<defs>
<linearGradient id="paint0_linear_2_546" x1="32.4997" y1="9.51874" x2="32.4997" y2="55.3136" gradientUnits="userSpaceOnUse">
<stop stop-color="#42BDE9"/>
<stop offset="1" stop-color="#23A8DD"/>
</linearGradient>
</defs>
</svg>
