<svg width="450" height="450" viewBox="0 0 450 450" fill="none" xmlns="http://www.w3.org/2000/svg">
<path d="M225 448.097C348.213 448.097 448.097 348.213 448.097 225C448.097 101.787 348.213 1.90283 225 1.90283C101.787 1.90283 1.90283 101.787 1.90283 225C1.90283 348.213 101.787 448.097 225 448.097Z" fill="#EB8367"/>
<g style="mix-blend-mode:hard-light">
<g style="mix-blend-mode:hard-light">
<path d="M448.089 225C448.178 254.321 442.468 283.371 431.288 310.477C420.109 337.584 403.679 362.212 382.946 382.946C362.212 403.679 337.584 420.108 310.477 431.288C283.371 442.468 254.321 448.178 225 448.089C101.791 448.089 1.90283 348.252 1.90283 225C1.90283 225 187.25 123.448 448.089 225Z" fill="#7C77FF"/>
</g>
</g>
<path d="M435.562 242.339C435.562 261.189 340.435 274.765 223.089 274.765C105.742 274.765 10.6152 261.189 10.6152 242.339C10.6152 223.49 107.303 192.421 224.65 192.421C341.997 192.421 435.562 223.49 435.562 242.339Z" fill="#7C77FF"/>
<path d="M225 450C349.264 450 450 349.264 450 225C450 100.736 349.264 0 225 0C100.736 0 0 100.736 0 225C0 349.264 100.736 450 225 450Z" fill="url(#paint0_radial_2_610)"/>
<defs>
<radialGradient id="paint0_radial_2_610" cx="0" cy="0" r="1" gradientUnits="userSpaceOnUse" gradientTransform="translate(223.072 21.8873) scale(279.475)">
<stop stop-color="white"/>
<stop offset="1" stop-color="white" stop-opacity="0"/>
</radialGradient>
</defs>
</svg>
