<?xml version="1.0" standalone="no"?>
<!DOCTYPE svg PUBLIC "-//W3C//DTD SVG 20010904//EN"
 "http://www.w3.org/TR/2001/REC-SVG-20010904/DTD/svg10.dtd">
<svg version="1.0" xmlns="http://www.w3.org/2000/svg"
 width="2050.000000pt" height="2048.000000pt" viewBox="0 0 2050.000000 2048.000000"
 preserveAspectRatio="xMidYMid meet">

<g transform="translate(0.000000,2048.000000) scale(0.100000,-0.100000)"
fill="#000000" stroke="none">
<path d="M10020 15229 c-1492 -63 -2886 -802 -3783 -2004 -577 -772 -907
-1659 -983 -2637 l-6 -88 36 0 c31 0 36 3 36 23 1 108 40 441 75 634 342 1873
1759 3387 3610 3858 920 235 1888 197 2790 -108 402 -136 842 -355 1175 -585
542 -373 973 -809 1324 -1337 308 -462 528 -951 665 -1475 74 -285 130 -629
147 -897 l7 -113 63 0 c55 0 64 2 64 18 0 41 -31 344 -46 442 -184 1253 -843
2395 -1839 3187 -738 586 -1622 952 -2557 1058 -115 13 -560 38 -593 33 -5 0
-89 -4 -185 -9z"/>
<path d="M10084 14803 c-239 -272 -828 -945 -1114 -1273 -151 -173 -375 -426
-497 -562 -122 -136 -266 -300 -320 -365 -440 -528 -753 -1083 -898 -1588 -56
-198 -95 -419 -95 -542 l0 -53 379 0 378 0 7 67 c26 250 144 613 289 883 150
282 324 525 616 865 471 548 1394 1594 1410 1600 10 3 26 3 35 -1 9 -3 251
-274 539 -602 1109 -1267 1122 -1282 1308 -1562 131 -195 268 -466 332 -655
43 -127 109 -371 121 -450 4 -22 11 -64 17 -92 l10 -53 374 0 374 0 -5 73
c-26 361 -136 742 -325 1118 -182 364 -426 705 -893 1249 -284 330 -1607 1839
-1791 2043 -82 90 -85 89 -251 -100z"/>
<path d="M9627 14790 c-1514 -201 -2816 -1129 -3501 -2497 -256 -511 -426
-1134 -462 -1685 l-7 -107 166 -3 167 -3 4 40 c3 22 12 111 20 197 98 978 585
1948 1316 2624 232 215 548 447 806 593 382 215 849 387 1264 466 l95 18 140
159 c77 88 150 173 163 189 l23 29 -28 -1 c-15 0 -90 -9 -166 -19z"/>
<path d="M10706 14789 c4 -6 76 -91 161 -188 174 -197 146 -179 363 -231 167
-39 444 -130 610 -199 1131 -473 2003 -1410 2390 -2570 106 -318 167 -627 205
-1033 l7 -68 165 0 166 0 -7 109 c-32 541 -206 1171 -463 1685 -544 1087
-1498 1917 -2644 2300 -244 81 -475 137 -759 181 -175 28 -204 30 -194 14z"/>
<path d="M8940 13941 c-712 -253 -1304 -673 -1769 -1256 -466 -584 -748 -1276
-827 -2027 -13 -124 -13 -152 -2 -159 7 -5 126 -9 265 -9 l252 0 5 33 c3 17
10 82 16 142 30 285 122 631 242 915 216 509 566 967 1005 1318 80 64 197 193
886 980 67 77 93 112 80 111 -10 0 -79 -22 -153 -48z"/>
<path d="M11738 13608 c170 -194 406 -468 526 -608 121 -140 249 -282 285
-316 188 -174 439 -497 583 -749 236 -414 379 -868 428 -1354 15 -151 12 -514
-5 -671 -102 -928 -577 -1761 -1321 -2321 -693 -521 -1538 -750 -2404 -653
-1125 127 -2111 818 -2622 1839 -229 456 -348 950 -349 1451 l-1 164 -264 0
-264 0 -1 -57 c-4 -265 9 -448 47 -683 179 -1114 838 -2096 1808 -2695 402
-248 896 -435 1356 -514 252 -43 396 -55 675 -55 292 0 458 15 705 60 1657
306 2933 1646 3155 3314 30 227 46 607 27 637 -5 8 -42 13 -97 16 l-90 3 94 2
94 2 -6 128 c-30 588 -252 1265 -588 1790 -172 270 -321 455 -549 682 -406
406 -907 723 -1433 909 -49 17 -91 31 -93 31 -2 0 135 -159 304 -352z"/>
<path d="M10045 11805 c-286 -45 -510 -159 -716 -365 -241 -241 -380 -565
-383 -895 l-1 -120 378 -3 377 -2 0 86 c0 161 50 283 160 394 103 104 253 170
390 170 134 0 290 -64 383 -157 110 -109 160 -232 161 -395 l1 -98 378 0 377
0 1 43 c6 248 -36 447 -139 649 -67 131 -130 217 -242 328 -250 250 -574 382
-930 379 -63 -1 -151 -7 -195 -14z"/>
<path d="M7157 10393 c-10 -10 -8 -169 4 -327 43 -565 234 -1062 576 -1501
437 -561 1007 -907 1649 -1001 144 -21 454 -24 594 -6 313 42 577 137 805 290
378 254 631 638 724 1097 39 196 45 299 45 885 l1 565 -383 0 -383 0 -23 -66
c-59 -170 -199 -299 -373 -344 -75 -20 -215 -19 -284 1 -178 52 -332 197 -383
358 l-18 56 -379 0 -379 0 0 -29 c0 -50 27 -175 59 -270 154 -459 565 -804
1044 -875 198 -30 358 -17 601 48 l129 34 -6 -106 c-11 -211 -101 -422 -251
-589 -202 -225 -628 -359 -994 -313 -342 43 -701 227 -994 509 -183 176 -299
330 -407 540 -139 271 -207 541 -218 874 l-6 177 -372 0 c-204 0 -375 -3 -378
-7z"/>
<path d="M12597 10238 c-14 -387 -118 -733 -319 -1068 -92 -153 -190 -279
-342 -439 -143 -150 -178 -203 -196 -301 -28 -150 70 -329 217 -398 51 -24 70
-27 158 -27 143 0 184 23 343 192 224 238 367 421 494 636 260 438 398 929
398 1414 l0 153 -374 0 -373 0 -6 -162z"/>
<path d="M5247 10353 c-7 -51 1 -361 13 -508 49 -594 194 -1147 442 -1689 75
-164 246 -481 267 -496 4 -3 10 -13 14 -22 3 -10 13 -18 22 -18 8 0 15 -9 15
-20 0 -13 7 -20 20 -20 13 0 20 -7 20 -20 0 -13 7 -20 20 -20 13 0 20 -7 20
-20 0 -14 7 -20 21 -20 12 0 23 -8 26 -19 3 -11 13 -21 24 -24 11 -3 19 -14
19 -26 0 -14 6 -21 20 -21 13 0 20 -7 20 -20 0 -11 7 -20 15 -20 8 0 -23 54
-81 140 -449 660 -728 1409 -819 2195 -17 155 -35 440 -35 583 l0 102 -29 0
c-26 0 -29 -4 -34 -37z"/>
<path d="M5650 10283 c1 -1213 482 -2375 1335 -3228 1070 -1069 2564 -1537
4055 -1269 1204 217 2292 935 2978 1966 289 434 502 915 627 1423 84 337 122
621 132 988 l6 227 -170 0 -170 0 -6 -252 c-6 -275 -26 -459 -77 -708 -241
-1188 -982 -2215 -2042 -2826 -1101 -636 -2466 -736 -3653 -267 -813 321
-1511 890 -1989 1621 -361 550 -574 1138 -662 1822 -8 69 -18 234 -21 368 l-6
242 -168 0 -169 0 0 -107z"/>
<path d="M15116 10173 c-25 -795 -195 -1468 -540 -2138 -747 -1453 -2153
-2432 -3776 -2630 -68 -8 -130 -15 -137 -15 -7 0 -13 -4 -13 -10 0 -6 126 -10
358 -10 l357 0 154 40 c1258 329 2348 1150 3026 2280 106 178 274 517 349 705
160 407 271 849 320 1278 20 169 38 512 34 627 l-3 85 -61 3 -61 3 -7 -218z"/>
<path d="M6270 7340 c0 -5 5 -10 11 -10 5 0 7 5 4 10 -3 6 -8 10 -11 10 -2 0
-4 -4 -4 -10z"/>
</g>
</svg>
