<?xml version="1.0" encoding="UTF-8"?>
<svg xmlns="http://www.w3.org/2000/svg" xmlns:xlink="http://www.w3.org/1999/xlink" width="65px" height="65px" viewBox="0 0 49 49" version="1.1">
<defs>
<linearGradient id="linear0" gradientUnits="userSpaceOnUse" x1="7.02441" y1="32.8197" x2="57.5944" y2="32.8197" gradientTransform="matrix(0.753846,0,0,0.753846,0,0)">
<stop offset="0.02" style="stop-color:rgb(96.470588%,20.784314%,28.235294%);stop-opacity:1;"/>
<stop offset="0.98" style="stop-color:rgb(57.647059%,0%,66.27451%);stop-opacity:1;"/>
</linearGradient>
<linearGradient id="linear1" gradientUnits="userSpaceOnUse" x1="2422.71" y1="29481.9" x2="56550.1" y2="29481.9" gradientTransform="matrix(0.753846,0,0,0.753846,0,0)">
<stop offset="0.02" style="stop-color:rgb(96.470588%,20.784314%,28.235294%);stop-opacity:1;"/>
<stop offset="0.98" style="stop-color:rgb(57.647059%,0%,66.27451%);stop-opacity:1;"/>
</linearGradient>
<linearGradient id="linear2" gradientUnits="userSpaceOnUse" x1="0" y1="32500" x2="65000" y2="32500" gradientTransform="matrix(0.753846,0,0,0.753846,0,0)">
<stop offset="0.02" style="stop-color:rgb(96.470588%,20.784314%,28.235294%);stop-opacity:1;"/>
<stop offset="0.98" style="stop-color:rgb(57.647059%,0%,66.27451%);stop-opacity:1;"/>
</linearGradient>
<linearGradient id="linear3" gradientUnits="userSpaceOnUse" x1="29415.7" y1="10438.7" x2="8644.61" y2="31264" gradientTransform="matrix(0.753846,0,0,0.753846,0,0)">
<stop offset="0.02" style="stop-color:rgb(96.470588%,20.784314%,28.235294%);stop-opacity:1;"/>
<stop offset="0.98" style="stop-color:rgb(57.647059%,0%,66.27451%);stop-opacity:1;"/>
</linearGradient>
</defs>
<g id="surface1">
<path style=" stroke:none;fill-rule:nonzero;fill:url(#linear0);" d="M 5.296875 24.355469 C 5.296875 34.867188 13.847656 43.417969 24.355469 43.417969 C 34.867188 43.417969 43.417969 34.867188 43.417969 24.355469 C 43.417969 15.90625 37.886719 8.726562 30.257812 6.234375 C 31.300781 7.421875 32.351562 8.621094 33.386719 9.816406 L 33.667969 10.144531 C 34.253906 10.820312 34.84375 11.503906 35.429688 12.207031 C 37.121094 13.746094 38.472656 15.621094 39.398438 17.714844 C 40.320312 19.804688 40.796875 22.070312 40.792969 24.355469 C 40.792969 33.433594 33.433594 40.792969 24.355469 40.792969 C 15.277344 40.792969 7.917969 33.433594 7.917969 24.355469 C 7.917969 19.003906 10.480469 14.25 14.441406 11.246094 C 14.53125 11.144531 14.621094 11.042969 14.714844 10.941406 C 16.140625 9.371094 17.558594 7.734375 18.929688 6.152344 C 18.953125 6.125 18.980469 6.09375 19.003906 6.066406 C 11.09375 8.382812 5.296875 15.703125 5.296875 24.355469 Z M 5.296875 24.355469 "/>
<path style=" stroke:none;fill-rule:nonzero;fill:url(#linear1);" d="M 26.636719 2.113281 C 27.203125 2.761719 27.773438 3.40625 28.339844 4.054688 C 37.859375 5.910156 45.042969 14.292969 45.042969 24.355469 C 45.042969 35.78125 35.785156 45.042969 24.355469 45.042969 C 12.929688 45.042969 3.667969 35.785156 3.667969 24.355469 C 3.667969 14.132812 11.085938 5.640625 20.832031 3.96875 C 21.152344 3.605469 21.472656 3.238281 21.792969 2.875 C 22.027344 2.609375 22.257812 2.34375 22.492188 2.078125 C 11.03125 3.03125 2 12.65625 2 24.355469 C 2 36.683594 12.027344 46.714844 24.355469 46.714844 C 36.683594 46.714844 46.714844 36.683594 46.714844 24.355469 C 46.714844 12.796875 37.898438 3.261719 26.636719 2.113281 Z M 26.636719 2.113281 "/>
<path style=" stroke:none;fill-rule:nonzero;fill:url(#linear2);" d="M 24.5 0 C 10.992188 0 0 10.992188 0 24.5 C 0 38.007812 10.992188 49 24.5 49 C 38.007812 49 49 38.007812 49 24.5 C 49 10.992188 38.007812 0 24.5 0 Z M 24.355469 48.339844 C 11.113281 48.339844 0.375 37.601562 0.375 24.355469 C 0.375 11.109375 11.113281 0.375 24.355469 0.375 C 37.601562 0.375 48.339844 11.113281 48.339844 24.355469 C 48.339844 37.601562 37.601562 48.339844 24.355469 48.339844 Z M 24.355469 48.339844 "/>
<path style=" stroke:none;fill-rule:nonzero;fill:url(#linear3);" d="M 27.125 29.078125 C 26.582031 29.214844 26.074219 29.378906 25.554688 29.46875 C 22.796875 29.929688 20.113281 28.5625 18.808594 26.054688 C 16.878906 22.34375 19.121094 17.683594 23.226562 16.871094 C 27.238281 16.074219 30.902344 19.054688 30.917969 23.136719 C 30.929688 25.078125 30.972656 27.023438 30.910156 28.960938 C 30.820312 31.738281 29.851562 34.140625 27.601562 35.90625 C 26.316406 36.917969 24.824219 37.453125 23.21875 37.644531 C 21.113281 37.90625 18.976562 37.566406 17.058594 36.664062 C 15.148438 35.777344 13.589844 34.441406 12.289062 32.808594 C 10.222656 30.21875 9.289062 27.214844 9.351562 23.925781 C 9.398438 21.578125 10.148438 19.402344 11.238281 17.339844 C 12.359375 15.222656 13.808594 13.351562 15.417969 11.578125 C 17.496094 9.292969 19.496094 6.9375 21.53125 4.613281 C 22.429688 3.585938 23.335938 2.566406 24.226562 1.535156 C 24.472656 1.253906 24.636719 1.285156 24.871094 1.554688 C 27.46875 4.519531 30.085938 7.464844 32.664062 10.441406 C 33.953125 11.929688 35.257812 13.414062 36.402344 15.011719 C 38.40625 17.808594 39.753906 20.902344 39.722656 24.417969 C 39.699219 27.277344 38.820312 29.917969 37.203125 32.273438 C 36.554688 33.21875 35.765625 34.070312 34.980469 34.90625 C 34.242188 35.691406 33.074219 35.683594 32.375 34.976562 C 31.578125 34.164062 31.574219 33.074219 32.410156 32.269531 C 34.625 30.148438 35.882812 27.546875 36.027344 24.507812 C 36.078125 23.375 35.773438 22.1875 35.433594 21.082031 C 34.730469 18.800781 33.386719 16.867188 31.839844 15.078125 C 29.550781 12.429688 27.230469 9.804688 24.929688 7.171875 C 24.585938 6.777344 24.507812 6.777344 24.164062 7.171875 C 21.914062 9.75 19.644531 12.320312 17.410156 14.914062 C 15.574219 17.042969 14.011719 19.347656 13.347656 22.136719 C 12.351562 26.324219 14.179688 30.773438 18.171875 33.027344 C 20.296875 34.226562 22.574219 34.441406 24.835938 33.273438 C 26.296875 32.519531 27.207031 30.6875 27.125 29.078125 Z M 27.199219 23.160156 C 27.207031 21.628906 26.070312 20.464844 24.558594 20.449219 C 23.0625 20.4375 21.824219 21.65625 21.824219 23.144531 C 21.824219 24.613281 23.042969 25.824219 24.523438 25.832031 C 26.03125 25.84375 27.191406 24.679688 27.199219 23.160156 Z M 27.199219 23.160156 "/>
</g>
</svg>
