<?xml version="1.0" encoding="UTF-8"?>
<svg xmlns="http://www.w3.org/2000/svg" xmlns:xlink="http://www.w3.org/1999/xlink" width="45px" height="45px" viewBox="0 0 45 45" version="1.1">
<defs>
<linearGradient id="linear0" gradientUnits="userSpaceOnUse" x1="7.02441" y1="32.8197" x2="57.5944" y2="32.8197" gradientTransform="matrix(0.692308,0,0,0.692308,0,0)">
<stop offset="0.02" style="stop-color:rgb(96.470588%,20.784314%,28.235294%);stop-opacity:1;"/>
<stop offset="0.98" style="stop-color:rgb(57.647059%,0%,66.27451%);stop-opacity:1;"/>
</linearGradient>
<linearGradient id="linear1" gradientUnits="userSpaceOnUse" x1="2422.71" y1="29481.9" x2="56550.1" y2="29481.9" gradientTransform="matrix(0.692308,0,0,0.692308,0,0)">
<stop offset="0.02" style="stop-color:rgb(96.470588%,20.784314%,28.235294%);stop-opacity:1;"/>
<stop offset="0.98" style="stop-color:rgb(57.647059%,0%,66.27451%);stop-opacity:1;"/>
</linearGradient>
<linearGradient id="linear2" gradientUnits="userSpaceOnUse" x1="0" y1="32500" x2="65000" y2="32500" gradientTransform="matrix(0.692308,0,0,0.692308,0,0)">
<stop offset="0.02" style="stop-color:rgb(96.470588%,20.784314%,28.235294%);stop-opacity:1;"/>
<stop offset="0.98" style="stop-color:rgb(57.647059%,0%,66.27451%);stop-opacity:1;"/>
</linearGradient>
<linearGradient id="linear3" gradientUnits="userSpaceOnUse" x1="29415.7" y1="10438.7" x2="8644.61" y2="31264" gradientTransform="matrix(0.692308,0,0,0.692308,0,0)">
<stop offset="0.02" style="stop-color:rgb(96.470588%,20.784314%,28.235294%);stop-opacity:1;"/>
<stop offset="0.98" style="stop-color:rgb(57.647059%,0%,66.27451%);stop-opacity:1;"/>
</linearGradient>
</defs>
<g id="surface1">
<path style=" stroke:none;fill-rule:nonzero;fill:url(#linear0);" d="M 4.863281 22.367188 C 4.863281 32.019531 12.71875 39.875 22.367188 39.875 C 32.019531 39.875 39.875 32.019531 39.875 22.367188 C 39.875 14.609375 34.792969 8.015625 27.789062 5.726562 C 28.746094 6.816406 29.710938 7.917969 30.660156 9.015625 L 30.917969 9.316406 C 31.457031 9.9375 32 10.566406 32.539062 11.210938 C 34.089844 12.625 35.332031 14.347656 36.183594 16.269531 C 37.027344 18.1875 37.464844 20.269531 37.464844 22.367188 C 37.464844 30.703125 30.703125 37.464844 22.367188 37.464844 C 14.03125 37.464844 7.273438 30.703125 7.273438 22.367188 C 7.273438 17.453125 9.625 13.085938 13.261719 10.328125 C 13.34375 10.234375 13.425781 10.140625 13.511719 10.046875 C 14.824219 8.605469 16.125 7.101562 17.382812 5.648438 C 17.40625 5.625 17.429688 5.597656 17.453125 5.570312 C 10.1875 7.699219 4.863281 14.421875 4.863281 22.367188 Z M 4.863281 22.367188 "/>
<path style=" stroke:none;fill-rule:nonzero;fill:url(#linear1);" d="M 24.460938 1.941406 C 24.984375 2.535156 25.507812 3.128906 26.027344 3.722656 C 34.769531 5.425781 41.367188 13.125 41.367188 22.367188 C 41.367188 32.859375 32.863281 41.367188 22.367188 41.367188 C 11.875 41.367188 3.367188 32.863281 3.367188 22.367188 C 3.367188 12.980469 10.179688 5.179688 19.132812 3.644531 C 19.425781 3.3125 19.71875 2.972656 20.015625 2.640625 C 20.230469 2.394531 20.441406 2.152344 20.65625 1.910156 C 10.128906 2.785156 1.835938 11.625 1.835938 22.367188 C 1.835938 33.6875 11.046875 42.902344 22.367188 42.902344 C 33.6875 42.902344 42.902344 33.6875 42.902344 22.367188 C 42.902344 11.753906 34.804688 2.996094 24.460938 1.941406 Z M 24.460938 1.941406 "/>
<path style=" stroke:none;fill-rule:nonzero;fill:url(#linear2);" d="M 22.5 0 C 10.09375 0 0 10.09375 0 22.5 C 0 34.90625 10.09375 45 22.5 45 C 34.90625 45 45 34.90625 45 22.5 C 45 10.09375 34.90625 0 22.5 0 Z M 22.367188 44.394531 C 10.207031 44.394531 0.34375 34.53125 0.34375 22.367188 C 0.34375 10.203125 10.207031 0.34375 22.367188 0.34375 C 34.53125 0.34375 44.394531 10.207031 44.394531 22.367188 C 44.394531 34.53125 34.53125 44.394531 22.367188 44.394531 Z M 22.367188 44.394531 "/>
<path style=" stroke:none;fill-rule:nonzero;fill:url(#linear3);" d="M 24.910156 26.703125 C 24.410156 26.828125 23.945312 26.980469 23.46875 27.0625 C 20.9375 27.488281 18.472656 26.230469 17.273438 23.929688 C 15.5 20.519531 17.558594 16.238281 21.332031 15.492188 C 25.015625 14.761719 28.378906 17.5 28.394531 21.246094 C 28.40625 23.03125 28.445312 24.816406 28.386719 26.597656 C 28.304688 29.148438 27.414062 31.355469 25.347656 32.976562 C 24.167969 33.902344 22.796875 34.394531 21.324219 34.570312 C 19.390625 34.8125 17.425781 34.5 15.667969 33.671875 C 13.910156 32.855469 12.480469 31.628906 11.285156 30.128906 C 9.386719 27.75 8.53125 24.992188 8.589844 21.972656 C 8.632812 19.816406 9.320312 17.820312 10.320312 15.925781 C 11.351562 13.980469 12.679688 12.261719 14.160156 10.632812 C 16.066406 8.535156 17.90625 6.371094 19.773438 4.238281 C 20.597656 3.292969 21.429688 2.355469 22.25 1.410156 C 22.476562 1.152344 22.625 1.179688 22.839844 1.429688 C 25.226562 4.152344 27.628906 6.855469 29.996094 9.589844 C 31.179688 10.957031 32.378906 12.320312 33.429688 13.785156 C 35.269531 16.355469 36.507812 19.195312 36.480469 22.425781 C 36.457031 25.050781 35.652344 27.476562 34.167969 29.640625 C 33.570312 30.507812 32.847656 31.289062 32.125 32.058594 C 31.445312 32.777344 30.375 32.769531 29.730469 32.121094 C 29 31.375 28.996094 30.375 29.765625 29.636719 C 31.796875 27.6875 32.953125 25.296875 33.085938 22.507812 C 33.132812 21.46875 32.851562 20.375 32.542969 19.359375 C 31.894531 17.265625 30.660156 15.492188 29.242188 13.847656 C 27.136719 11.414062 25.007812 9.003906 22.894531 6.585938 C 22.578125 6.222656 22.507812 6.222656 22.191406 6.585938 C 20.125 8.953125 18.039062 11.316406 15.988281 13.695312 C 14.304688 15.652344 12.867188 17.769531 12.257812 20.328125 C 11.34375 24.175781 13.023438 28.261719 16.6875 30.332031 C 18.640625 31.433594 20.730469 31.628906 22.808594 30.558594 C 24.148438 29.863281 24.984375 28.183594 24.910156 26.703125 Z M 24.980469 21.269531 C 24.984375 19.863281 23.941406 18.792969 22.554688 18.78125 C 21.179688 18.769531 20.042969 19.886719 20.042969 21.253906 C 20.042969 22.605469 21.160156 23.714844 22.523438 23.722656 C 23.90625 23.734375 24.972656 22.664062 24.980469 21.269531 Z M 24.980469 21.269531 "/>
</g>
</svg>
