<?xml version="1.0" standalone="no"?>
<!DOCTYPE svg PUBLIC "-//W3C//DTD SVG 1.0//EN" "http://www.w3.org/TR/2001/REC-SVG-20010904/DTD/svg10.dtd">
<svg xmlns="http://www.w3.org/2000/svg" xmlns:xlink="http://www.w3.org/1999/xlink" id="body_1" width="45" height="45">

<g transform="matrix(0.6923077 0 0 0.6923077 0 0)">
    <path d="M7.02441 32.3094C 7.02441 46.2519 18.3676 57.5944 32.3094 57.5944C 46.2513 57.5944 57.5944 46.2519 57.5944 32.3094C 57.5944 21.0989 50.2585 11.5744 40.1367 8.27047C 41.5206 9.84542 42.9142 11.4379 44.2863 13.0233L44.2863 13.0233L44.6633 13.4581C 45.4381 14.3525 46.2233 15.2619 46.9975 16.194C 49.2425 18.235 51.0356 20.7232 52.2615 23.4986C 53.4874 26.2741 54.1189 29.2753 54.1156 32.3094C 54.1156 44.3526 44.3526 54.1156 32.3094 54.1156C 20.2662 54.1156 10.5039 44.3526 10.5039 32.3094C 10.5039 25.2075 13.9008 18.9006 19.1567 14.9193C 19.2782 14.7835 19.3939 14.6496 19.5187 14.5118C 21.4122 12.4318 23.2926 10.2601 25.1087 8.16322C 25.1432 8.12422 25.177 8.08457 25.2114 8.04492C 14.7159 11.1207 7.02441 20.8311 7.02441 32.3094z" stroke="none" fill="none" />
    <path d="M35.3339 2.80559C 36.0879 3.66315 36.8406 4.52007 37.592 5.37634C 50.2208 7.83919 59.7531 18.9613 59.7531 32.3097C 59.7531 47.4664 47.4681 59.7534 32.3094 59.7534C 17.1508 59.7534 4.86641 47.4684 4.86641 32.3097C 4.86641 18.7481 14.7048 7.48494 27.6333 5.26519C 28.0571 4.78072 28.4822 4.29712 28.9086 3.81439C 29.2187 3.46274 29.5255 3.10849 29.8342 2.75684C 14.6353 4.01849 2.65186 16.7903 2.65186 32.3097C 2.65186 48.6631 15.9567 61.9673 32.3094 61.9673C 48.6621 61.9673 61.967 48.6631 61.967 32.3097C 61.967 16.9775 50.2715 4.32529 35.3339 2.80559z" stroke="none" fill="none" />
    <path d="M32.5 0C 14.5795 0 0 14.5795 0 32.5C 0 50.4205 14.5795 65 32.5 65C 50.4205 65 65 50.4205 65 32.5C 65 14.5795 50.4205 0 32.5 0zM32.3095 64.1225C 14.7401 64.1225 0.4966 49.8797 0.4966 32.3095C 0.4966 14.7394 14.7401 0.4966 32.3095 0.4966C 49.879 0.4966 64.1225 14.7401 64.1225 32.3095C 64.1225 49.879 49.8797 64.1225 32.3095 64.1225z" stroke="none" fill="none" />
    <path d="M35.9816 38.5729C 35.2594 38.7555 34.5906 38.9746 33.9016 39.089C 30.2421 39.7013 26.6801 37.8878 24.9491 34.5598C 22.3914 29.6399 25.3632 23.4571 30.8102 22.3788C 36.135 21.3238 40.9924 25.2758 41.0152 30.6929C 41.0275 33.2682 41.0873 35.8455 41.0035 38.4175C 40.8826 42.1043 39.5982 45.29 36.6153 47.6306C 34.9084 48.9703 32.9318 49.6827 30.7985 49.9362C 28.0064 50.2844 25.1728 49.8336 22.6267 48.6362C 20.0949 47.4597 18.026 45.6858 16.3022 43.5233C 13.5605 40.0848 12.3242 36.1016 12.4067 31.7381C 12.4652 28.6259 13.461 25.738 14.9079 23.0015C 16.3938 20.1909 18.3165 17.7098 20.4518 15.3601C 23.2084 12.3278 25.8624 9.20197 28.5625 6.11837C 29.7539 4.75727 30.9571 3.40657 32.1375 2.03767C 32.4625 1.66327 32.6796 1.70227 32.9935 2.06107C 36.4385 5.99682 39.9102 9.90072 43.3298 13.8508C 45.038 15.8242 46.7703 17.7943 48.2867 19.912C 50.9452 23.6242 52.7366 27.7263 52.695 32.392C 52.6606 36.1822 51.4958 39.6883 49.3501 42.8135C 48.4921 44.0641 47.4443 45.1957 46.4011 46.3053C 45.4215 47.3453 43.8745 47.3362 42.9483 46.3956C 41.8881 45.3199 41.8849 43.873 42.9951 42.807C 45.9292 39.9905 47.5971 36.5429 47.7888 32.5084C 47.8597 31.0069 47.4521 29.43 47.0017 27.9675C 46.0709 24.9417 44.286 22.3729 42.2346 19.9991C 39.1984 16.4891 36.1246 13.0071 33.0696 9.51137C 32.6146 8.99137 32.5093 8.99137 32.0536 9.51137C 29.0675 12.9356 26.0606 16.3416 23.096 19.7814C 20.6598 22.6095 18.5876 25.6658 17.7075 29.3656C 16.386 34.9205 18.8086 40.8199 24.1054 43.8099C 26.9232 45.4031 29.9444 45.6871 32.9454 44.1388C 34.8837 43.1385 36.0914 40.7062 35.9816 38.5729zM36.0797 30.7222C 36.0888 28.6916 34.5815 27.1472 32.5782 27.127C 30.5924 27.1101 28.9499 28.7286 28.9512 30.702C 28.9512 32.652 30.5684 34.2588 32.5307 34.2692C 34.5295 34.2803 36.07 32.7398 36.0797 30.7222z" stroke="none" fill="none" />
</g>
</svg>