<svg width="240" height="240" viewBox="0 0 240 240" fill="none" xmlns="http://www.w3.org/2000/svg">
<path d="M25.9365 119.297C25.9365 170.777 67.8189 212.657 119.297 212.657C170.774 212.657 212.656 170.777 212.656 119.297C212.656 77.9038 185.57 42.7366 148.197 30.5374C153.307 36.3526 158.452 42.2326 163.519 48.0862L164.911 49.6918C167.772 52.9942 170.671 56.3518 173.529 59.7934C181.819 67.3295 188.439 76.5167 192.966 86.7645C197.492 97.0122 199.824 108.094 199.812 119.297C199.812 163.764 163.764 199.812 119.297 199.812C74.8293 199.812 38.7837 163.764 38.7837 119.297C38.7837 93.0742 51.3261 69.787 70.7325 55.087C71.1813 54.5854 71.6085 54.091 72.0693 53.5822C79.0605 45.9022 86.0037 37.8838 92.7093 30.1414C92.8365 29.9974 92.9613 29.851 93.0885 29.7046C54.3357 41.0614 25.9365 76.915 25.9365 119.297Z" fill="url(#paint0_linear_378_524)"/>
<path d="M130.464 10.3582C133.248 13.5246 136.027 16.6886 138.802 19.8502C185.431 28.9438 220.627 70.0102 220.627 119.297C220.627 175.26 175.267 220.627 119.297 220.627C63.3264 220.627 17.9688 175.267 17.9688 119.297C17.9688 69.223 54.2952 27.6358 102.031 19.4398C103.596 17.651 105.166 15.8654 106.74 14.083C107.885 12.7846 109.018 11.4766 110.158 10.1782C54.0384 14.8366 9.79199 61.9942 9.79199 119.297C9.79199 179.678 58.9176 228.801 119.297 228.801C179.676 228.801 228.802 179.678 228.802 119.297C228.802 62.6854 185.618 15.9694 130.464 10.3582Z" fill="url(#paint1_linear_378_524)"/>
<path d="M120 0C53.832 0 0 53.832 0 120C0 186.168 53.832 240 120 240C186.168 240 240 186.168 240 120C240 53.832 186.168 0 120 0ZM119.297 236.76C54.4248 236.76 1.8336 184.171 1.8336 119.297C1.8336 54.4224 54.4248 1.8336 119.297 1.8336C184.169 1.8336 236.76 54.4248 236.76 119.297C236.76 184.169 184.171 236.76 119.297 236.76Z" fill="url(#paint2_linear_378_524)"/>
<path d="M132.855 142.423C130.188 143.098 127.719 143.907 125.175 144.329C111.663 146.59 98.5108 139.894 92.1196 127.606C82.6756 109.44 93.6484 86.6113 113.76 82.6297C133.421 78.7345 151.356 93.3265 151.44 113.328C151.486 122.837 151.707 132.353 151.397 141.85C150.951 155.463 146.208 167.225 135.195 175.867C128.892 180.814 121.594 183.444 113.717 184.38C103.408 185.666 92.9457 184.001 83.5444 179.58C74.1964 175.236 66.5572 168.687 60.1924 160.702C50.0692 148.006 45.5044 133.299 45.8092 117.187C46.0252 105.696 49.702 95.0329 55.0444 84.9289C60.5308 74.5513 67.63 65.3905 75.514 56.7145C85.6924 45.5185 95.4916 33.9769 105.461 22.5913C109.86 17.5657 114.303 12.5785 118.661 7.52413C119.861 6.14173 120.663 6.28573 121.822 7.61053C134.542 22.1425 147.36 36.5569 159.987 51.1417C166.294 58.4281 172.69 65.7025 178.289 73.5217C188.105 87.2281 194.72 102.375 194.566 119.602C194.439 133.596 190.138 146.542 182.216 158.081C179.048 162.699 175.179 166.877 171.327 170.974C167.71 174.814 161.998 174.78 158.578 171.307C154.664 167.335 154.652 161.993 158.751 158.057C169.584 147.658 175.743 134.928 176.451 120.031C176.712 114.487 175.208 108.665 173.544 103.265C170.108 92.0929 163.517 82.6081 155.943 73.8433C144.732 60.8833 133.383 48.0265 122.103 35.1193C120.423 33.1993 120.034 33.1993 118.352 35.1193C107.326 47.7625 96.2236 60.3385 85.2772 73.0393C76.282 83.4817 68.6308 94.7665 65.3812 108.427C60.502 128.938 69.4468 150.72 89.0044 161.76C99.4084 167.643 110.564 168.691 121.644 162.975C128.801 159.281 133.26 150.3 132.855 142.423ZM133.217 113.436C133.251 105.939 127.685 100.236 120.288 100.162C112.956 100.099 106.892 106.075 106.896 113.362C106.896 120.562 112.868 126.495 120.113 126.533C127.493 126.574 133.181 120.886 133.217 113.436Z" fill="url(#paint3_linear_378_524)"/>
<defs>
<linearGradient id="paint0_linear_378_524" x1="25.9365" y1="121.181" x2="212.656" y2="121.181" gradientUnits="userSpaceOnUse">
<stop offset="0.02" stop-color="#F63548"/>
<stop offset="0.98" stop-color="#9300A9"/>
</linearGradient>
<linearGradient id="paint1_linear_378_524" x1="8945.38" y1="108856" x2="208800" y2="108856" gradientUnits="userSpaceOnUse">
<stop offset="0.02" stop-color="#F63548"/>
<stop offset="0.98" stop-color="#9300A9"/>
</linearGradient>
<linearGradient id="paint2_linear_378_524" x1="0" y1="120000" x2="240000" y2="120000" gradientUnits="userSpaceOnUse">
<stop offset="0.02" stop-color="#F63548"/>
<stop offset="0.98" stop-color="#9300A9"/>
</linearGradient>
<linearGradient id="paint3_linear_378_524" x1="108612" y1="38542.9" x2="31918.5" y2="115436" gradientUnits="userSpaceOnUse">
<stop offset="0.02" stop-color="#F63548"/>
<stop offset="0.98" stop-color="#9300A9"/>
</linearGradient>
</defs>
</svg>
