<?xml version="1.0" standalone="no"?>
<!DOCTYPE svg PUBLIC "-//W3C//DTD SVG 20010904//EN"
 "http://www.w3.org/TR/2001/REC-SVG-20010904/DTD/svg10.dtd">
<svg version="1.0" xmlns="http://www.w3.org/2000/svg"
 width="30.000000pt" height="30.000000pt" viewBox="0 0 600.000000 600.000000"
 preserveAspectRatio="xMidYMid meet">

<g transform="translate(0.000000,600.000000) scale(0.100000,-0.100000)"
fill="#000000" stroke="none">
<path d="M2633 5954 c-335 -40 -647 -133 -958 -283 -336 -163 -610 -361 -858
-620 -436 -455 -701 -1007 -799 -1656 -18 -123 -18 -647 0 -770 98 -649 363
-1201 799 -1656 248 -259 522 -457 858 -620 431 -209 829 -299 1320 -299 491
0 889 90 1320 299 336 163 610 361 858 620 436 455 701 1007 799 1656 18 123
18 647 0 770 -98 649 -363 1201 -799 1656 -248 259 -522 457 -858 620 -317
154 -624 243 -971 284 -161 19 -553 18 -711 -1z m-1048 -1720 c33 -8 80 -19
105 -23 54 -10 80 -20 80 -32 0 -5 8 -9 18 -9 10 0 24 -9 32 -20 8 -11 25 -20
37 -20 16 0 61 -38 148 -125 69 -69 125 -130 125 -136 0 -6 14 -24 30 -39 18
-17 30 -38 30 -54 0 -14 4 -26 8 -26 16 0 52 -83 52 -121 0 -21 5 -39 10 -39
6 0 10 -9 10 -19 0 -11 5 -23 10 -26 6 -3 10 -17 10 -31 0 -13 5 -24 10 -24 6
0 10 -38 10 -95 l0 -95 -288 0 c-268 0 -291 1 -310 19 -12 10 -22 27 -22 37 0
18 -47 74 -62 74 -5 0 -18 8 -29 19 -24 22 -69 31 -159 31 -123 0 -133 -5
-225 -97 -71 -71 -85 -90 -85 -117 0 -20 -7 -37 -20 -46 -15 -11 -20 -26 -20
-62 0 -26 -4 -48 -10 -48 -6 0 -10 -97 -10 -270 0 -173 4 -270 10 -270 6 0 10
-22 10 -48 0 -36 5 -51 20 -62 12 -8 20 -26 20 -42 0 -15 5 -28 10 -28 6 0 10
-6 10 -13 0 -16 104 -127 120 -127 7 0 21 -10 32 -22 18 -21 26 -22 188 -22
162 -1 169 0 188 22 11 12 24 22 30 22 22 0 120 107 128 141 7 32 7 59 -1 68
-2 2 -98 2 -212 2 -193 -2 -211 0 -231 17 -22 19 -22 23 -22 296 l0 276 475 0
c340 0 479 -3 488 -11 9 -9 12 -113 10 -427 -2 -360 -4 -418 -17 -434 -9 -10
-16 -28 -16 -41 0 -12 -9 -29 -20 -37 -11 -8 -20 -22 -20 -32 0 -10 -4 -18
-10 -18 -5 0 -10 -9 -10 -20 0 -11 -4 -20 -10 -20 -5 0 -10 -6 -10 -13 0 -7
-9 -23 -20 -35 -11 -12 -20 -30 -20 -42 0 -30 -322 -350 -353 -350 -12 0 -29
-9 -37 -20 -10 -14 -26 -20 -52 -20 -21 0 -38 -4 -38 -9 0 -5 -17 -17 -37 -27
-33 -16 -64 -19 -233 -18 -192 0 -196 0 -250 27 -29 15 -63 27 -75 27 -11 0
-27 9 -35 20 -8 11 -25 20 -38 20 -16 0 -67 44 -177 155 -85 85 -155 159 -155
165 0 6 -9 20 -20 32 -11 12 -20 32 -20 45 0 13 -4 23 -10 23 -5 0 -10 7 -10
15 0 9 -9 25 -20 37 -11 12 -20 32 -20 45 0 13 -4 23 -10 23 -5 0 -10 14 -10
30 0 17 -4 30 -8 30 -14 0 -32 48 -32 85 0 19 -4 35 -10 35 -6 0 -10 27 -10
60 0 33 -4 60 -9 60 -19 0 -35 125 -47 382 -5 110 -4 151 6 162 8 11 11 57 11
150 -1 113 2 143 19 188 11 29 20 68 20 86 0 17 5 32 10 32 6 0 10 19 10 43 0
29 6 50 20 65 12 13 20 35 20 57 0 19 5 35 10 35 6 0 10 9 10 20 0 11 5 20 10
20 6 0 10 9 10 20 0 11 5 20 10 20 6 0 10 9 10 20 0 11 5 20 10 20 6 0 10 9
10 20 0 11 5 20 10 20 6 0 10 7 10 16 0 9 14 29 30 44 17 15 30 33 30 39 0 7
57 68 126 136 84 85 132 125 147 125 13 0 29 9 37 20 8 11 26 20 40 20 14 0
32 9 40 20 9 12 26 20 45 20 16 0 57 9 90 20 76 24 225 26 310 4z m1672 -27
c7 -8 8 -2697 1 -2697 -5 0 -8 -7 -8 -15 0 -23 -531 -22 -554 1 -14 14 -16
151 -16 1364 0 1252 1 1349 17 1352 23 4 555 0 560 -5z m2315 -23 c-2 -16 -8
-30 -13 -32 -5 -2 -9 -26 -9 -53 0 -27 -4 -49 -10 -49 -5 0 -10 -17 -10 -37
-1 -51 -17 -117 -29 -121 -6 -2 -11 -28 -11 -57 0 -30 -4 -56 -9 -59 -5 -3
-12 -32 -16 -65 -4 -32 -13 -71 -21 -86 -8 -15 -14 -45 -14 -66 0 -21 -4 -41
-10 -44 -5 -3 -10 -15 -10 -26 0 -10 -4 -19 -10 -19 -5 0 -10 -22 -10 -50 0
-27 -4 -50 -10 -50 -5 0 -10 -20 -10 -45 0 -26 -9 -65 -20 -87 -11 -23 -20
-61 -20 -85 0 -24 -4 -43 -10 -43 -5 0 -10 -20 -10 -45 0 -45 -17 -95 -32 -95
-4 0 -8 -27 -8 -60 0 -33 -4 -60 -10 -60 -5 0 -10 -16 -10 -35 0 -37 -18 -85
-32 -85 -4 0 -8 -27 -8 -60 0 -33 -4 -68 -9 -78 -5 -9 -15 -45 -22 -79 -6 -35
-16 -63 -20 -63 -5 0 -9 -24 -9 -54 0 -30 -4 -57 -8 -60 -5 -3 -14 -37 -21
-76 -7 -38 -17 -70 -22 -70 -5 0 -9 -24 -9 -53 0 -39 -5 -59 -20 -75 -15 -16
-20 -35 -20 -77 0 -30 -4 -55 -10 -55 -5 0 -10 -22 -10 -50 0 -27 -4 -50 -10
-50 -5 0 -10 -9 -10 -20 0 -11 -4 -20 -10 -20 -6 0 -10 -27 -10 -60 0 -33 -4
-60 -10 -60 -5 0 -10 -20 -10 -44 0 -25 -4 -48 -10 -51 -5 -3 -10 -18 -10 -32
0 -14 -10 -34 -22 -44 -20 -18 -44 -19 -379 -19 -299 0 -360 2 -372 15 -8 7
-23 59 -33 115 -10 55 -22 100 -26 100 -4 0 -8 27 -8 60 0 33 -3 60 -8 60 -10
0 -32 74 -32 110 0 16 -4 30 -10 30 -6 0 -10 29 -10 68 0 56 -3 70 -20 82 -15
11 -20 26 -20 62 0 26 -4 48 -10 48 -5 0 -10 25 -10 55 0 42 -5 61 -20 77 -15
16 -20 36 -20 75 0 29 -4 53 -10 53 -5 0 -10 23 -10 50 0 28 -4 50 -10 50 -5
0 -10 9 -10 19 0 11 -4 23 -10 26 -5 3 -10 35 -10 71 0 35 -4 64 -8 64 -10 0
-32 81 -32 115 0 14 -4 25 -10 25 -6 0 -10 27 -10 60 0 33 -3 60 -8 60 -10 0
-32 74 -32 110 0 16 -4 30 -10 30 -5 0 -10 25 -10 55 0 42 -5 61 -20 77 -15
16 -20 36 -20 75 0 29 -4 53 -10 53 -6 0 -10 26 -10 58 0 46 -4 60 -20 72 -16
12 -20 26 -20 72 0 32 -4 58 -10 58 -5 0 -10 23 -10 50 0 28 -4 50 -10 50 -5
0 -10 9 -10 20 0 11 -4 20 -10 20 -5 0 -10 25 -10 56 0 34 -5 61 -14 69 -8 8
-17 42 -21 75 -4 33 -11 60 -16 60 -5 0 -9 27 -9 60 l0 60 300 0 300 0 0 -38
c0 -21 3 -42 7 -46 12 -12 32 -98 33 -138 0 -21 5 -38 10 -38 6 0 10 -30 10
-70 0 -40 4 -70 10 -70 6 0 10 -9 10 -20 0 -11 4 -20 9 -20 9 0 14 -26 26
-145 4 -33 15 -79 26 -102 11 -26 19 -65 19 -98 0 -30 4 -55 9 -55 5 0 12 -21
15 -47 16 -118 19 -133 27 -133 5 0 9 -27 9 -59 0 -35 5 -61 11 -63 13 -4 39
-124 46 -213 3 -33 8 -62 12 -65 13 -9 31 -87 31 -134 0 -25 5 -46 10 -46 6 0
10 -27 10 -60 0 -33 4 -60 9 -60 13 0 31 -57 31 -96 0 -18 4 -35 10 -39 18
-11 50 19 50 47 0 16 5 28 10 28 6 0 10 28 10 64 0 36 5 68 10 71 6 3 10 15
10 26 0 10 5 19 10 19 6 0 10 28 10 64 0 36 5 68 10 71 6 3 10 30 10 59 0 38
5 58 20 74 15 16 20 35 20 77 0 30 5 55 10 55 6 0 10 28 10 64 0 36 5 68 10
71 6 3 10 15 10 26 0 10 5 19 10 19 6 0 10 28 10 64 0 36 5 68 10 71 6 3 10
23 10 43 1 50 17 116 29 120 6 2 11 32 11 67 0 35 5 67 10 70 6 3 10 19 10 36
0 35 22 109 32 109 5 0 8 32 8 70 0 40 4 70 10 70 6 0 10 9 10 20 0 11 5 20
10 20 6 0 10 27 10 60 0 33 4 60 10 60 6 0 10 25 10 56 0 92 -11 89 331 88
l294 0 -3 -30z"/>
</g>
</svg>
