<svg width="492" height="493" viewBox="0 0 492 493" fill="none" xmlns="http://www.w3.org/2000/svg">
<g filter="url(#filter0_di_378_496)">
<path d="M246 40C357.562 40 448 130.438 448 242H44C44 130.438 134.438 40 246 40Z" fill="white" fill-opacity="0.02" shape-rendering="crispEdges"/>
<path d="M446.998 241C446.459 130.451 356.676 41 246 41C135.324 41 45.5409 130.451 45.0024 241H446.998Z" stroke="url(#paint0_linear_378_496)" stroke-opacity="0.44" stroke-width="2" shape-rendering="crispEdges"/>
</g>
<path d="M151.937 242.297C151.937 293.777 193.819 335.657 245.297 335.657C296.774 335.657 338.656 293.777 338.656 242.297C338.656 200.904 311.57 165.737 274.197 153.537C279.307 159.353 284.452 165.233 289.519 171.086L290.911 172.692C293.772 175.994 296.671 179.352 299.529 182.793C307.819 190.329 314.439 199.517 318.966 209.764C323.492 220.012 325.824 231.094 325.812 242.297C325.812 286.764 289.764 322.812 245.297 322.812C200.829 322.812 164.784 286.764 164.784 242.297C164.784 216.074 177.326 192.787 196.733 178.087C197.181 177.585 197.609 177.091 198.069 176.582C205.061 168.902 212.004 160.884 218.709 153.141C218.837 152.997 218.961 152.851 219.089 152.705C180.336 164.061 151.937 199.915 151.937 242.297Z" fill="url(#paint1_linear_378_496)"/>
<path d="M256.464 133.358C259.248 136.525 262.027 139.689 264.802 142.85C311.431 151.944 346.627 193.01 346.627 242.297C346.627 298.26 301.267 343.627 245.297 343.627C189.326 343.627 143.969 298.267 143.969 242.297C143.969 192.223 180.295 150.636 228.031 142.44C229.596 140.651 231.166 138.865 232.74 137.083C233.885 135.785 235.018 134.477 236.158 133.178C180.038 137.837 135.792 184.994 135.792 242.297C135.792 302.678 184.918 351.801 245.297 351.801C305.676 351.801 354.802 302.678 354.802 242.297C354.802 185.685 311.618 138.969 256.464 133.358Z" fill="url(#paint2_linear_378_496)"/>
<path d="M246 123C179.832 123 126 176.832 126 243C126 309.168 179.832 363 246 363C312.168 363 366 309.168 366 243C366 176.832 312.168 123 246 123ZM245.297 359.76C180.425 359.76 127.834 307.171 127.834 242.297C127.834 177.422 180.425 124.834 245.297 124.834C310.169 124.834 362.76 177.425 362.76 242.297C362.76 307.169 310.171 359.76 245.297 359.76Z" fill="url(#paint3_linear_378_496)"/>
<path d="M258.855 265.423C256.188 266.098 253.719 266.907 251.175 267.329C237.663 269.59 224.511 262.894 218.12 250.606C208.676 232.44 219.648 209.611 239.76 205.63C259.421 201.735 277.356 216.327 277.44 236.328C277.486 245.837 277.707 255.353 277.397 264.85C276.951 278.463 272.208 290.225 261.195 298.867C254.892 303.814 247.594 306.444 239.717 307.38C229.408 308.666 218.946 307.001 209.544 302.58C200.196 298.236 192.557 291.687 186.192 283.702C176.069 271.006 171.504 256.299 171.809 240.187C172.025 228.696 175.702 218.033 181.044 207.929C186.531 197.551 193.63 188.391 201.514 179.715C211.692 168.519 221.492 156.977 231.461 145.591C235.86 140.566 240.303 135.579 244.661 130.524C245.861 129.142 246.663 129.286 247.822 130.611C260.542 145.143 273.36 159.557 285.987 174.142C292.294 181.428 298.69 188.703 304.289 196.522C314.105 210.228 320.72 225.375 320.566 242.602C320.439 256.596 316.138 269.542 308.216 281.081C305.048 285.699 301.179 289.877 297.327 293.974C293.71 297.814 287.998 297.78 284.578 294.307C280.664 290.335 280.652 284.993 284.751 281.057C295.584 270.658 301.743 257.928 302.451 243.031C302.712 237.487 301.208 231.665 299.544 226.265C296.108 215.093 289.517 205.608 281.943 196.843C270.732 183.883 259.383 171.027 248.103 158.119C246.423 156.199 246.034 156.199 244.352 158.119C233.326 170.763 222.224 183.339 211.277 196.039C202.282 206.482 194.631 217.767 191.381 231.427C186.502 251.938 195.447 273.72 215.004 284.76C225.408 290.643 236.564 291.691 247.644 285.975C254.801 282.281 259.26 273.3 258.855 265.423ZM259.217 236.436C259.251 228.939 253.685 223.236 246.288 223.162C238.956 223.099 232.892 229.075 232.896 236.362C232.896 243.562 238.868 249.495 246.113 249.533C253.493 249.574 259.181 243.886 259.217 236.436Z" fill="url(#paint4_linear_378_496)"/>
<g filter="url(#filter1_di_378_496)">
<path d="M246 445C357.562 445 448 354.562 448 243H44C44 354.562 134.438 445 246 445Z" fill="#F73649" fill-opacity="0.85" shape-rendering="crispEdges"/>
<path d="M445.99 245C444.917 354.536 355.789 443 246 443C136.21 443 47.0829 354.536 46.0098 245H445.99Z" stroke="url(#paint5_linear_378_496)" stroke-opacity="0.44" stroke-width="4" shape-rendering="crispEdges"/>
</g>
<defs>
<filter id="filter0_di_378_496" x="0" y="0" width="492" height="290" filterUnits="userSpaceOnUse" color-interpolation-filters="sRGB">
<feFlood flood-opacity="0" result="BackgroundImageFix"/>
<feColorMatrix in="SourceAlpha" type="matrix" values="0 0 0 0 0 0 0 0 0 0 0 0 0 0 0 0 0 0 127 0" result="hardAlpha"/>
<feOffset dy="4"/>
<feGaussianBlur stdDeviation="22"/>
<feComposite in2="hardAlpha" operator="out"/>
<feColorMatrix type="matrix" values="0 0 0 0 0 0 0 0 0 0 0 0 0 0 0 0 0 0 0.25 0"/>
<feBlend mode="normal" in2="BackgroundImageFix" result="effect1_dropShadow_378_496"/>
<feBlend mode="normal" in="SourceGraphic" in2="effect1_dropShadow_378_496" result="shape"/>
<feColorMatrix in="SourceAlpha" type="matrix" values="0 0 0 0 0 0 0 0 0 0 0 0 0 0 0 0 0 0 127 0" result="hardAlpha"/>
<feOffset dx="-22" dy="44"/>
<feGaussianBlur stdDeviation="44"/>
<feComposite in2="hardAlpha" operator="arithmetic" k2="-1" k3="1"/>
<feColorMatrix type="matrix" values="0 0 0 0 0.866667 0 0 0 0 0.866667 0 0 0 0 0.866667 0 0 0 1 0"/>
<feBlend mode="normal" in2="shape" result="effect2_innerShadow_378_496"/>
</filter>
<filter id="filter1_di_378_496" x="0" y="203" width="492" height="290" filterUnits="userSpaceOnUse" color-interpolation-filters="sRGB">
<feFlood flood-opacity="0" result="BackgroundImageFix"/>
<feColorMatrix in="SourceAlpha" type="matrix" values="0 0 0 0 0 0 0 0 0 0 0 0 0 0 0 0 0 0 127 0" result="hardAlpha"/>
<feOffset dy="4"/>
<feGaussianBlur stdDeviation="22"/>
<feComposite in2="hardAlpha" operator="out"/>
<feColorMatrix type="matrix" values="0 0 0 0 0 0 0 0 0 0 0 0 0 0 0 0 0 0 0.25 0"/>
<feBlend mode="normal" in2="BackgroundImageFix" result="effect1_dropShadow_378_496"/>
<feBlend mode="normal" in="SourceGraphic" in2="effect1_dropShadow_378_496" result="shape"/>
<feColorMatrix in="SourceAlpha" type="matrix" values="0 0 0 0 0 0 0 0 0 0 0 0 0 0 0 0 0 0 127 0" result="hardAlpha"/>
<feOffset dx="-22" dy="44"/>
<feGaussianBlur stdDeviation="44"/>
<feComposite in2="hardAlpha" operator="arithmetic" k2="-1" k3="1"/>
<feColorMatrix type="matrix" values="0 0 0 0 0.866667 0 0 0 0 0.866667 0 0 0 0 0.866667 0 0 0 1 0"/>
<feBlend mode="normal" in2="shape" result="effect2_innerShadow_378_496"/>
</filter>
<linearGradient id="paint0_linear_378_496" x1="246" y1="242" x2="246" y2="40" gradientUnits="userSpaceOnUse">
<stop stop-color="#F63548" stop-opacity="0.99"/>
<stop offset="1" stop-color="#F1F3FA" stop-opacity="0.4"/>
</linearGradient>
<linearGradient id="paint1_linear_378_496" x1="151.937" y1="244.181" x2="338.656" y2="244.181" gradientUnits="userSpaceOnUse">
<stop offset="0.02" stop-color="#F63548"/>
<stop offset="0.98" stop-color="#9300A9"/>
</linearGradient>
<linearGradient id="paint2_linear_378_496" x1="9071.38" y1="108979" x2="208926" y2="108979" gradientUnits="userSpaceOnUse">
<stop offset="0.02" stop-color="#F63548"/>
<stop offset="0.98" stop-color="#9300A9"/>
</linearGradient>
<linearGradient id="paint3_linear_378_496" x1="126" y1="120123" x2="240126" y2="120123" gradientUnits="userSpaceOnUse">
<stop offset="0.02" stop-color="#F63548"/>
<stop offset="0.98" stop-color="#9300A9"/>
</linearGradient>
<linearGradient id="paint4_linear_378_496" x1="108738" y1="38665.9" x2="32044.5" y2="115559" gradientUnits="userSpaceOnUse">
<stop offset="0.02" stop-color="#F63548"/>
<stop offset="0.98" stop-color="#9300A9"/>
</linearGradient>
<linearGradient id="paint5_linear_378_496" x1="246" y1="243" x2="246" y2="445" gradientUnits="userSpaceOnUse">
<stop stop-color="#F63548"/>
<stop offset="1" stop-color="#F1F3FA" stop-opacity="0.4"/>
</linearGradient>
</defs>
</svg>
