<svg width="380" height="" viewBox="0 0 380 68" fill="none" xmlns="http://www.w3.org/2000/svg">
<rect width="380" height="68" fill="#EB8367"/>
<path d="M87.068 29.418C86.834 29.04 86.501 28.752 86.069 28.554C85.637 28.338 85.115 28.23 84.503 28.23C83.351 28.23 82.46 28.608 81.83 29.364C81.2 30.102 80.885 31.119 80.885 32.415C80.885 33.909 81.236 35.025 81.938 35.763C82.64 36.501 83.72 36.87 85.178 36.87C86.564 36.87 87.68 36.312 88.526 35.196H83.747V30.957H93.494V36.951C92.666 38.373 91.523 39.597 90.065 40.623C88.607 41.631 86.762 42.135 84.53 42.135C82.55 42.135 80.822 41.73 79.346 40.92C77.888 40.092 76.763 38.94 75.971 37.464C75.197 35.988 74.81 34.305 74.81 32.415C74.81 30.525 75.197 28.842 75.971 27.366C76.763 25.89 77.888 24.747 79.346 23.937C80.804 23.109 82.514 22.695 84.476 22.695C86.978 22.695 89.012 23.298 90.578 24.504C92.162 25.71 93.098 27.348 93.386 29.418H87.068ZM104.647 22.884V42H98.6527V22.884H104.647ZM129.605 22.884L123.179 42H115.43L109.004 22.884H115.376L119.318 36.033L123.233 22.884H129.605ZM139.941 22.884V42H133.947V22.884H139.941ZM163.981 42H157.987L151.642 32.388V42H145.648V22.884H151.642L157.987 32.658V22.884H163.981V42ZM181.407 29.418C181.173 29.04 180.84 28.752 180.408 28.554C179.976 28.338 179.454 28.23 178.842 28.23C177.69 28.23 176.799 28.608 176.169 29.364C175.539 30.102 175.224 31.119 175.224 32.415C175.224 33.909 175.575 35.025 176.277 35.763C176.979 36.501 178.059 36.87 179.517 36.87C180.903 36.87 182.019 36.312 182.865 35.196H178.086V30.957H187.833V36.951C187.005 38.373 185.862 39.597 184.404 40.623C182.946 41.631 181.101 42.135 178.869 42.135C176.889 42.135 175.161 41.73 173.685 40.92C172.227 40.092 171.102 38.94 170.31 37.464C169.536 35.988 169.149 34.305 169.149 32.415C169.149 30.525 169.536 28.842 170.31 27.366C171.102 25.89 172.227 24.747 173.685 23.937C175.143 23.109 176.853 22.695 178.815 22.695C181.317 22.695 183.351 23.298 184.917 24.504C186.501 25.71 187.437 27.348 187.725 29.418H181.407ZM215.591 22.884V27.636H210.515V42H204.521V27.636H199.499V22.884H215.591ZM229.532 42.189C227.732 42.189 226.076 41.766 224.564 40.92C223.07 40.074 221.882 38.904 221 37.41C220.118 35.916 219.677 34.233 219.677 32.361C219.677 30.489 220.118 28.806 221 27.312C221.882 25.818 223.07 24.657 224.564 23.829C226.076 22.983 227.732 22.56 229.532 22.56C231.332 22.56 232.979 22.983 234.473 23.829C235.967 24.657 237.146 25.818 238.01 27.312C238.892 28.806 239.333 30.489 239.333 32.361C239.333 34.233 238.892 35.916 238.01 37.41C237.146 38.904 235.958 40.074 234.446 40.92C232.952 41.766 231.314 42.189 229.532 42.189ZM229.532 36.6C230.72 36.6 231.638 36.222 232.286 35.466C232.934 34.692 233.258 33.657 233.258 32.361C233.258 31.047 232.934 30.012 232.286 29.256C231.638 28.482 230.72 28.095 229.532 28.095C228.326 28.095 227.399 28.482 226.751 29.256C226.103 30.012 225.779 31.047 225.779 32.361C225.779 33.657 226.103 34.692 226.751 35.466C227.399 36.222 228.326 36.6 229.532 36.6ZM256.052 42L250.49 33.711V42H244.496V22.884H250.49V30.93L255.971 22.884H262.748L256.16 32.037L263.18 42H256.052ZM273.871 27.663V30.012H279.811V34.521H273.871V37.221H280.621V42H267.877V22.884H280.621V27.663H273.871ZM304.213 42H298.219L291.874 32.388V42H285.88V22.884H291.874L298.219 32.658V22.884H304.213V42Z" fill="#0B1A4C"/>
</svg>
