<svg width="35" height="28" viewBox="0 0 53 42" fill="none" xmlns="http://www.w3.org/2000/svg">
<path d="M46.8597 10.4653C46.8912 10.9209 46.8912 11.3764 46.8912 11.8361C46.8912 25.8444 36.2271 42.0001 16.7272 42.0001V41.9917C10.9669 42.0001 5.32629 40.3501 0.477051 37.239C1.31465 37.3398 2.15644 37.3902 3.00033 37.3923C7.774 37.3965 12.4112 35.7947 16.1667 32.8453C11.6303 32.7592 7.65224 29.8014 6.26255 25.4833C7.85167 25.7898 9.48907 25.7268 11.0488 25.3006C6.103 24.3014 2.5448 19.956 2.5448 14.9094C2.5448 14.8632 2.5448 14.8192 2.5448 14.7751C4.01846 15.5959 5.66846 16.0514 7.35625 16.1018C2.69804 12.9886 1.26217 6.79168 4.07514 1.94664C9.45758 8.56973 17.399 12.5961 25.924 13.0222C25.0696 9.34015 26.2368 5.48176 28.991 2.8934C33.2608 -1.12034 39.9763 -0.914616 43.99 3.35313C46.3643 2.885 48.6398 2.01382 50.7223 0.779468C49.9309 3.23347 48.2746 5.31802 46.062 6.64264C48.1633 6.39493 50.2164 5.83233 52.1498 4.97374C50.7265 7.10657 48.9337 8.96439 46.8597 10.4653Z" fill="#1D9BF0"/>
</svg>
